<svg width="224" height="320" viewBox="0 0 224 320" fill="none" xmlns="http://www.w3.org/2000/svg">
<rect width="224" height="320" rx="32" fill="#54372A"/>
<path fill-rule="evenodd" clip-rule="evenodd" d="M131.389 40.1217C131.058 40.4537 131.317 40.9388 132 41.2672C132.409 41.4639 133.696 41.9672 134.859 42.3861C139.721 44.1363 140.997 45.3211 141.335 48.4012C141.461 49.5454 141.507 49.6363 141.961 49.6363C143.144 49.6363 143.261 47.199 142.179 45.0957C141.842 44.4405 141.59 43.8963 141.618 43.8861C142.572 43.5454 142.745 42.9178 142.186 41.8196C141.428 40.3293 140.181 39.6562 139.177 40.1949C138.592 40.509 138.7 40.7648 139.884 41.8703C141.671 43.5378 141.301 43.7166 138.903 42.3449C136.565 41.008 135.265 40.499 133.421 40.1989C131.927 39.9558 131.568 39.9423 131.389 40.1217ZM122.43 45.6628C118.498 46.3039 114.915 47.6251 113.013 49.1356L112.277 49.7208L111.213 49.3154C108.635 48.333 106.109 48.6737 100.018 50.8256C93.1065 53.267 92.5916 53.685 86.5065 61.7919C83.7069 65.5217 82.5265 67.4501 81.541 69.9043L80.8934 71.5167L79.1789 71.6633C73.9242 72.1129 71.1115 73.6445 68.1542 77.6667C62.9723 84.7146 61.5018 95.584 63.1451 114.691C63.3194 116.719 63.4117 118.58 63.3498 118.827C63.2879 119.074 62.5695 119.961 61.7535 120.798C59.54 123.069 59.5555 123.025 59.5569 127.013C59.5583 130.708 59.6263 131.038 61.164 134.796C61.5278 135.685 62.1825 137.637 62.6191 139.134C64.7602 146.477 66.8614 149.937 73.4262 156.931C77.5727 161.347 81.0806 164.074 85.101 166.006C87.613 167.213 91.013 168.241 93.0756 168.418C95.3793 168.614 97.8586 167.774 101.298 165.629C102.111 165.122 102.861 164.708 102.966 164.708C103.07 164.708 103.642 165.076 104.237 165.527C105.626 166.578 108.072 167.725 110.321 168.379C112.179 168.919 122.611 170.899 125.499 171.26C128.925 171.689 131.285 171.499 135.521 170.455C138.529 169.713 140.469 168.802 141.875 167.468C143.955 165.495 144.715 163.536 144.885 159.713L144.997 157.205L147.3 157.092C151.158 156.903 153.952 155.867 159.719 152.485C164.251 149.826 166.377 148.347 168.045 146.691C170.054 144.696 172.527 141.346 173.541 139.247C174.238 137.805 174.371 137.321 174.446 135.965C174.592 133.318 173.595 131.348 171.543 130.228C170.029 129.402 168.522 129.346 164.76 129.976C161.084 130.593 157.911 130.651 153.641 130.181C152.075 130.009 149.623 129.844 148.193 129.815C145.724 129.764 145.558 129.735 144.901 129.233C143.609 128.244 141.633 127.75 136.81 127.208C135.337 127.043 133.985 126.861 133.804 126.804C133.579 126.733 133.407 126.301 133.254 125.42C132.899 123.372 132.281 121.569 131.315 119.753C129.982 117.249 129.299 116.381 125.988 112.99C124.158 111.116 122.605 109.322 122.027 108.415C120.688 106.315 118.611 101.954 117.779 99.496C116.968 97.0993 116.748 96.8682 114.718 96.2872C113.967 96.0721 113.319 95.8625 113.277 95.8211C113.236 95.7795 113.333 95.4322 113.492 95.0491C114.063 93.68 114.624 90.2211 114.729 87.4298C114.854 84.1336 114.467 81.0896 113.714 79.4408L113.227 78.3752L113.763 78.0369C116.696 76.1842 121.146 72.2075 123.617 69.2304C126.594 65.6436 127.175 64.2858 126.636 62.1658L126.354 61.0559L127.05 60.4806C127.723 59.9249 128.496 59.4761 132.748 57.1715C135.64 55.6041 136.835 54.5978 137.58 53.1008C138.087 52.0831 138.199 51.6212 138.199 50.5296C138.199 49.4018 138.114 49.0722 137.642 48.3684C136.771 47.0673 135.682 46.4435 133.24 45.8466C131.373 45.3903 124.79 45.2783 122.43 45.6628ZM87.4278 49.9927C84.4939 52.2216 83.14 53.7186 83.4806 54.3569C83.8219 54.9966 84.5546 54.6127 87.2584 52.3779C87.9488 51.8072 89.0038 50.9521 89.603 50.4777C90.202 50.0033 90.8268 49.3685 90.9914 49.0674C91.2675 48.562 91.2609 48.4977 90.9055 48.2328C90.6937 48.0748 90.4259 47.9493 90.3105 47.9539C90.1948 47.9585 88.8977 48.876 87.4278 49.9927ZM132.41 49.1301C134.575 49.6643 134.827 49.8121 134.827 50.5483C134.827 51.853 133.631 53.1222 131.299 54.2938C129.825 55.0346 127.998 56.1386 125.772 57.6346C124.375 58.5729 124.097 58.6906 123.736 58.4969C122.946 58.073 115.764 51.8932 115.624 51.5178C115.535 51.2785 116.914 50.4047 117.965 50.0341C119.357 49.543 121.758 48.9616 123.25 48.7539C125.448 48.4482 130.486 48.655 132.41 49.1301ZM93.0359 50.1208C90.1548 51.8585 84.604 56.2515 83.1779 57.9222C82.3857 58.8505 81.7591 60.3004 81.943 60.7806C82.0279 61.0028 82.2604 61.0804 82.7108 61.0368C83.2489 60.9847 83.3889 60.8645 83.5496 60.3173C83.6924 59.83 84.4616 59.03 86.5247 57.2218C89.9953 54.1803 92.1287 52.4811 93.3328 51.7993C95.8879 50.3526 96.2879 49.8451 95.248 49.3699C94.9701 49.2428 94.7248 49.1392 94.7026 49.1394C94.6804 49.1396 93.9304 49.5812 93.0359 50.1208ZM123.027 50.2479C121.163 50.6189 119.242 51.5819 118.85 52.3407C118.683 52.6649 118.604 53.0232 118.674 53.1372C118.865 53.4471 120.232 53.1588 121.934 52.4499C123.358 51.857 123.546 51.8297 126.298 51.8162C129.522 51.8001 129.656 51.7901 130.051 51.5399C130.552 51.2214 129.826 50.4192 128.802 50.1604C127.617 49.8613 124.752 49.9046 123.027 50.2479ZM132.06 50.42C131.464 51.1393 132.248 52.4694 132.992 52.0022C133.716 51.5474 133.453 50.1336 132.645 50.1336C132.454 50.1336 132.19 50.2625 132.06 50.42ZM109.977 52.1893C111.361 52.5494 112.916 53.53 114.756 55.2019C115.601 55.9699 116.632 56.8692 117.047 57.2002C117.737 57.7503 117.782 57.8448 117.574 58.3025C117.368 58.7557 117.492 59.0489 118.878 61.3807C121.496 65.7862 121.807 66.789 120.852 67.7463C120.256 68.3445 119.948 68.3653 119.805 67.8177C119.392 66.233 115.877 60.5994 114.34 59.058C113.71 58.4259 112.817 58.2999 112.414 58.7863C112.134 59.1244 112.098 59.0642 113.716 60.9743C116.056 63.7364 118.551 67.9914 118.6 69.3036C118.632 70.1615 118.305 70.5707 116.725 71.6496C115.939 72.1865 115.557 72.3498 115.5 72.1723C115.455 72.0305 115.136 70.9747 114.791 69.826C114.099 67.5247 112.205 63.3688 111.222 61.9957C110.529 61.0286 109.472 60.3452 108.969 60.5391C108.464 60.7332 108.566 61.0603 109.761 63.0731C112.054 66.9362 113.482 70.4504 113.881 73.2113C114.004 74.0628 113.979 74.129 113.397 74.4738C113.06 74.6739 112.735 74.7894 112.676 74.7304C112.618 74.6715 112.307 73.8349 111.986 72.8711C111.292 70.7911 109.259 66.5622 107.917 64.4116C107.391 63.5672 106.664 62.3814 106.303 61.7769C105.634 60.6559 104.877 60.1982 104.432 60.6447C104.073 61.0048 104.631 62.3202 106.341 65.1422C107.206 66.5696 108.294 68.5487 108.76 69.5405C109.687 71.5171 111.026 75.2175 111.026 75.8057C111.026 76.2904 110.444 76.589 109.502 76.5888L108.745 76.5886L108.085 74.6494C107.047 71.5999 105.398 68.2987 102.422 63.3116C102.051 62.69 101.79 62.4662 101.438 62.4662C100.304 62.4662 100.363 63.4224 101.618 65.3781C103.951 69.0152 106.509 74.3093 106.543 75.574C106.57 76.546 106.091 76.5906 105.116 75.7072C104.576 75.2183 104.199 74.6168 103.89 73.7559C102.896 70.9814 101.694 68.7904 100.525 67.6172C99.3553 66.4446 98.1468 65.8893 97.3302 66.1493C96.4922 66.416 97.0539 67.5574 98.3007 68.1213C99.5822 68.7007 101.227 71.1827 102.301 74.1571C102.549 74.8435 102.705 75.4524 102.647 75.5101C102.589 75.568 100.814 75.156 98.7014 74.5947C91.1866 72.5974 90.6018 72.4649 85.0808 71.5086L84.4245 71.3948L85.5564 69.2678C87.8354 64.9846 90.565 61.1329 93.4336 58.1524C94.8956 56.6333 95.4654 56.1927 96.8116 55.5408C97.7021 55.1096 98.9217 54.6 99.5217 54.4082C100.122 54.2165 101.545 53.707 102.684 53.276C106.379 51.8784 107.907 51.6509 109.977 52.1893ZM106.067 55.5016C105.64 55.7749 106.059 56.3818 106.732 56.4622C107.199 56.5183 107.257 56.4582 107.257 55.9152C107.257 55.4145 107.177 55.3059 106.811 55.3083C106.565 55.3101 106.231 55.397 106.067 55.5016ZM99.5808 57.9109C96.4942 59.5382 93.8604 61.7658 90.895 65.2567C88.4913 68.0863 88.0974 69.0802 89.1149 69.7488C89.391 69.9304 89.6458 70.0442 89.6809 70.002C89.716 69.9598 90.082 69.3884 90.4941 68.7319C93.57 63.8321 97.6188 60.3336 102 58.7903C103.257 58.3475 103.533 57.9642 102.989 57.418C102.425 56.8535 101.27 57.0205 99.5808 57.9109ZM122 61.4489C123.252 62.6178 123.623 63.4426 123.317 64.373C123.194 64.7465 123.017 65.0521 122.924 65.0521C122.794 65.0521 120.559 61.1156 120.176 60.2119C120.03 59.8682 121.042 60.5544 122 61.4489ZM122.915 73.371C121.852 74.0483 121.225 74.8439 120.294 76.698C117.908 81.4481 117.367 89.9003 119.386 90.862C120.05 91.1783 120.546 90.9955 120.546 90.4349C120.546 90.1969 120.358 89.4678 120.127 88.8152C119.349 86.6085 119.836 81.7315 121.14 78.681C121.754 77.243 123.102 75.2959 123.747 74.9138C124.064 74.7258 124.467 74.3522 124.643 74.0835C124.939 73.6306 124.936 73.5665 124.607 73.2023C124.142 72.6865 123.962 72.7044 122.915 73.371ZM85.9503 74.8157C88.0369 75.0238 90.9436 75.7015 96.8441 77.356C101.51 78.6645 105.713 79.5695 107.926 79.7428C110.331 79.9311 110.63 80.0966 111.108 81.5049C112.069 84.3329 112.002 88.3279 110.93 92.1042C110.542 93.4718 110.169 95.1442 110.102 95.8211L109.979 97.0514L109.2 97.1835C108.771 97.2561 108.393 97.2841 108.36 97.2459C108.327 97.2077 108.463 95.9234 108.663 94.3917C109.226 90.0811 109.169 89.1205 108.351 89.1205C107.63 89.1205 107.432 89.5764 107.252 91.6477C107.04 94.093 106.681 97.0673 106.542 97.5246C106.484 97.7185 106.223 97.8858 105.955 97.9025C105.689 97.9191 105.362 97.9413 105.228 97.9523C104.962 97.974 104.96 98.1138 105.304 93.4966C105.651 88.8508 105.644 88.6336 105.144 88.5622C104.645 88.4908 104.164 89.0843 103.886 90.1157C103.783 90.499 103.61 92.334 103.503 94.1934C103.279 98.0969 103.099 98.8368 102.385 98.7957C101.325 98.7346 101.283 97.1176 102.198 91.6069C102.787 88.0561 102.804 87.5099 102.346 86.9424C101.585 85.9992 100.988 86.9215 100.689 89.5036C100.581 90.4417 100.318 92.5323 100.106 94.1495C99.8938 95.7668 99.7201 97.6688 99.7201 98.3764C99.7201 99.2804 99.6455 99.6629 99.4693 99.6629C99.3317 99.6629 97.6753 100.155 95.7889 100.757C93.9025 101.359 92.2749 101.851 92.1719 101.851C91.823 101.851 91.9809 97.5978 92.493 93.1937C93.2043 87.0775 93.2713 85.9172 92.9387 85.4776C92.6765 85.1313 92.6442 85.1337 92.1336 85.5363C91.4617 86.0666 91.1939 87.0288 91.1921 88.9216C91.1913 89.7421 91.0049 91.8456 90.778 93.5961C90.4797 95.8977 90.3843 97.5546 90.4333 99.5822L90.5009 102.385L89.453 102.815C87.348 103.676 86.6384 103.264 87.0085 101.394C87.1211 100.825 87.3514 98.7479 87.5202 96.7787C87.906 92.2799 88.3447 88.9212 88.7194 87.5981C89.2964 85.5598 88.927 84.7355 87.8455 85.6481C87.095 86.2814 86.9123 86.9452 86.6435 90.0156C86.5287 91.3285 86.249 93.5662 86.0221 94.9885C85.7952 96.4107 85.5594 99.059 85.4979 100.874L85.3864 104.173L83.7112 104.72C82.7901 105.021 82.016 105.237 81.9912 105.2C81.9666 105.163 82.0037 102.671 82.0739 99.6629C82.1649 95.7563 82.3052 93.5959 82.5646 92.1042C82.923 90.0425 82.8728 88.5238 82.4462 88.5238C82.0184 88.5238 81.2875 89.5229 80.9723 90.5388C80.7038 91.4047 80.6131 92.9321 80.4939 98.6041C80.3725 104.385 80.294 105.682 80.0423 106.068C79.7442 106.524 77.7607 107.743 77.592 107.573C77.2986 107.279 78.2693 98.3871 79.2198 92.6618C79.6139 90.2882 79.8808 88.2008 79.8128 88.0231C79.7372 87.8258 79.5153 87.725 79.242 87.7639C78.6648 87.8461 77.9968 89.174 77.6041 91.0206C77.1592 93.1127 76.1032 102.755 75.9527 106.099L75.8198 109.055L73.5484 110.227C71.1298 111.475 70.674 111.613 70.835 111.051C70.8898 110.859 70.9897 108.778 71.057 106.426C71.3218 97.161 71.961 91.9318 73.0676 89.9802C73.3268 89.5231 73.5388 88.9668 73.5388 88.744C73.5388 88.2463 72.874 87.8592 72.3214 88.0353C70.8414 88.5063 69.4885 97.121 69.2459 107.619C69.113 113.369 69.1239 113.326 67.4872 114.493C66.9602 114.869 66.4998 115.147 66.4639 115.111C66.3041 114.951 65.6069 101.421 65.6061 98.4619C65.6051 95.083 65.9334 91.6292 66.4802 89.2647C66.9293 87.3228 68.9147 82.2837 69.8554 80.6984C70.2995 79.95 71.3951 78.5931 72.2903 77.6826C74.3096 75.6289 75.2872 75.2109 79.1916 74.7324C80.513 74.5704 83.909 74.6124 85.9503 74.8157ZM79.9627 76.4002C77.6511 76.7028 77.204 76.916 75.1194 78.7122C73.2209 80.3477 72.7601 80.9935 73.0154 81.6609C73.2762 82.3428 74.118 81.9718 75.7688 80.4471C77.6534 78.7068 78.0214 78.487 79.7271 78.0838C82.2098 77.4968 85.8672 77.866 89.3475 79.0547C90.1334 79.3231 91.4982 79.6905 92.3802 79.8709C93.2624 80.0513 94.3854 80.3769 94.8759 80.5945C96.0261 81.1047 96.8209 81.0295 96.9095 80.4018C97.0609 79.3304 95.8145 78.7337 90.8591 77.5054C86.1243 76.3318 82.9476 76.0098 79.9627 76.4002ZM100.751 81.0049C100.154 81.6044 100.965 82.5528 101.801 82.2312C102.434 81.9875 102.022 80.7662 101.307 80.7662C101.132 80.7662 100.882 80.8736 100.751 81.0049ZM60.0831 82.5445C58.9228 84.1507 57.794 88.8086 57.0861 94.9115C56.5321 99.6876 56.5444 100.54 57.1772 101.174C57.4509 101.449 57.7609 101.62 57.866 101.555C58.2333 101.327 58.4787 99.8497 58.6665 96.7343C58.9253 92.4458 59.9153 87.2338 61.1379 83.7244C61.6151 82.3549 61.626 82.2437 61.3078 82.0104C60.805 81.6416 60.7029 81.6862 60.0831 82.5445ZM105.512 81.9994C105.042 82.4709 105.262 82.9628 106.189 83.5088C107.547 84.3094 108.587 85.2809 108.74 85.891C108.869 86.407 109.156 86.724 109.499 86.7306C109.781 86.736 110.254 85.3253 110.119 84.8791C109.845 83.9731 109.007 83.1629 107.628 82.4711C106.077 81.6929 105.865 81.6456 105.512 81.9994ZM96.3774 86.2011C95.7887 86.9126 95.3125 90.9637 95.0132 97.8097C94.9416 99.4455 94.9755 99.6786 95.3387 100.043C95.8218 100.527 96.3044 100.401 96.5618 99.7224C96.6624 99.4567 96.7477 98.1934 96.7511 96.9149C96.7544 95.6365 96.8371 93.9641 96.9349 93.1983C97.0327 92.4324 97.2154 90.5623 97.3409 89.0424C97.5284 86.7728 97.522 86.249 97.3058 86.1114C96.9272 85.8707 96.6267 85.8997 96.3774 86.2011ZM74.1313 91.0168C73.5688 92.5007 72.7542 98.0424 72.4364 102.547C72.3668 103.532 72.1869 105.135 72.0362 106.11C71.8856 107.086 71.8172 108.115 71.8839 108.398C72.0439 109.075 72.5211 109.609 72.9676 109.609C73.5599 109.609 73.681 109.056 73.7959 105.829C73.9113 102.59 74.4609 98.0295 75.1268 94.7836C75.5671 92.6375 75.624 91.4733 75.317 90.8976C75.0218 90.3448 74.361 90.4113 74.1313 91.0168ZM114.239 99.8121C114.639 100.276 115.036 101.491 114.846 101.67C114.763 101.749 112.776 102.8 110.431 104.006C103.749 107.442 98.4858 109.617 94.9212 110.413C91.8683 111.095 90.7441 111.754 91.1949 112.599C91.3843 112.954 91.5503 113.011 92.1507 112.927C93.0645 112.799 100.819 110.177 103.984 108.927C106.964 107.749 111.814 105.371 113.902 104.064C115.381 103.138 115.51 103.094 115.807 103.406C116.111 103.725 116.858 105.43 116.736 105.527C116.293 105.878 111.054 108.818 108.15 110.345C102.662 113.231 95.5301 116.562 93.6706 117.109C92.2973 117.512 91.7863 117.879 91.7863 118.461C91.7863 119.549 93.0077 119.338 97.2255 117.523C103.239 114.934 111.048 110.904 115.781 107.949C116.596 107.439 117.325 107.023 117.4 107.023C117.561 107.023 118.959 109.484 118.959 109.769C118.959 110.061 115.989 112.436 113.827 113.872C109.634 116.656 102.199 120.669 99.125 121.805C98.0887 122.189 96.4633 122.656 95.5128 122.844C93.6228 123.218 92.9201 123.678 93.3023 124.29C94.1744 125.687 100.379 123.534 108.306 119.085C113.514 116.162 116.057 114.545 118.403 112.663C119.134 112.077 119.857 111.598 120.011 111.598C120.314 111.598 122.331 113.643 122.331 113.95C122.331 114.296 116.6 118.283 112.651 120.682C109.97 122.312 103.757 125.414 101.133 126.433C100.03 126.862 99.1268 127.304 99.1262 127.417C99.1256 127.529 99.271 127.83 99.4495 128.086C99.7169 128.469 99.9001 128.533 100.491 128.45C101.756 128.272 108.713 124.964 112.711 122.638C114.717 121.472 119.316 118.389 121.379 116.827L123.501 115.221L124.26 115.78C124.677 116.088 125.308 116.745 125.664 117.241L126.309 118.144L124.972 119.25C122.176 121.563 118.372 124.073 112.269 127.631C110.717 128.536 109.047 129.552 108.558 129.89C107.178 130.842 105.804 131.474 104.646 131.691C102.654 132.062 102.091 132.51 102.398 133.478C102.599 134.113 103.704 133.979 105.701 133.077C107.524 132.254 109.119 131.356 113.902 128.461C115.429 127.536 117.66 126.21 118.86 125.514C122.093 123.638 124.344 122.086 125.771 120.747C126.471 120.091 127.126 119.554 127.229 119.554C127.331 119.554 127.745 120.114 128.148 120.797L128.881 122.04L128.333 122.193C128.02 122.281 127.461 122.77 127.027 123.338C125.247 125.663 117.956 130.591 111.649 133.73C107.391 135.85 106.816 136.304 107.511 137.001C107.975 137.466 108.888 137.149 112.402 135.307C115.047 133.921 116.803 132.851 123.302 128.667C125.463 127.276 127.965 125.089 128.822 123.843L129.224 123.258L129.578 123.942C130.356 125.449 130.323 125.826 129.275 127.382C127.796 129.577 126.723 130.369 121.805 132.897C118.333 134.682 117.056 135.469 115.79 136.606C115.012 137.304 114.935 137.445 115.169 137.729C115.651 138.311 116.431 138.096 118.275 136.876C119.254 136.228 121.348 135.007 122.928 134.162C125.585 132.741 127.237 131.713 128.48 130.706C128.752 130.485 129.042 130.302 129.124 130.3C129.635 130.285 128.723 133.039 127.684 134.652C127.264 135.303 125.732 137.122 124.279 138.694C122.826 140.266 120.481 142.936 119.068 144.626C115.674 148.687 112.516 152.239 111.199 153.476C110.613 154.027 109.017 155.35 107.654 156.415C106.29 157.48 104.282 159.119 103.191 160.058C101.08 161.874 98.8783 163.411 97.2148 164.23C94.9664 165.337 91.9161 165.236 88.2277 163.933C83.2384 162.171 79.6999 159.331 73.5783 152.176C68.9456 146.762 67.3105 143.945 65.9794 139.087C65.5391 137.479 64.8175 135.224 64.3762 134.075C63.9347 132.926 63.3537 131.404 63.0848 130.693C62.1561 128.237 62.2896 125.098 63.3831 123.677C64.5535 122.157 69.0868 117.201 70.2868 116.131C72.0703 114.54 73.0713 113.886 75.389 112.798C76.4987 112.277 78.1205 111.333 78.9933 110.701C81.1389 109.145 82.6433 108.478 87.4228 106.963C89.6591 106.255 93.3104 105.036 95.5366 104.256C99.9563 102.706 101.479 102.289 107.193 101.06C109.285 100.61 111.472 100.078 112.052 99.8768C113.427 99.4016 113.874 99.3882 114.239 99.8121ZM136.255 107.858C135.614 108.5 136.245 109.872 138.2 112.09C139.565 113.637 139.785 114.214 139.785 116.235C139.785 117.597 139.851 117.962 140.148 118.23C140.348 118.411 140.62 118.56 140.753 118.56C141.086 118.56 141.759 117.01 141.764 116.23C141.771 115.221 141.017 113.462 139.872 111.818C139.292 110.986 138.409 109.7 137.909 108.962C136.997 107.615 136.697 107.415 136.255 107.858ZM128.133 108.348C127.411 108.64 128.46 109.747 130.481 110.828C133.259 112.312 134.817 114.459 135.228 117.366C135.344 118.187 135.576 119.238 135.743 119.701C136.047 120.542 136.822 121.344 137.329 121.344C137.763 121.344 137.855 120.465 137.508 119.632C137.331 119.206 136.976 117.865 136.719 116.652C136.023 113.354 135.236 111.998 133.03 110.296C131.073 108.786 129.044 107.979 128.133 108.348ZM67.1954 121.68C66.1268 123.96 65.7805 128.729 66.4687 131.688C66.931 133.676 68.5616 137.016 70.4982 139.943C71.367 141.256 72.4111 142.966 72.8186 143.745C73.6063 145.249 74.3243 145.832 74.8503 145.394C75.0016 145.269 75.1256 144.965 75.1256 144.72C75.1256 144.474 74.049 142.583 72.7332 140.517C70.0871 136.362 68.7798 133.84 68.2595 131.887C67.8176 130.228 67.817 126.572 68.2582 123.783C68.7013 120.98 68.6896 120.748 68.1062 120.748C67.7361 120.748 67.5366 120.952 67.1954 121.68ZM52.625 126.362C52.4552 126.605 52.3162 127.195 52.3162 127.673C52.3162 129.807 53.7417 135.18 55.8911 141.149C58.996 149.771 61.4354 154.871 65.067 160.331C65.831 161.48 66.6399 162.702 66.8644 163.048C67.3545 163.8 68.2828 164.39 68.7153 164.224C68.9557 164.131 69.0033 163.917 68.9206 163.299C68.8413 162.706 68.4503 162.017 67.4277 160.668C65.4401 158.045 64.4061 156.366 62.531 152.715C60.3586 148.485 58.6861 144.276 56.4905 137.515C54.5237 131.458 54.11 129.808 54.1046 128.003C54.1011 126.766 53.7371 125.919 53.2087 125.919C53.0574 125.919 52.7948 126.118 52.625 126.362ZM137.238 130.496C139.13 130.717 141.146 131.033 141.719 131.199L142.76 131.5V132.719C142.76 133.508 142.477 135.019 141.956 137C141.342 139.339 141.113 140.66 140.984 142.599C140.816 145.151 140.978 150.309 141.361 154.563C141.758 158.977 141.516 163.661 140.884 163.777C140.78 163.797 140.591 163.32 140.466 162.718C140.34 162.117 139.998 160.729 139.706 159.635C139.414 158.541 139.129 157.064 139.071 156.353C138.897 154.196 138.869 154.132 138.142 154.203C137.505 154.265 137.504 154.266 137.445 155.52C137.408 156.298 137.537 157.395 137.785 158.404C138.004 159.3 138.401 161.107 138.666 162.42C138.931 163.733 139.208 164.954 139.281 165.133C139.372 165.357 139.233 165.587 138.831 165.874L138.249 166.29L138.132 165.57C138.068 165.174 137.825 164.645 137.591 164.396C136.968 163.73 136.794 161.846 136.643 154.122C136.528 148.23 136.472 147.375 136.181 147.083C135.755 146.656 135.274 146.846 135.008 147.546C134.807 148.076 134.724 154.434 134.914 154.742C134.963 154.823 135.097 156.986 135.211 159.549C135.424 164.355 135.586 165.41 136.252 166.349C136.701 166.984 136.734 166.961 134.782 167.365C133.532 167.623 133.442 167.618 133.334 167.278C133.271 167.079 133.054 166.863 132.851 166.799C132.649 166.734 132.413 166.528 132.328 166.341C132.242 166.154 132.148 161.391 132.119 155.756L132.066 145.512L131.628 145.155C131.228 144.829 131.162 144.825 130.876 145.113C130.599 145.391 130.562 146.546 130.562 155.117C130.562 164.329 130.651 166.17 131.179 167.94C131.272 168.251 131.114 168.288 129.679 168.288C128.116 168.288 128.078 168.277 128.186 167.84C128.246 167.594 128.159 166.945 127.992 166.398C127.825 165.851 127.631 164.679 127.561 163.792C127.422 162.033 127.747 155.811 128.196 151.61C128.658 147.285 128.526 145.366 127.756 145.254C126.863 145.123 126.588 146.924 126.193 155.491C125.9 161.839 125.959 164.822 126.429 167.464C126.544 168.112 126.531 168.129 125.976 168.021C125.662 167.96 123.918 167.669 122.099 167.375C120.281 167.08 118.674 166.765 118.529 166.675C118.109 166.413 118.202 157.787 118.649 155.54C119.074 153.408 119.016 152.497 118.453 152.416C117.582 152.291 117.085 153.462 116.783 156.353C116.555 158.543 116.54 163.729 116.758 165.264C116.84 165.844 116.841 166.359 116.761 166.409C116.637 166.485 114.937 166.189 113.257 165.798C112.681 165.664 112.671 164.937 113.208 162.164C113.864 158.776 113.694 156.898 112.763 157.256C112.104 157.509 111.682 159.185 111.426 162.569C111.327 163.879 111.198 164.999 111.139 165.058C111.08 165.117 110.466 165.012 109.775 164.825C108.533 164.488 107.031 163.717 106.067 162.922L105.571 162.514L106.765 161.373C107.421 160.745 108.938 159.479 110.136 158.56C112.823 156.498 114.905 154.395 118.335 150.281C119.792 148.533 122.771 145.199 124.955 142.871C129.279 138.263 130.203 137.173 130.81 135.965C131.195 135.199 132.447 131.479 132.447 131.102C132.447 131.001 132.537 130.679 132.648 130.387C132.811 129.956 132.939 129.879 133.324 129.976C133.585 130.041 135.347 130.276 137.238 130.496ZM72.7518 132.376C72.3857 132.819 72.8171 133.917 74.0636 135.714C74.6511 136.561 75.7686 138.396 76.5469 139.792C78.6961 143.647 79.3737 144.645 80.701 145.915C81.3712 146.556 82.2058 147.489 82.5555 147.987C83.2332 148.954 83.925 149.183 84.311 148.569C84.6488 148.032 84.0988 147.066 82.466 145.327C80.6796 143.425 79.9505 142.368 77.5454 138.198C75.6208 134.861 73.6697 132.086 73.2481 132.086C73.1074 132.086 72.8841 132.217 72.7518 132.376ZM135.677 132.663C135.111 132.928 134.8 133.219 134.713 133.564C134.509 134.382 134.741 134.737 135.374 134.576C136.44 134.305 138.114 134.077 139.041 134.076C139.821 134.075 139.984 134.012 139.984 133.712C139.984 133.512 139.757 133.136 139.481 132.875C138.779 132.214 136.864 132.107 135.677 132.663ZM168.743 133.015C168.743 133.088 168.611 133.295 168.45 133.473C168.276 133.666 168 134.885 167.771 136.478C167.558 137.952 167.195 139.639 166.963 140.228C166.497 141.413 166.546 141.832 167.15 141.832C167.372 141.832 167.553 141.935 167.553 142.06C167.553 142.439 163.793 146.062 162.133 147.281C157.375 150.778 152.902 152.96 148.668 153.848C146.919 154.215 144.633 153.906 144.454 153.278C144.39 153.055 144.284 151.306 144.217 149.391C144.041 144.33 144.584 138.878 145.692 134.572L146.05 133.18L147.807 133.122L149.564 133.064L149.446 134.737C149.327 136.43 148.529 140.374 148.005 141.867C147.688 142.765 147.632 144.171 147.895 144.588C148.159 145.006 148.838 144.542 149.304 143.627C149.521 143.199 149.874 141.792 150.087 140.501C150.3 139.209 150.658 137.445 150.882 136.579C151.106 135.714 151.289 134.562 151.289 134.02V133.035L152.411 133.175C153.918 133.364 154.097 133.446 153.885 133.846C153.789 134.027 153.65 135.069 153.574 136.163C153.391 138.818 152.807 141.68 152.108 143.351C151.328 145.215 151.19 146.08 151.605 146.497C152.038 146.932 152.51 146.817 152.802 146.207C153.12 145.543 154.37 141.632 154.741 140.142C155.201 138.292 155.435 135.868 155.26 134.771C155.172 134.224 155.14 133.735 155.188 133.684C155.297 133.569 157.859 133.636 157.98 133.757C158.264 134.042 156.999 140.688 156.143 143.404C155.492 145.471 155.535 146.283 156.302 146.371C156.797 146.428 156.903 146.324 157.357 145.329C157.635 144.721 158.181 142.812 158.571 141.088C159.129 138.624 159.285 137.497 159.301 135.817L159.322 133.68L160.492 133.678L161.661 133.677L161.536 135.162C161.369 137.139 160.933 139.241 160.092 142.114L159.399 144.484L159.8 144.886C160.195 145.283 160.206 145.283 160.621 144.907C160.852 144.697 161.152 144.255 161.288 143.925C161.774 142.745 162.8 138.309 163.153 135.865L163.512 133.379H164.175H164.838L164.797 135.069C164.726 137.971 164.404 140.41 163.949 141.47C163.631 142.211 163.572 142.56 163.722 142.8C164.28 143.688 165.31 142.901 165.835 141.187C166.46 139.145 166.77 134.849 166.369 133.792C166.196 133.335 166.231 133.272 166.716 133.165C167.013 133.099 167.345 133.016 167.454 132.979C167.824 132.855 168.743 132.881 168.743 133.015ZM170.713 133.857C171.219 134.569 171.27 136.322 170.816 137.413C170.372 138.482 168.874 140.733 168.785 140.466C168.743 140.341 168.937 139.277 169.215 138.101C169.493 136.926 169.781 135.36 169.855 134.622C169.928 133.884 170.059 133.279 170.146 133.279C170.232 133.279 170.488 133.539 170.713 133.857ZM49.3664 135.138C48.893 135.71 49.8252 138.941 51.8148 143.623C55.4754 152.237 56.2664 153.568 57.7242 153.568C58.2936 153.568 58.3137 153.539 58.2044 152.864C58.1419 152.477 57.7871 151.739 57.416 151.223C55.779 148.95 53.4261 143.825 51.5057 138.352C50.9302 136.71 50.375 135.256 50.2724 135.119C50.0291 134.795 49.6439 134.803 49.3664 135.138ZM174.297 143.542C172.7 146.224 169.094 150.868 166.568 153.495C163.892 156.278 161.212 157.877 158.486 158.318C157.171 158.53 156.661 158.738 156.257 159.226C156.054 159.471 156.052 159.597 156.243 159.829C156.869 160.585 158.817 160.33 161.742 159.109C165.915 157.366 169.552 153.756 174.26 146.682C175.343 145.054 176.375 143.436 176.552 143.086C177.093 142.021 176.927 141.035 176.209 141.04C175.877 141.042 175.459 141.589 174.297 143.542ZM46.2596 142.166C45.5791 142.849 46.3439 145.031 47.3146 145.176C47.9629 145.273 48.2517 144.546 47.9568 143.558C47.479 141.959 46.922 141.502 46.2596 142.166ZM122.951 147.074C122.515 147.6 122.092 150.749 121.743 156.055C121.635 157.696 121.444 160.157 121.32 161.525C121.064 164.332 121.229 165.41 122.038 166.222C123.073 167.259 123.722 166.497 123.235 164.817C122.784 163.261 122.845 159.868 123.409 155.243C124.279 148.089 124.299 146.805 123.536 146.805C123.337 146.805 123.073 146.926 122.951 147.074ZM176.717 147.044C176.586 147.175 176.478 147.511 176.477 147.79C176.476 148.444 174.783 151.313 173.039 153.617C171.877 155.151 171.123 156.421 171.123 156.844C171.123 156.902 171.433 156.95 171.811 156.95C172.729 156.95 173.69 156.087 174.697 154.358C175.128 153.619 175.932 152.356 176.483 151.553C177.555 149.993 178.182 148.287 177.953 147.552C177.728 146.828 177.164 146.596 176.717 147.044ZM152.281 148.709C150.057 149.581 149.963 149.6 148.512 149.455C147.694 149.373 146.846 149.327 146.628 149.352C146.194 149.403 145.736 149.908 145.736 150.334C145.736 150.83 147.138 151.236 148.909 151.253C150.781 151.271 152.346 150.844 154.672 149.678C156.111 148.958 156.548 148.553 156.375 148.101C156.162 147.544 154.695 147.762 152.281 148.709ZM76.0292 148.578C75.7488 149.033 76.6615 149.967 77.1132 149.687C77.2199 149.621 77.3073 149.303 77.3073 148.982C77.3073 148.467 77.2373 148.397 76.724 148.397C76.4031 148.397 76.0905 148.478 76.0292 148.578ZM81.1633 153.654C80.7857 153.933 80.7853 153.951 81.149 154.634C81.5896 155.461 82.3919 156.132 84.5974 157.517C87.1289 159.107 87.5674 159.24 90.1996 159.22C91.4541 159.211 92.8566 159.097 93.3162 158.966C94.3091 158.684 94.8376 158.061 94.5467 157.516C94.3041 157.061 93.6369 157.047 91.8691 157.458C89.286 158.059 86.946 157.295 83.6952 154.79C82.6814 154.009 81.7837 153.369 81.7002 153.369C81.6167 153.369 81.3751 153.497 81.1633 153.654ZM109.172 171.966C108.449 172.69 108.849 173.282 110.232 173.534C110.614 173.604 111.814 174.197 112.898 174.853C115.883 176.658 117.541 177.166 122.034 177.651C126.521 178.136 136.413 177.027 136.413 176.04C136.413 175.967 136.226 175.738 135.996 175.529C135.454 175.037 134.044 175.042 131.257 175.546C129.674 175.833 128.245 175.922 125.306 175.92C119.884 175.916 118.375 175.587 114.061 173.468C110.48 171.709 109.674 171.462 109.172 171.966ZM120.157 180.114C119.76 180.593 120.006 181.096 120.844 181.516C121.549 181.87 122.111 181.92 125.923 181.977C129.73 182.033 130.247 182.003 130.543 181.705C130.957 181.291 130.872 180.994 130.249 180.667C129.906 180.488 128.806 180.429 126.397 180.461C123.673 180.498 122.818 180.441 121.948 180.166C120.637 179.751 120.462 179.746 120.157 180.114Z" fill="#D4B7AA"/>
<path d="M42.683 226.84H39.763V233H37.803V219H39.763V225.08H42.723L47.123 219H49.263L44.263 225.78L49.503 233H47.223L42.683 226.84ZM55.6363 233.12C54.583 233.12 53.6363 232.887 52.7963 232.42C51.9563 231.953 51.2963 231.313 50.8163 230.5C50.3497 229.673 50.1163 228.74 50.1163 227.7C50.1163 226.66 50.3497 225.733 50.8163 224.92C51.2963 224.093 51.9563 223.453 52.7963 223C53.6363 222.533 54.583 222.3 55.6363 222.3C56.6897 222.3 57.6297 222.533 58.4563 223C59.2963 223.453 59.9497 224.093 60.4163 224.92C60.8963 225.733 61.1363 226.66 61.1363 227.7C61.1363 228.74 60.8963 229.673 60.4163 230.5C59.9497 231.313 59.2963 231.953 58.4563 232.42C57.6297 232.887 56.6897 233.12 55.6363 233.12ZM55.6363 231.44C56.3163 231.44 56.923 231.287 57.4563 230.98C58.003 230.66 58.4297 230.22 58.7363 229.66C59.043 229.087 59.1963 228.433 59.1963 227.7C59.1963 226.967 59.043 226.32 58.7363 225.76C58.4297 225.187 58.003 224.747 57.4563 224.44C56.923 224.133 56.3163 223.98 55.6363 223.98C54.9563 223.98 54.343 224.133 53.7963 224.44C53.263 224.747 52.8363 225.187 52.5163 225.76C52.2097 226.32 52.0563 226.967 52.0563 227.7C52.0563 228.433 52.2097 229.087 52.5163 229.66C52.8363 230.22 53.263 230.66 53.7963 230.98C54.343 231.287 54.9563 231.44 55.6363 231.44ZM63.9088 222.4H65.8288V226.9H71.8688V222.4H73.7888V233H71.8688V228.56H65.8288V233H63.9088V222.4ZM88.3021 231.32V235.46H86.5021V233H77.6421V235.46H75.8221V231.32H76.3821C77.0621 231.28 77.5288 230.8 77.7821 229.88C78.0354 228.96 78.2088 227.66 78.3021 225.98L78.4621 222.4H86.6821V231.32H88.3021ZM80.0621 226.12C80.0088 227.453 79.8954 228.56 79.7221 229.44C79.5621 230.307 79.2621 230.933 78.8221 231.32H84.7621V224.08H80.1621L80.0621 226.12ZM90.8034 222.4H92.7234V230.12L99.2234 222.4H100.963V233H99.0434V225.28L92.5634 233H90.8034V222.4ZM112.59 224.08H108.71V233H106.79V224.08H102.91V222.4H112.59V224.08ZM123.665 227.76C123.665 227.907 123.651 228.1 123.625 228.34H115.025C115.145 229.273 115.551 230.027 116.245 230.6C116.951 231.16 117.825 231.44 118.865 231.44C120.131 231.44 121.151 231.013 121.925 230.16L122.985 231.4C122.505 231.96 121.905 232.387 121.185 232.68C120.478 232.973 119.685 233.12 118.805 233.12C117.685 233.12 116.691 232.893 115.825 232.44C114.958 231.973 114.285 231.327 113.805 230.5C113.338 229.673 113.105 228.74 113.105 227.7C113.105 226.673 113.331 225.747 113.785 224.92C114.251 224.093 114.885 223.453 115.685 223C116.498 222.533 117.411 222.3 118.425 222.3C119.438 222.3 120.338 222.533 121.125 223C121.925 223.453 122.545 224.093 122.985 224.92C123.438 225.747 123.665 226.693 123.665 227.76ZM118.425 223.92C117.505 223.92 116.731 224.2 116.105 224.76C115.491 225.32 115.131 226.053 115.025 226.96H121.825C121.718 226.067 121.351 225.34 120.725 224.78C120.111 224.207 119.345 223.92 118.425 223.92ZM132.263 222.3C133.29 222.3 134.21 222.527 135.023 222.98C135.837 223.433 136.47 224.067 136.923 224.88C137.39 225.693 137.623 226.633 137.623 227.7C137.623 228.767 137.39 229.713 136.923 230.54C136.47 231.353 135.837 231.987 135.023 232.44C134.21 232.893 133.29 233.12 132.263 233.12C131.503 233.12 130.803 232.973 130.163 232.68C129.537 232.387 129.003 231.96 128.563 231.4V236.88H126.643V222.4H128.483V224.08C128.91 223.493 129.45 223.053 130.103 222.76C130.757 222.453 131.477 222.3 132.263 222.3ZM132.103 231.44C132.783 231.44 133.39 231.287 133.923 230.98C134.47 230.66 134.897 230.22 135.203 229.66C135.523 229.087 135.683 228.433 135.683 227.7C135.683 226.967 135.523 226.32 135.203 225.76C134.897 225.187 134.47 224.747 133.923 224.44C133.39 224.133 132.783 223.98 132.103 223.98C131.437 223.98 130.83 224.14 130.283 224.46C129.75 224.767 129.323 225.2 129.003 225.76C128.697 226.32 128.543 226.967 128.543 227.7C128.543 228.433 128.697 229.087 129.003 229.66C129.31 230.22 129.737 230.66 130.283 230.98C130.83 231.287 131.437 231.44 132.103 231.44ZM145.033 233.12C143.953 233.12 142.986 232.887 142.133 232.42C141.293 231.953 140.633 231.313 140.153 230.5C139.673 229.673 139.433 228.74 139.433 227.7C139.433 226.66 139.673 225.733 140.153 224.92C140.633 224.093 141.293 223.453 142.133 223C142.986 222.533 143.953 222.3 145.033 222.3C145.993 222.3 146.846 222.493 147.593 222.88C148.353 223.267 148.939 223.827 149.353 224.56L147.893 225.5C147.559 224.993 147.146 224.613 146.653 224.36C146.159 224.107 145.613 223.98 145.013 223.98C144.319 223.98 143.693 224.133 143.133 224.44C142.586 224.747 142.153 225.187 141.833 225.76C141.526 226.32 141.373 226.967 141.373 227.7C141.373 228.447 141.526 229.107 141.833 229.68C142.153 230.24 142.586 230.673 143.133 230.98C143.693 231.287 144.319 231.44 145.013 231.44C145.613 231.44 146.159 231.313 146.653 231.06C147.146 230.807 147.559 230.427 147.893 229.92L149.353 230.84C148.939 231.573 148.353 232.14 147.593 232.54C146.846 232.927 145.993 233.12 145.033 233.12ZM155.959 228.52H153.759V233H151.839V222.4H153.759V226.88H155.999L159.439 222.4H161.499L157.479 227.5L161.779 233H159.519L155.959 228.52ZM163.792 222.4H165.712V230.12L172.212 222.4H173.952V233H172.032V225.28L165.552 233H163.792V222.4ZM187.258 227.76C187.258 227.907 187.245 228.1 187.218 228.34H178.618C178.738 229.273 179.145 230.027 179.838 230.6C180.545 231.16 181.418 231.44 182.458 231.44C183.725 231.44 184.745 231.013 185.518 230.16L186.578 231.4C186.098 231.96 185.498 232.387 184.778 232.68C184.072 232.973 183.278 233.12 182.398 233.12C181.278 233.12 180.285 232.893 179.418 232.44C178.552 231.973 177.878 231.327 177.398 230.5C176.932 229.673 176.698 228.74 176.698 227.7C176.698 226.673 176.925 225.747 177.378 224.92C177.845 224.093 178.478 223.453 179.278 223C180.092 222.533 181.005 222.3 182.018 222.3C183.032 222.3 183.932 222.533 184.718 223C185.518 223.453 186.138 224.093 186.578 224.92C187.032 225.747 187.258 226.693 187.258 227.76ZM182.018 223.92C181.098 223.92 180.325 224.2 179.698 224.76C179.085 225.32 178.725 226.053 178.618 226.96H185.418C185.312 226.067 184.945 225.34 184.318 224.78C183.705 224.207 182.938 223.92 182.018 223.92ZM69.2604 246.4H71.1804V254.12L77.6804 246.4H79.4204V257H77.5004V249.28L71.0204 257H69.2604V246.4ZM88.7113 251.48C89.418 251.667 89.9647 251.967 90.3513 252.38C90.738 252.793 90.9313 253.307 90.9313 253.92C90.9313 254.547 90.718 255.107 90.2913 255.6C89.8647 256.08 89.2713 256.46 88.5113 256.74C87.7647 257.007 86.9247 257.14 85.9913 257.14C85.2047 257.14 84.4313 257.04 83.6713 256.84C82.9247 256.627 82.258 256.327 81.6713 255.94L82.2513 254.48C82.758 254.8 83.338 255.053 83.9913 255.24C84.6447 255.413 85.3047 255.5 85.9713 255.5C86.878 255.5 87.598 255.347 88.1313 255.04C88.678 254.72 88.9513 254.293 88.9513 253.76C88.9513 253.267 88.7313 252.887 88.2913 252.62C87.8647 252.353 87.258 252.22 86.4713 252.22H84.5313V250.84H86.3313C87.0513 250.84 87.618 250.713 88.0313 250.46C88.4447 250.207 88.6513 249.86 88.6513 249.42C88.6513 248.94 88.4047 248.567 87.9113 248.3C87.4313 248.033 86.778 247.9 85.9513 247.9C84.898 247.9 83.7847 248.173 82.6113 248.72L82.0913 247.24C83.3847 246.587 84.738 246.26 86.1513 246.26C87.0047 246.26 87.7713 246.38 88.4513 246.62C89.1313 246.86 89.6647 247.2 90.0513 247.64C90.438 248.08 90.6313 248.58 90.6313 249.14C90.6313 249.66 90.458 250.127 90.1113 250.54C89.7647 250.953 89.298 251.267 88.7113 251.48ZM104.63 255.32V259.46H102.83V257H93.9702V259.46H92.1502V255.32H92.7102C93.3902 255.28 93.8569 254.8 94.1102 253.88C94.3636 252.96 94.5369 251.66 94.6302 249.98L94.7902 246.4H103.01V255.32H104.63ZM96.3902 250.12C96.3369 251.453 96.2236 252.56 96.0502 253.44C95.8902 254.307 95.5902 254.933 95.1502 255.32H101.09V248.08H96.4902L96.3902 250.12ZM116.711 251.76C116.711 251.907 116.698 252.1 116.671 252.34H108.071C108.191 253.273 108.598 254.027 109.291 254.6C109.998 255.16 110.871 255.44 111.911 255.44C113.178 255.44 114.198 255.013 114.971 254.16L116.031 255.4C115.551 255.96 114.951 256.387 114.231 256.68C113.525 256.973 112.731 257.12 111.851 257.12C110.731 257.12 109.738 256.893 108.871 256.44C108.005 255.973 107.331 255.327 106.851 254.5C106.385 253.673 106.151 252.74 106.151 251.7C106.151 250.673 106.378 249.747 106.831 248.92C107.298 248.093 107.931 247.453 108.731 247C109.545 246.533 110.458 246.3 111.471 246.3C112.485 246.3 113.385 246.533 114.171 247C114.971 247.453 115.591 248.093 116.031 248.92C116.485 249.747 116.711 250.693 116.711 251.76ZM111.471 247.92C110.551 247.92 109.778 248.2 109.151 248.76C108.538 249.32 108.178 250.053 108.071 250.96H114.871C114.765 250.067 114.398 249.34 113.771 248.78C113.158 248.207 112.391 247.92 111.471 247.92ZM128.614 246.4V257H126.694V248.08H122.134L122.014 250.44C121.948 251.867 121.821 253.06 121.634 254.02C121.448 254.967 121.141 255.727 120.714 256.3C120.288 256.873 119.694 257.16 118.934 257.16C118.588 257.16 118.194 257.1 117.754 256.98L117.874 255.36C118.048 255.4 118.208 255.42 118.354 255.42C118.888 255.42 119.288 255.187 119.554 254.72C119.821 254.253 119.994 253.7 120.074 253.06C120.154 252.42 120.228 251.507 120.294 250.32L120.474 246.4H128.614ZM132.327 246.4H134.247V254.12L140.747 246.4H142.487V257H140.567V249.28L134.087 257H132.327V246.4ZM154.714 246.4V257H152.994V253.64H149.914H149.694L147.374 257H145.314L147.894 253.38C147.094 253.14 146.48 252.747 146.054 252.2C145.627 251.64 145.414 250.947 145.414 250.12C145.414 248.907 145.827 247.987 146.654 247.36C147.48 246.72 148.62 246.4 150.074 246.4H154.714ZM147.374 250.18C147.374 250.887 147.594 251.413 148.034 251.76C148.487 252.093 149.16 252.26 150.054 252.26H152.994V248.08H150.134C148.294 248.08 147.374 248.78 147.374 250.18Z" fill="#D4B7AA"/>
</svg>
