<?xml version="1.0" standalone="no"?>
<!DOCTYPE svg PUBLIC "-//W3C//DTD SVG 20010904//EN"
 "http://www.w3.org/TR/2001/REC-SVG-20010904/DTD/svg10.dtd">
<svg version="1.0" xmlns="http://www.w3.org/2000/svg"
 width="1280.000000pt" height="1128.000000pt" viewBox="0 0 1280.000000 1128.000000"
 preserveAspectRatio="xMidYMid meet">
<metadata>
Created by potrace 1.15, written by Peter Selinger 2001-2017
</metadata>
<g transform="translate(0.000000,1128.000000) scale(0.100000,-0.100000)"
fill="#000000" stroke="none">
<path d="M3710 10063 c-939 -51 -1770 -551 -2258 -1359 -283 -470 -429 -1029
-409 -1569 24 -628 200 -1131 614 -1754 674 -1014 2043 -2300 3738 -3511 380
-271 972 -660 1005 -660 12 0 267 157 440 272 753 498 1638 1173 2325 1772
584 510 1193 1123 1568 1578 355 433 651 898 803 1265 221 531 279 1143 163
1708 -113 546 -390 1058 -788 1452 -423 420 -990 703 -1566 783 -605 83 -1246
-44 -1818 -361 -344 -190 -641 -422 -965 -753 l-163 -166 -142 146 c-697 720
-1439 1099 -2262 1154 -145 9 -168 10 -285 3z"/>
</g>
</svg>
