<svg width="32" height="33" viewBox="0 0 32 33" fill="none" xmlns="http://www.w3.org/2000/svg">
<g clip-path="url(#clip0_241_14576)">
<path d="M5.94 3.2C6.12777 2.98047 6.36087 2.80422 6.62327 2.68338C6.88566 2.56254 7.17112 2.49998 7.46 2.5H24.54C24.8289 2.49998 25.1143 2.56254 25.3767 2.68338C25.6391 2.80422 25.8722 2.98047 26.06 3.2L31.278 9.288C31.7439 9.83166 32 10.524 32 11.24V11.75C32.0001 12.74 31.6909 13.7052 31.1156 14.5108C30.5404 15.3165 29.7277 15.9223 28.7914 16.2435C27.855 16.5647 26.8416 16.5854 25.8929 16.3025C24.9442 16.0197 24.1076 15.4475 23.5 14.666C23.0563 15.2375 22.4877 15.7 21.8377 16.0178C21.1877 16.3357 20.4736 16.5007 19.75 16.5C19.0264 16.5008 18.3122 16.3359 17.6622 16.018C17.0122 15.7001 16.4436 15.2376 16 14.666C15.5564 15.2376 14.9878 15.7001 14.3378 16.018C13.6878 16.3359 12.9736 16.5008 12.25 16.5C11.5264 16.5008 10.8122 16.3359 10.1622 16.018C9.51222 15.7001 8.94362 15.2376 8.5 14.666C7.89238 15.4475 7.05576 16.0197 6.10707 16.3025C5.15838 16.5854 4.14503 16.5647 3.20865 16.2435C2.27227 15.9223 1.45965 15.3165 0.884365 14.5108C0.309084 13.7052 -0.000109197 12.74 2.89291e-08 11.75V11.24C2.52151e-05 10.524 0.256113 9.83166 0.722 9.288L5.942 3.198L5.94 3.2ZM9.5 11.75C9.5 12.4793 9.78973 13.1788 10.3055 13.6945C10.8212 14.2103 11.5207 14.5 12.25 14.5C12.9793 14.5 13.6788 14.2103 14.1945 13.6945C14.7103 13.1788 15 12.4793 15 11.75C15 11.4848 15.1054 11.2304 15.2929 11.0429C15.4804 10.8554 15.7348 10.75 16 10.75C16.2652 10.75 16.5196 10.8554 16.7071 11.0429C16.8946 11.2304 17 11.4848 17 11.75C17 12.4793 17.2897 13.1788 17.8055 13.6945C18.3212 14.2103 19.0207 14.5 19.75 14.5C20.4793 14.5 21.1788 14.2103 21.6945 13.6945C22.2103 13.1788 22.5 12.4793 22.5 11.75C22.5 11.4848 22.6054 11.2304 22.7929 11.0429C22.9804 10.8554 23.2348 10.75 23.5 10.75C23.7652 10.75 24.0196 10.8554 24.2071 11.0429C24.3946 11.2304 24.5 11.4848 24.5 11.75C24.5 12.4793 24.7897 13.1788 25.3055 13.6945C25.8212 14.2103 26.5207 14.5 27.25 14.5C27.9793 14.5 28.6788 14.2103 29.1945 13.6945C29.7103 13.1788 30 12.4793 30 11.75V11.24C30 11.0017 29.9149 10.7711 29.76 10.59L24.54 4.5H7.46L2.24 10.59C2.08509 10.7711 1.99998 11.0017 2 11.24V11.75C2 12.4793 2.28973 13.1788 2.80546 13.6945C3.32118 14.2103 4.02065 14.5 4.75 14.5C5.47935 14.5 6.17882 14.2103 6.69454 13.6945C7.21027 13.1788 7.5 12.4793 7.5 11.75C7.5 11.4848 7.60536 11.2304 7.79289 11.0429C7.98043 10.8554 8.23478 10.75 8.5 10.75C8.76522 10.75 9.01957 10.8554 9.20711 11.0429C9.39464 11.2304 9.5 11.4848 9.5 11.75ZM3 17.5C3.26522 17.5 3.51957 17.6054 3.70711 17.7929C3.89464 17.9804 4 18.2348 4 18.5V30.5H28V18.5C28 18.2348 28.1054 17.9804 28.2929 17.7929C28.4804 17.6054 28.7348 17.5 29 17.5C29.2652 17.5 29.5196 17.6054 29.7071 17.7929C29.8946 17.9804 30 18.2348 30 18.5V30.5H31C31.2652 30.5 31.5196 30.6054 31.7071 30.7929C31.8946 30.9804 32 31.2348 32 31.5C32 31.7652 31.8946 32.0196 31.7071 32.2071C31.5196 32.3946 31.2652 32.5 31 32.5H1C0.734784 32.5 0.48043 32.3946 0.292893 32.2071C0.105357 32.0196 2.89291e-08 31.7652 2.89291e-08 31.5C2.89291e-08 31.2348 0.105357 30.9804 0.292893 30.7929C0.48043 30.6054 0.734784 30.5 1 30.5H2V18.5C2 18.2348 2.10536 17.9804 2.29289 17.7929C2.48043 17.6054 2.73478 17.5 3 17.5ZM7 18.5C7.26522 18.5 7.51957 18.6054 7.70711 18.7929C7.89464 18.9804 8 19.2348 8 19.5V26.5H24V19.5C24 19.2348 24.1054 18.9804 24.2929 18.7929C24.4804 18.6054 24.7348 18.5 25 18.5C25.2652 18.5 25.5196 18.6054 25.7071 18.7929C25.8946 18.9804 26 19.2348 26 19.5V26.5C26 27.0304 25.7893 27.5391 25.4142 27.9142C25.0391 28.2893 24.5304 28.5 24 28.5H8C7.46957 28.5 6.96086 28.2893 6.58579 27.9142C6.21071 27.5391 6 27.0304 6 26.5V19.5C6 19.2348 6.10536 18.9804 6.29289 18.7929C6.48043 18.6054 6.73478 18.5 7 18.5Z" fill="#FED7AA"/>
</g>
<defs>
<clipPath id="clip0_241_14576">
<rect width="32" height="32" fill="white" transform="translate(0 0.5)"/>
</clipPath>
</defs>
</svg>
