<svg width="73" height="18" viewBox="0 0 73 18" fill="none" xmlns="http://www.w3.org/2000/svg">
<path d="M16.192 17L16.168 4.76L10.096 14.96H8.992L2.92 4.832V17H0.616V0.199999H2.584L9.592 12.008L16.504 0.199999H18.472L18.496 17H16.192ZM34.8374 10.712C34.8374 10.888 34.8214 11.12 34.7894 11.408H24.4694C24.6134 12.528 25.1014 13.432 25.9334 14.12C26.7814 14.792 27.8294 15.128 29.0774 15.128C30.5974 15.128 31.8214 14.616 32.7494 13.592L34.0214 15.08C33.4454 15.752 32.7254 16.264 31.8614 16.616C31.0134 16.968 30.0614 17.144 29.0054 17.144C27.6614 17.144 26.4694 16.872 25.4294 16.328C24.3894 15.768 23.5814 14.992 23.0054 14C22.4454 13.008 22.1654 11.888 22.1654 10.64C22.1654 9.408 22.4374 8.296 22.9814 7.304C23.5414 6.312 24.3014 5.544 25.2614 5C26.2374 4.44 27.3334 4.16 28.5494 4.16C29.7654 4.16 30.8454 4.44 31.7894 5C32.7494 5.544 33.4934 6.312 34.0214 7.304C34.5654 8.296 34.8374 9.432 34.8374 10.712ZM28.5494 6.104C27.4454 6.104 26.5174 6.44 25.7654 7.112C25.0294 7.784 24.5974 8.664 24.4694 9.752H32.6294C32.5014 8.68 32.0614 7.808 31.3094 7.136C30.5734 6.448 29.6534 6.104 28.5494 6.104ZM38.4117 4.28H40.7157V9.68H47.9637V4.28H50.2677V17H47.9637V11.672H40.7157V17H38.4117V4.28ZM66.0036 4.16C67.2356 4.16 68.3396 4.44 69.3156 5C70.2916 5.544 71.0596 6.312 71.6196 7.304C72.1796 8.28 72.4596 9.392 72.4596 10.64C72.4596 11.888 72.1796 13.008 71.6196 14C71.0596 14.976 70.2916 15.744 69.3156 16.304C68.3396 16.864 67.2356 17.144 66.0036 17.144C64.8836 17.144 63.8676 16.912 62.9556 16.448C62.0436 15.984 61.2916 15.336 60.6996 14.504C60.1236 13.656 59.7636 12.696 59.6196 11.624H57.0516V17H54.7476V4.28H57.0516V9.488H59.6436C59.8036 8.432 60.1716 7.504 60.7476 6.704C61.3396 5.888 62.0836 5.264 62.9796 4.832C63.8916 4.384 64.8996 4.16 66.0036 4.16ZM66.0036 15.128C66.7876 15.128 67.4916 14.944 68.1156 14.576C68.7556 14.208 69.2596 13.688 69.6276 13.016C69.9956 12.328 70.1796 11.536 70.1796 10.64C70.1796 9.76 69.9956 8.984 69.6276 8.312C69.2596 7.624 68.7556 7.096 68.1156 6.728C67.4916 6.36 66.7876 6.176 66.0036 6.176C65.2196 6.176 64.5076 6.36 63.8676 6.728C63.2276 7.096 62.7236 7.624 62.3556 8.312C62.0036 8.984 61.8276 9.76 61.8276 10.64C61.8276 11.536 62.0036 12.328 62.3556 13.016C62.7236 13.688 63.2276 14.208 63.8676 14.576C64.5076 14.944 65.2196 15.128 66.0036 15.128Z" fill="#FED7AA"/>
</svg>
