<svg width="224" height="320" viewBox="0 0 224 320" fill="none" xmlns="http://www.w3.org/2000/svg">
<rect width="224" height="320" rx="32" fill="#54372A"/>
<g clip-path="url(#clip0_24_196611)">
<path fill-rule="evenodd" clip-rule="evenodd" d="M103.597 40.054C99.3916 40.4648 97.1276 40.8684 96.3398 41.3474C95.7423 41.7107 95.611 41.937 95.7309 42.3975C95.857 42.882 96.5497 42.9374 97.6217 42.5489C99.1165 42.007 101.185 41.7856 104.917 41.7683C108.02 41.7541 108.341 41.7241 108.763 41.4098C109.397 40.9385 109.376 40.7735 108.634 40.4123C107.988 40.0977 105.188 39.8985 103.597 40.054ZM82.9494 44.3006C81.0641 44.9094 79.1085 46.0681 76.5852 48.0713C76.1121 48.4469 74.4023 50.0721 72.7856 51.6829C71.1689 53.2934 69.2899 55.101 68.6103 55.6997C67.2875 56.8649 66.2671 58.1439 64.3042 61.0973C62.464 63.8659 61.9676 64.9851 60.8486 68.8876C60.2881 70.8426 59.7104 72.7759 59.565 73.1838C58.9054 75.0341 58.2509 81.0142 58.586 82.1288C58.7553 82.6923 58.8692 82.8148 59.2242 82.8148C59.8884 82.8148 60.1541 81.9748 60.1579 79.8627C60.1634 76.7785 60.9577 72.6504 62.427 68.0701C63.8462 63.6457 66.4531 59.8937 71.7853 54.6014C77.2435 49.184 80.566 46.7005 83.4883 45.8539C85.0348 45.4059 85.7637 44.5122 84.9408 44.0733C84.4913 43.8336 84.343 43.8505 82.9494 44.3006ZM73.8189 44.387C72.7835 44.738 71.86 45.3545 69.1872 47.4794C63.445 52.0443 62.1577 53.4745 60.3514 57.2958C59.2372 59.653 58.1988 62.8595 57.4098 66.3776C56.8687 68.7909 56.7632 70.1265 57.0536 70.8879C57.2596 71.4276 57.4289 71.4374 57.998 70.9419C58.3875 70.6028 58.4601 70.3595 58.5998 68.9274C59.0139 64.6775 60.9611 58.5389 62.8196 55.6248C63.9625 53.8327 64.8986 52.9034 68.2804 50.2046C72.1401 47.1245 72.9186 46.5663 74.3354 45.8623C75.2488 45.4083 75.3809 45.2809 75.3809 44.8532C75.3809 44.1734 74.8854 44.0256 73.8189 44.387ZM154.356 44.4004C154.288 44.5103 154.403 44.8477 154.611 45.1506C155.014 45.7365 155.635 46.204 158.187 47.8441C159.705 48.82 159.812 48.9287 160.287 49.9845C160.715 50.9341 160.852 51.0967 161.229 51.0967C162.431 51.0967 162.1 49.0191 160.677 47.6356C159.917 46.8962 157.779 45.4668 156.307 44.7145C155.493 44.298 154.517 44.141 154.356 44.4004ZM101.274 44.9302C96.752 45.2825 91.8022 46.4007 87.8543 47.9614C81.5854 50.4397 76.8662 53.2869 73.5797 56.5736C68.4505 61.7035 65.0719 67.965 63.9995 74.328C63.7423 75.8544 63.6831 77.1129 63.6893 80.9288C63.6972 85.9218 63.8562 87.632 64.724 92.055C64.9542 93.2287 65.1236 94.2067 65.1004 94.2283C65.0772 94.2501 64.4399 94.6789 63.6845 95.1812C62.0702 96.2548 60.0068 98.275 58.8534 99.9112C58.013 101.103 56.8009 103.334 55.9663 105.225L55.4963 106.29L54.9319 105.653C54.6216 105.304 54.1918 104.727 53.9767 104.372C53.7618 104.017 53.2252 103.483 52.7843 103.185C51.5765 102.369 51.1192 101.975 49.0577 99.9778C44.6962 95.7523 42.0193 93.6473 40.3675 93.1439C38.7267 92.6439 37.2297 92.7748 36.4596 93.4857C35.7312 94.1583 35.4931 95.1569 35.5997 97.091C35.6975 98.8627 35.751 99.0981 36.5376 101.222C37.6978 104.355 42.1305 110.059 48.5468 116.676C49.4612 117.619 50.4835 118.795 50.8186 119.29L51.4279 120.189L51.2859 121.69C51.1068 123.584 51.1381 124.274 51.4695 125.735C52.0175 128.151 53.8647 132.07 55.6447 134.592C56.3348 135.57 57.7397 137.814 58.5824 139.285C59.9266 141.631 61.8493 144.186 63.5011 145.823C65.1889 147.495 65.6443 147.823 71.5959 151.655C75.359 154.077 81.5145 156.388 90.65 158.809L91.2952 158.98L91.2963 161.402C91.2975 164.435 91.4767 165.535 92.2262 167.108C94.8394 172.591 102.76 178.075 111.425 180.398C114.067 181.107 117.156 181.256 118.755 180.752C120.733 180.128 122.662 178.517 123.574 176.728C124.936 174.057 124.877 168.801 123.436 164.28C123.155 163.4 122.965 162.639 123.014 162.591C123.063 162.543 123.737 162.432 124.512 162.346C126.708 162.101 131.238 161.229 133.741 160.569C139.33 159.096 146.327 156.211 151.982 153.048C159.402 148.898 162.289 146.993 164.198 144.986C165.288 143.841 166.825 141.682 168.241 139.307C168.766 138.427 171.125 133.656 171.125 133.475C171.125 133.441 171.442 132.742 171.829 131.922C172.216 131.103 172.736 129.69 172.985 128.783C173.415 127.215 173.437 126.933 173.434 123.02C173.432 119.861 173.364 118.551 173.139 117.382C172.977 116.545 172.845 115.721 172.845 115.551C172.845 115.335 173.372 114.97 174.622 114.319C177.147 113.005 178.664 111.944 180.512 110.202C184.572 106.373 186.59 102.424 186.93 97.6451C187.329 92.0207 185.32 87.3429 181.19 84.2815C179.69 83.1697 176.146 81.1658 175.291 80.9458C172.399 80.2019 168.33 80.8133 164.452 82.5744C163.746 82.8952 163.081 83.1573 162.974 83.157C162.85 83.1566 162.771 82.6815 162.754 81.8282C162.735 80.9232 162.603 80.1726 162.339 79.4715C162.013 78.6062 161.931 77.9389 161.823 75.271C161.682 71.777 161.494 70.8258 160.327 67.7272C159.026 64.2701 158.09 62.7307 155.584 59.9263C152.38 56.3416 151.374 55.5681 148.046 54.1318C141.786 51.4301 138.662 50.4153 129.232 48.02C124.03 46.6988 118.637 45.7037 113.317 45.0838C111.361 44.8558 103.512 44.7556 101.274 44.9302ZM140.862 45.2345C140.408 46.0804 140.866 46.4675 142.322 46.4675C144.695 46.4675 149.404 47.8146 152.028 49.244C154.844 50.7781 157.167 52.8211 158.23 54.6981C159.446 56.8464 160.009 57.6045 160.598 57.8831C161.12 58.1297 161.214 58.1319 161.443 57.9039C161.658 57.6899 161.666 57.543 161.495 57.0249C161.381 56.6828 161.117 56.1927 160.907 55.9358C160.698 55.6788 160.149 54.8514 159.689 54.097C158.295 51.8114 155.8 49.59 152.678 47.8532C150.067 46.4007 145.634 45.1054 142.798 44.9665C141.165 44.8866 141.04 44.9039 140.862 45.2345ZM105.575 47.8623C98.3648 48.2592 95.5293 48.5879 92.9297 49.3282C81.6806 52.5315 74.0792 58.2658 69.6779 66.869C68.7542 68.6745 67.4423 72.0584 66.9191 73.9851C66.5757 75.2499 66.5453 78.9373 66.8598 81.186C67.4172 85.1724 69.5829 88.7061 73.9625 92.7756C76.5238 95.1557 77.8924 96.0086 80.5423 96.8767C82.4333 97.4961 83.6744 98.1032 85.5631 99.3325C87.4949 100.59 88.6507 100.988 90.3634 100.988C91.5301 100.988 92.1126 101.159 94.0738 102.078C95.4225 102.709 98.069 103.364 101.101 103.816C102.518 104.027 106.868 104.402 116.328 105.128C117.661 105.23 120.428 105.272 122.522 105.221C126.621 105.121 126.938 105.072 133.447 103.542C137.472 102.595 140.413 101.774 142.393 101.043C146.789 99.4217 150.551 96.674 152.937 93.3417C153.48 92.5832 155.125 89.8683 155.125 89.7305C155.125 89.6808 155.268 89.4351 155.444 89.1848C155.62 88.9345 155.959 88.3826 156.199 87.9582C156.438 87.5339 156.837 86.8294 157.087 86.3926C158.175 84.4854 158.416 83.3644 158.612 79.3C158.87 73.9623 158.836 72.5115 158.421 70.9527C157.712 68.2958 156.317 65.5351 154.746 63.6819C152.336 60.8372 150.177 58.5897 149.388 58.1041C147.441 56.9059 138.48 53.5174 133.791 52.2061C121.399 48.7415 113.025 47.4523 105.575 47.8623ZM58.5568 51.8253C57.2702 53.5153 56.8565 54.3984 56.7537 55.6744C56.6839 56.5417 56.7186 56.767 56.9353 56.8498C57.4827 57.0593 57.898 56.6014 58.2605 55.3886C58.5112 54.5497 58.8933 53.8345 59.5574 52.961C60.0753 52.2798 60.4989 51.5862 60.4989 51.4193C60.4989 51.1457 59.9063 50.5823 59.6185 50.5823C59.555 50.5823 59.0772 51.1416 58.5568 51.8253ZM120.974 51.436C120.908 51.6455 120.924 51.8877 121.011 51.9743C121.281 52.2432 123.407 52.781 125.329 53.0671C127.941 53.4556 128.772 53.6576 129.736 54.1392C130.202 54.3722 131.377 54.7055 132.347 54.8797C133.904 55.1595 137.192 56.2158 137.662 56.5872C137.999 56.8536 140.624 57.6104 142.977 58.1194C145.626 58.6926 146.317 59.0159 148.071 60.5025C151.331 63.2672 152.495 64.8081 154.165 68.5694C155.129 70.7398 155.469 71.9898 155.469 73.3609C155.469 74.2553 155.521 74.4299 155.844 74.602C156.163 74.7719 156.266 74.7457 156.523 74.4292C157.311 73.4591 157.009 71.2322 155.672 68.1605C153.996 64.3106 152.832 62.7717 149.017 59.3598C147.171 57.7089 146.345 57.324 143.763 56.9112C141.731 56.5861 140.87 56.3056 137.315 54.8089C136.746 54.5692 134.927 54.0218 133.272 53.5921C131.618 53.1625 129.064 52.4554 127.597 52.021C125.343 51.353 124.634 51.2172 123.013 51.1428C121.146 51.0572 121.093 51.065 120.974 51.436ZM103.425 52.2939C102.573 52.3741 101.179 52.4876 100.328 52.5464C98.3564 52.6824 94.9705 53.2345 92.7576 53.781C90.4322 54.3552 87.9785 55.0544 87.7683 55.2025C87.6736 55.2692 87.2091 55.4642 86.736 55.6358C84.2976 56.5199 82.4274 57.6966 80.4859 59.5683C77.0365 62.8932 75.3169 65.5507 73.7084 70.0418C72.6782 72.9182 72.3171 74.8088 72.3004 77.4141C72.2713 81.9481 73.1279 83.7834 77.8899 89.391C81.4972 93.6389 84.8053 95.9027 89.9188 97.6226C92.5044 98.4922 100.065 100.393 102.994 100.91C105.278 101.313 106.159 101.366 113.403 101.537C122.157 101.743 124.382 101.649 128.492 100.9C132.102 100.242 135.136 99.0599 137.662 97.3272C141.401 94.7622 143.879 92.1219 147.422 86.9295C150.913 81.8137 151.861 79.0334 151.629 74.5953C151.497 72.0598 151.307 71.1091 150.571 69.3111C148.86 65.1289 146.824 63.0995 140.747 59.5195C137.727 57.7403 136.421 57.3223 127.081 55.1448C125.614 54.8027 123.446 54.2954 122.264 54.0171C119.768 53.4299 116.977 52.9221 114.177 52.5454C111.846 52.2317 105.631 52.0863 103.425 52.2939ZM101.36 55.4757C92.7812 56.5043 87.056 59.0979 83.7761 63.441C82.1601 65.5809 81.4868 67.7121 81.3635 71.0801C81.2871 73.1637 81.3249 73.6863 81.642 74.9377C82.1305 76.8658 82.8937 78.3826 84.5703 80.7574C85.3359 81.8418 86.2912 83.2876 86.6933 83.9702C87.3406 85.0693 87.4832 85.212 87.9403 85.2159C88.6643 85.2221 88.8368 85.3766 88.9822 86.1491C89.1169 86.8649 90.1637 87.9685 92.4135 89.7675C94.63 91.5398 95.2144 92.0267 96.558 93.2197C97.3234 93.8993 98.4319 95.0655 99.0212 95.8111C100.034 97.0918 100.15 97.1827 101.141 97.457C102.834 97.9261 105.3 98.2417 108.194 98.3597C110.608 98.4581 110.91 98.4396 111.007 98.1883C111.194 97.702 110.282 96.4376 108.735 95.0411C107.92 94.3044 106.74 93.165 106.113 92.5088C103.631 89.9112 102.662 89.0097 100.865 87.6268C98.0161 85.4355 95.3681 82.7194 92.0777 78.6143C89.5944 75.516 88.9328 73.6335 89.099 70.1385C89.2403 67.1688 90.4543 64.2204 92.1527 62.7219C94.5571 60.6006 98.8214 59.1651 102.736 59.1591C106.163 59.1537 109.264 59.8829 112.367 61.4227C115 62.7298 116.396 64.1085 116.798 65.7984C116.915 66.2934 117.067 66.6985 117.135 66.6985C117.314 66.6985 117.616 65.5126 117.616 64.8126C117.616 63.1295 116.473 61.2381 113.946 58.7416C111.829 56.649 111.135 56.1616 109.79 55.8218C107.246 55.1787 104.705 55.0745 101.36 55.4757ZM112.903 55.5286C112.808 55.6824 113.361 56.2184 114.829 57.3928C115.601 58.0107 115.711 57.9648 116.063 56.876C116.377 55.9068 116.257 55.7877 114.837 55.655C114.143 55.5902 113.446 55.4993 113.289 55.453C113.131 55.4067 112.957 55.4408 112.903 55.5286ZM117.842 56.4011C117.795 56.5482 117.571 57.1517 117.343 57.7422C116.884 58.9345 116.828 59.4987 117.137 59.8063C117.448 60.1164 117.569 60.059 117.699 59.5405C117.764 59.2813 117.993 58.8376 118.208 58.5547C118.757 57.8332 119.167 57.0022 119.167 56.6103C119.167 56.1693 117.975 55.9811 117.842 56.4011ZM120.412 57.6546C120.22 58.1496 119.676 59.2463 119.204 60.0916L118.347 61.6283L118.705 62.3633C118.902 62.7674 119.117 63.0981 119.182 63.0981C119.247 63.0981 119.352 62.7508 119.416 62.3262C119.492 61.8201 119.792 61.1859 120.288 60.4832C121.794 58.3505 122.436 57.3846 122.436 57.2503C122.436 57.1193 121.352 56.7574 120.954 56.7555C120.849 56.755 120.605 57.1596 120.412 57.6546ZM123.893 57.7993C123.83 57.9966 123.554 58.4901 123.279 58.8957C122.299 60.3426 122.818 60.401 123.934 58.9694C124.728 57.951 124.81 57.7011 124.4 57.5444C124.02 57.3991 124.02 57.399 123.893 57.7993ZM125.877 58.3833C125.877 58.6531 126.355 58.7148 127.036 58.5329C127.619 58.3773 127.321 58.1261 126.555 58.1261C126.067 58.1261 125.877 58.1981 125.877 58.3833ZM127.135 59.916C125.212 60.3522 124.627 60.7098 123.809 61.9489C122.946 63.257 122.492 63.5751 121.923 63.2713C121.584 63.0907 121.47 63.1327 120.962 63.6238C120.406 64.1602 119.855 65.0866 119.855 65.4837C119.855 65.5884 120.168 65.4775 120.55 65.2371C121.522 64.6255 124.049 63.5379 125.462 63.1225C128.289 62.2918 129.988 62.0509 133.74 61.9492C137.241 61.8542 137.43 61.8659 138.434 62.24C139.425 62.6095 139.791 62.6232 139.58 62.2827C139.393 61.9804 136.257 60.5418 134.995 60.1794C133.314 59.6964 128.775 59.5443 127.135 59.916ZM83.4576 60.7359C82.8558 61.2075 81.8437 62.2817 81.8373 62.4552C81.8194 62.9498 82.9948 61.9923 84.0472 60.655C84.3783 60.2344 84.0378 60.281 83.4576 60.7359ZM99.7255 61.0183C98.8529 61.2945 98.7832 61.3546 98.8309 61.7925C98.8701 62.1533 98.6607 62.5424 97.9596 63.4115C96.9757 64.6312 95.648 66.6183 95.095 67.6984C94.7623 68.3484 94.7621 68.359 95.0914 68.6399C95.2745 68.7962 95.4243 69.0417 95.4243 69.1856C95.4243 69.3294 94.8888 70.5284 94.2341 71.8497C93.5795 73.1711 92.8882 74.7119 92.6977 75.2736L92.3516 76.2951L93.2428 77.4417C93.733 78.0725 94.2186 78.616 94.3222 78.6496C94.4258 78.6832 94.7506 78.2647 95.0441 77.7195C95.3376 77.1744 96.0836 75.8423 96.702 74.7594C97.6768 73.0521 97.7934 72.7579 97.5801 72.5453C97.3853 72.351 97.2818 72.3433 97.0824 72.5083C96.8293 72.7176 95.9756 74.0998 95.3371 75.3337C95.1486 75.6982 94.714 76.3139 94.3716 76.7021C93.8278 77.3183 93.7133 77.3783 93.4683 77.1756C93.3004 77.0368 93.1877 76.686 93.1877 76.3021C93.1877 75.7936 93.4267 75.3097 94.3411 73.9658C96.1963 71.2394 96.6287 70.2997 96.6287 68.9937C96.6287 67.6945 96.9313 66.9986 98.0408 65.7467C98.4544 65.28 99.5858 63.9533 100.555 62.7981L102.318 60.6978L101.495 60.7083C101.042 60.7141 100.246 60.8535 99.7255 61.0183ZM103.855 61.1865C103.855 61.57 103.633 61.8676 102.822 62.5699C101.837 63.4237 101.583 63.7839 101.965 63.7839C102.374 63.7839 103.316 62.9656 104.164 61.8724L105.076 60.6978H104.466C103.909 60.6978 103.855 60.741 103.855 61.1865ZM106.949 61.4764C106.857 61.7161 106.533 62.044 106.229 62.205C104.645 63.0434 104.315 64.0603 105.767 63.6267C106.412 63.4341 108.328 61.8863 108.328 61.5576C108.328 61.4261 107.549 61.0407 107.283 61.0407C107.191 61.0407 107.04 61.2369 106.949 61.4764ZM73.7033 61.7236C73.1703 62.1414 71.8947 64.1575 71.0868 65.859C69.3821 69.4489 68.59 73.1728 68.5869 77.6096C68.5844 81.0639 68.8653 82.4677 70.1433 85.3865C71.6348 88.7927 71.8744 89.2174 72.4097 89.4027C73.5546 89.7986 73.4115 88.6464 71.9107 85.3865C70.3917 82.0864 70.2135 81.2367 70.2389 77.4141C70.2601 74.2344 70.5593 71.8554 71.2253 69.5729C71.7634 67.7284 71.999 67.1867 72.8883 65.7489C73.9641 64.0095 74.3842 63.2603 74.6819 62.5502C74.921 61.9801 74.9207 61.8925 74.6784 61.6511C74.3319 61.3058 74.2261 61.3137 73.7033 61.7236ZM95.7882 62.3348C94.8475 62.7417 93.085 64.0706 92.4306 64.8663C92.0971 65.2717 91.5698 66.1393 91.2587 66.794C90.7001 67.9695 90.6931 68.0154 90.6931 70.4704C90.6931 72.1914 90.7657 73.1279 90.9289 73.5136C91.0588 73.8202 91.2187 74.0709 91.2842 74.0709C91.3898 74.0709 92.8436 71.4446 92.8436 71.2536C92.8436 71.2119 92.5885 71.219 92.2766 71.2695C91.8883 71.3323 91.6407 71.2786 91.4915 71.0996C91.2627 70.8248 91.4642 70.2755 92.1625 69.2703C93.8713 66.8107 96.6287 62.472 96.6287 62.2427C96.6287 62.0161 96.4898 62.0312 95.7882 62.3348ZM111.266 63.3705C110.975 63.6147 110.737 63.9619 110.737 64.1421C110.737 64.3223 110.766 64.4697 110.802 64.4697C110.837 64.4697 111.141 64.5841 111.477 64.7238L112.087 64.9779L112.539 64.171C112.964 63.4146 112.973 63.3507 112.691 63.1454C112.241 62.8171 111.853 62.8785 111.266 63.3705ZM108.785 63.4117C108.628 63.5842 108.5 63.7796 108.5 63.8463C108.5 64.0536 109.142 63.6365 109.248 63.3601C109.386 63.0019 109.131 63.0304 108.785 63.4117ZM130.728 63.6467C130.615 63.7599 130.522 63.9408 130.522 64.0488C130.522 64.1568 130.215 64.7176 129.841 65.2952C128.971 66.637 128.58 67.3921 128.696 67.5076C128.746 67.5578 129.397 67.5001 130.143 67.3795L131.499 67.1601L131.421 66.3563C131.358 65.7043 131.427 65.4206 131.786 64.8541C132.029 64.4699 132.309 64.1061 132.407 64.0454C132.506 63.9847 132.586 63.824 132.586 63.6881C132.586 63.3755 131.035 63.3411 130.728 63.6467ZM135.102 63.6183C134.829 63.6997 134.422 63.9386 134.197 64.1493C133.81 64.5114 132.586 66.5581 132.586 66.8431C132.586 66.9161 133.139 66.893 133.815 66.7916C134.994 66.6149 135.046 66.5874 135.097 66.1098C135.126 65.8361 135.425 65.2145 135.761 64.7282C136.097 64.2422 136.371 63.7537 136.371 63.6428C136.371 63.4124 135.827 63.4019 135.102 63.6183ZM137.31 65.1812C136.778 65.9375 136.369 66.5775 136.4 66.6036C136.432 66.6294 136.778 66.6997 137.17 66.7596C137.809 66.857 137.893 66.8285 137.982 66.4834C138.037 66.2716 138.354 65.6866 138.689 65.1834C139.023 64.6801 139.296 64.2441 139.296 64.2144C139.296 64.1846 139.067 64.0807 138.787 63.9833C138.286 63.8094 138.26 63.8307 137.31 65.1812ZM127.43 64.1306C127.101 64.2076 126.811 64.3351 126.784 64.414C126.758 64.4927 126.354 65.2042 125.887 65.9949C124.966 67.5551 124.579 68.3775 124.708 68.5056C124.815 68.6121 127.295 68.067 127.484 67.8956C127.564 67.8232 127.538 67.5942 127.426 67.3867C127.161 66.893 127.284 66.4691 128.021 65.3328C128.918 63.9514 128.843 63.7993 127.43 64.1306ZM113.871 64.684C113.681 64.9143 113.608 65.2369 113.641 65.707C113.664 66.0472 115.158 67.783 115.265 67.5952C115.305 67.5265 115.278 66.9869 115.206 66.3966C115.017 64.8536 114.392 64.0519 113.871 64.684ZM140.443 65.3744C139.9 65.885 139.468 66.618 139.468 67.0293C139.468 67.1669 140.791 67.7272 141.116 67.7272C141.211 67.7272 141.408 67.4764 141.554 67.17C141.7 66.8636 141.967 66.3635 142.149 66.0589C142.558 65.3727 142.347 64.923 141.581 64.8462C141.184 64.8066 140.914 64.9321 140.443 65.3744ZM104.371 65.085C101.35 65.6076 100.306 65.9728 99.332 66.8479C98.1793 67.8834 97.7234 69.367 98.1854 70.5779C98.3808 71.0902 99.6801 72.9206 101.432 75.1512C102.039 75.9242 104.237 78.2542 106.316 80.3287C110.343 84.3467 112.115 86.3344 113.271 88.1297C114.094 89.4071 115.116 91.5549 115.29 92.373C115.356 92.6796 115.471 92.9303 115.547 92.9303C115.622 92.9303 116.01 92.5093 116.408 91.9947C117.785 90.2159 120.349 87.991 122.472 86.7315C124.944 85.2655 128.769 83.8054 131.898 83.1335C132.935 82.9109 133.733 82.6316 134.08 82.37C134.408 82.123 134.862 81.9575 135.211 81.9575C136.891 81.9575 139.51 80.6001 141.288 78.808C144.261 75.8126 144.68 72.4831 142.352 70.3552C141.555 69.626 140.284 68.9586 138.932 68.5581C137.663 68.1821 133.371 68.2779 131.124 68.7324C128.19 69.3258 126.212 69.8535 126.216 70.0418C126.218 70.1361 126.931 70.3082 127.8 70.4241C131.73 70.9488 133.963 72.5496 133.963 74.8424C133.963 77.1653 131.792 78.9193 125.791 81.4452C124.844 81.8435 123.528 82.4007 122.866 82.6834C121.739 83.1645 119.805 84.1882 118.221 85.1429C117.139 85.7944 116.295 85.9751 115.811 85.6586C115.589 85.5141 115.356 85.2315 115.292 85.0309C115.097 84.4206 112.494 80.2408 111.723 79.3014C110.894 78.2912 110.119 77.6792 108.414 76.6885C107.751 76.3038 107.039 75.8071 106.831 75.5847C105.939 74.6337 105.656 72.8752 106.208 71.7162C106.837 70.3946 109.239 70.0682 112.962 70.7979C113.949 70.9915 114.785 71.1223 114.819 71.0885C114.853 71.0547 114.487 70.2057 114.006 69.2017C112.839 66.7675 112.082 66.1952 109.102 65.4951C107.713 65.1689 105.164 64.9479 104.371 65.085ZM123.21 65.6443C121.966 66.2325 120.844 67.3938 120.27 68.6874C119.766 69.8234 119.733 70.2158 120.156 70.037C120.322 69.9672 121.012 69.7166 121.69 69.4803C122.853 69.075 122.929 69.016 123.037 68.4432C123.1 68.1092 123.42 67.3034 123.749 66.6526C124.078 66.0019 124.324 65.399 124.295 65.3127C124.266 65.2265 123.778 65.3758 123.21 65.6443ZM84.5018 65.9406C83.9782 66.5034 83.5519 68.3307 83.5569 69.9898C83.5615 71.5898 83.9865 73.4833 85.0885 76.814C86.1856 80.1302 87.3722 82.5749 88.6817 84.217C90.8947 86.9923 94.22 89.0877 94.22 87.7071C94.22 87.155 93.4253 86.2696 91.9084 85.1321C90.067 83.7509 88.6326 81.8954 87.4624 79.3808C86.7387 77.8259 85.8611 74.9171 85.6256 73.2933C85.373 71.5511 85.408 68.6397 85.6997 67.1196C85.8396 66.3915 85.9124 65.729 85.8616 65.6472C85.6736 65.3439 84.902 65.5104 84.5018 65.9406ZM143.254 67.2124C142.786 68.2078 142.898 68.5492 143.415 67.7037C143.713 67.2177 143.903 66.3556 143.713 66.3556C143.682 66.3556 143.475 66.7412 143.254 67.2124ZM79.6501 68.1845C78.3933 70.1184 76.8352 73.3851 77.1697 73.3851C77.2519 73.3851 77.5251 72.9652 77.7772 72.452C78.029 71.9389 78.571 71.1468 78.9815 70.6918C79.5148 70.1008 79.8125 69.5636 80.0248 68.8094C80.4241 67.3915 80.2999 67.1846 79.6501 68.1845ZM144.833 68.0506C144.351 68.9056 144.36 69.445 144.888 71.2586C145.13 72.0908 145.318 73.179 145.318 73.7472C145.318 74.3023 145.372 74.7566 145.437 74.7566C145.503 74.7566 145.769 74.5542 146.028 74.3066C146.53 73.8274 147.252 73.8276 147.437 74.3071C147.488 74.4398 146.731 75.712 145.74 77.1607C144.756 78.5985 143.606 80.4781 143.184 81.3377C142.38 82.974 141.807 84.5164 141.949 84.6583C141.995 84.7041 142.278 84.5975 142.577 84.4212C142.98 84.1836 143.234 83.8122 143.557 82.9862C143.796 82.3733 144.577 80.9845 145.292 79.9001C147.284 76.8782 147.899 75.4006 147.899 73.6338C147.899 73.0632 147.689 72.8584 147.468 73.2136C147.308 73.4725 146.753 73.4193 146.448 73.1157C146.296 72.9638 146.178 72.5575 146.178 72.1846C146.178 71.6291 146.116 71.5142 145.791 71.4683C145.192 71.3834 145.202 70.5467 145.817 69.1945C146.332 68.0638 146.333 68.0528 145.999 67.7199C145.508 67.2311 145.255 67.3029 144.833 68.0506ZM117.569 69.2524C116.934 69.9526 116.638 70.8533 116.838 71.4792L116.95 71.8321L117.54 71.4513C117.989 71.1614 118.131 70.9508 118.132 70.5683C118.133 70.2921 118.227 69.81 118.341 69.4969C118.68 68.563 118.302 68.4435 117.569 69.2524ZM137.002 70.0704C136.752 70.3194 136.915 70.8617 137.49 71.6939C137.996 72.4277 138.092 72.714 138.092 73.4955C138.092 74.7759 137.78 75.4109 136.465 76.8056C135.233 78.1136 134.834 78.8306 135.203 79.0761C135.812 79.4811 137.321 78.6278 138.334 77.3059C139.212 76.1598 139.542 75.0899 139.542 73.3928C139.541 71.1691 138.824 69.9561 137.51 69.9561C137.294 69.9561 137.065 70.0075 137.002 70.0704ZM173.317 71.7841C172.605 72.0783 172.265 72.779 172.693 73.0689C172.962 73.2506 177.235 73.1829 177.424 72.994C177.659 72.7598 177.174 72.0654 176.577 71.7834C175.821 71.4257 174.183 71.4261 173.317 71.7841ZM122.767 71.9154C121.331 72.2295 121.285 72.2619 120.736 73.3343C120.183 74.4138 118.76 76.4156 116.045 79.9303C115.406 80.7574 115.14 81.3586 115.268 81.6894C115.434 82.1209 115.868 81.999 116.158 81.4391C116.662 80.4688 118.989 77.0434 119.999 75.7853C120.881 74.6872 122.638 72.8673 123.006 72.6706C123.417 72.4512 123.812 72.7757 123.812 73.3331C123.812 73.6066 123.489 74.0933 122.886 74.7265C122.377 75.2617 121.493 76.394 120.922 77.2427C120.351 78.0913 119.411 79.3643 118.833 80.0716C117.818 81.3154 116.432 83.7473 116.628 83.9424C116.741 84.0547 117.764 83.5556 120.715 81.9496C121.898 81.306 123.35 80.6394 123.941 80.4683C125.051 80.147 125.146 80.0273 124.831 79.3386C124.668 78.9837 124.781 78.7068 125.721 77.1446C126.901 75.1829 127.882 73.9157 128.629 73.3852C129.822 72.5388 130.076 73.8838 128.975 75.2134C127.447 77.057 126.013 79.3858 126.404 79.3858C126.501 79.3858 127.398 78.9806 128.396 78.4857C130.35 77.517 132.043 76.1644 132.411 75.2785C132.608 74.8047 132.586 74.7033 132.172 74.1619C131.234 72.9365 129.602 72.1136 127.859 71.9867C127.054 71.9283 127.045 71.9334 126.778 72.6135C126.32 73.7787 124.748 76.3108 123.479 77.9285C122.813 78.7771 121.866 80.0308 121.374 80.7145C120.882 81.3982 120.39 81.9575 120.28 81.9575C120.17 81.9575 119.936 81.7981 119.759 81.6031C119.443 81.2554 119.446 81.2325 119.937 80.3601C120.212 79.8713 120.906 78.8272 121.479 78.0397C124.014 74.5576 124.902 73.2506 125.207 72.5564C125.386 72.1479 125.533 71.7813 125.533 71.7421C125.533 71.597 123.696 71.7122 122.767 71.9154ZM107.667 72.4501C107.443 72.9405 107.399 73.7286 107.597 73.7268C107.744 73.7254 108.425 72.7624 108.595 72.3135C108.792 71.7942 107.908 71.9245 107.667 72.4501ZM110.737 72.339C110.737 72.4239 110.272 73.0041 109.704 73.6283C109.136 74.2528 108.672 74.8297 108.672 74.9104C108.672 75.1412 109.156 75.4826 109.33 75.3751C109.417 75.3217 109.533 75.0644 109.589 74.8031C109.644 74.5418 109.963 74.0355 110.297 73.6781C111.21 72.6999 111.451 72.1849 110.995 72.1849C110.853 72.1849 110.737 72.2543 110.737 72.339ZM78.7678 73.9279C77.8702 75.5489 77.4031 76.6134 76.9365 78.0999C76.5988 79.1761 76.5104 79.3059 76.0806 79.3561C75.6457 79.407 75.6109 79.4605 75.7061 79.9348C75.7639 80.2221 75.811 80.5249 75.811 80.6073C75.811 80.9688 76.3008 80.7135 76.4056 80.2974C76.4694 80.0445 76.6714 79.543 76.8545 79.1829C77.0375 78.8231 77.351 78.2005 77.5509 77.7999C77.751 77.3992 78.1699 76.6469 78.4822 76.1282C79.1914 74.9497 79.8491 73.0543 79.6261 72.8321C79.5246 72.731 79.2034 73.1413 78.7678 73.9279ZM113.639 74.1603C112.38 75.7085 111.675 76.9711 111.885 77.3025C112.2 77.8 112.557 77.6123 113.464 76.4711C115.143 74.3611 115.284 74.112 115.067 73.6379C114.779 73.0072 114.491 73.1125 113.639 74.1603ZM117.696 73.7581C117.354 74.0575 116.767 74.7532 116.392 75.3039C116.016 75.8548 115.286 76.7782 114.768 77.3562C113.646 78.61 113.471 79.101 113.971 79.5992L114.326 79.9529L114.811 79.1252C115.078 78.6698 115.76 77.7128 116.328 76.9985C117.516 75.5036 118.516 74.1279 118.806 73.5879C118.981 73.2611 118.963 73.2136 118.663 73.2136C118.473 73.2136 118.039 73.4586 117.696 73.7581ZM97.5195 76.4283C96.9444 77.4421 96.2804 78.5316 96.0441 78.8496C95.4431 79.6587 95.3158 80.3538 95.6929 80.7689C96.1299 81.2501 96.3544 81.1807 96.7004 80.4573C96.8695 80.1038 97.3798 79.3048 97.8344 78.682C99.2832 76.6966 99.6367 75.724 99.2034 74.9168C99.1053 74.7344 98.9217 74.5852 98.7953 74.5852C98.669 74.5852 98.0949 75.4145 97.5195 76.4283ZM172.071 75.5311C169.121 75.8436 168.372 76.1994 168.372 77.2893C168.372 77.8172 168.415 77.8727 168.759 77.7923C172.312 76.9627 173.749 76.7551 176.028 76.742C178.191 76.7297 178.517 76.7674 179.218 77.112C179.734 77.3654 180.143 77.7361 180.423 78.2033C181.278 79.6347 181.834 79.918 182.153 79.0857C182.581 77.9718 181.324 76.2558 179.612 75.6177C178.837 75.3288 178.304 75.2744 176.409 75.2917C175.159 75.3031 173.207 75.4109 172.071 75.5311ZM75.3085 76.7712C75.3159 77.3135 75.3666 77.6413 75.4212 77.4998C75.4757 77.3584 75.6603 76.9147 75.8317 76.514L76.1429 75.7853H75.7188C75.3159 75.7853 75.2956 75.834 75.3085 76.7712ZM79.4452 77.5295C79.0551 78.3147 78.3728 79.6515 77.9287 80.5002C77.2547 81.7888 77.1198 82.2029 77.1115 83.0107C77.1039 83.7313 77.185 84.0703 77.4291 84.3395C77.6094 84.5382 77.8081 84.7007 77.8708 84.7007C77.9336 84.7007 78.1168 84.2956 78.2782 83.8006C78.4394 83.3056 78.8413 82.399 79.1713 81.7861C79.5011 81.1731 80.0485 80.1153 80.3878 79.4352L81.0044 78.1987L80.7092 77.292C80.5468 76.7935 80.3556 76.3216 80.2842 76.2436C80.2128 76.1656 79.8352 76.7443 79.4452 77.5295ZM99.468 78.9143C98.819 79.9752 98.0899 81.2043 97.8475 81.6458L97.4068 82.4485L97.822 82.8888C98.0503 83.1309 98.3357 83.3291 98.4562 83.3291C98.5766 83.3291 99.0413 82.6541 99.4888 81.8289C99.9361 81.0039 100.641 79.8502 101.055 79.2652L101.809 78.2019L101.502 77.7222C101.2 77.2485 100.937 76.9932 100.746 76.9881C100.692 76.9867 100.117 77.8535 99.468 78.9143ZM155.881 77.7407C155.83 77.8731 155.813 78.2396 155.844 78.5551C155.891 79.0446 155.972 79.1368 156.396 79.1852C156.679 79.2174 156.956 79.1433 157.039 79.0137C157.252 78.6789 157.22 77.9423 156.983 77.7056C156.7 77.4237 155.995 77.4462 155.881 77.7407ZM101.507 81.4006C100.84 82.5089 100.191 83.702 100.064 84.0519C99.8564 84.6235 99.8652 84.7238 100.15 85.0374C100.62 85.5547 100.881 85.4681 101.295 84.6578C101.499 84.2572 102.198 83.1871 102.847 82.2802C103.496 81.3732 104.027 80.5583 104.027 80.4692C104.027 80.2578 103.112 79.3858 102.89 79.3858C102.796 79.3858 102.173 80.2926 101.507 81.4006ZM81.0596 81.4862C79.8407 84.0595 79.1166 85.215 78.7234 85.215C78.2661 85.215 78.3067 85.3661 78.9753 86.1536C79.4792 86.7473 79.5897 86.8052 79.833 86.6041C79.9866 86.4771 80.1122 86.2917 80.1122 86.1923C80.1122 86.0929 80.6471 85.1573 81.301 84.1131C82.8995 81.5603 82.9633 81.4082 82.7013 80.7774C82.5847 80.4971 82.355 80.1465 82.1907 79.9984C81.912 79.747 81.8361 79.8468 81.0596 81.4862ZM104.852 82.0861C104.709 82.251 104.183 83.0033 103.684 83.7577C103.185 84.5121 102.55 85.3693 102.273 85.6625L101.769 86.1957L102.3 86.6412C102.593 86.8862 102.927 87.0502 103.044 87.0057C103.16 86.9609 103.441 86.577 103.667 86.1525C104.234 85.0866 105.301 84.1509 105.871 84.2189C106.647 84.3119 106.733 84.7424 106.127 85.4931C105.831 85.8588 105.24 86.5981 104.813 87.136L104.036 88.1139L104.477 88.6361C104.719 88.9233 105.046 89.1532 105.203 89.1469C105.562 89.1323 108.672 85.3918 108.672 84.975C108.672 84.6772 105.543 81.7931 105.215 81.7878C105.158 81.7867 104.995 81.9212 104.852 82.0861ZM140.728 82.1725C139.924 83.0628 138.595 85.6022 138.817 85.8233C138.913 85.9187 140.529 85.3932 140.746 85.1964C140.842 85.1096 140.79 84.9244 140.617 84.7341C140.239 84.3173 140.249 84.1923 140.769 82.9624C141.011 82.3892 141.179 81.8905 141.142 81.854C141.106 81.8173 140.919 81.9608 140.728 82.1725ZM83.6622 83.2005C82.5456 84.9733 81.3886 86.9707 81.1242 87.5817C80.8286 88.2644 80.8253 88.351 81.0803 88.739C81.232 88.9696 81.379 89.1584 81.4068 89.1584C81.4347 89.1584 81.7848 88.5604 82.1848 87.8296C82.5848 87.0989 83.3322 85.9038 83.8454 85.1739L84.7788 83.8467L84.473 83.3308C84.1069 82.7133 83.9817 82.693 83.6622 83.2005ZM137.269 83.8863C135.942 85.5936 134.936 87.0993 135.047 87.2102C135.166 87.3282 137.179 86.6561 137.519 86.3847C137.67 86.2643 137.649 86.1006 137.435 85.7282C137.158 85.2471 137.166 85.1989 137.705 84.1092C138.011 83.4916 138.195 82.9862 138.114 82.9862C138.034 82.9862 137.654 83.3913 137.269 83.8863ZM153.608 83.8006C151.761 88.0007 151.7 88.116 149.942 90.7014C148.237 93.2102 147.283 94.1669 145.326 95.3348C143.284 96.5533 143.143 96.6303 142.191 97.0401C141.184 97.4737 140.107 98.4614 140.187 98.879C140.23 99.1057 140.432 99.2019 140.945 99.2394C141.844 99.3053 143.274 98.5642 146.081 96.5777C147.211 95.778 148.229 95.0876 148.344 95.0437C148.579 94.954 150.875 92.0269 151.953 90.4442C153.056 88.8249 153.685 87.6378 154.319 85.9802C155.308 83.3955 155.31 82.9958 154.33 82.9888C154.06 82.9869 153.874 83.1955 153.608 83.8006ZM170.748 83.6794C167.825 84.019 164.985 85.243 163.773 86.6854C162.544 88.1491 162.351 88.6884 162.351 90.656C162.351 91.9288 162.409 92.4159 162.561 92.4159C162.677 92.4159 163.649 91.8308 164.722 91.1156C167.091 89.5369 167.857 89.1863 169.319 89.0108C173.603 88.4969 176.792 90.8873 177.101 94.8421C177.419 98.9034 172.926 104.745 167.331 107.546C164.873 108.776 162.826 109.237 159.954 109.206L157.643 109.181L157.438 109.843C157.325 110.206 157.03 110.928 156.783 111.447C156.144 112.784 156.181 113.233 156.974 113.741C157.97 114.378 159.276 114.622 161.49 114.584C167.644 114.478 174.423 111.915 178.665 108.09C182.009 105.074 183.856 100.809 183.856 96.1021C183.856 92.3808 182.855 89.6036 180.724 87.419C179.848 86.5213 177.275 84.8958 175.739 84.2704C174.827 83.899 172.689 83.4664 172.071 83.5283C171.977 83.5379 171.381 83.6058 170.748 83.6794ZM134.32 84.5462C133.453 85.0717 131.875 86.8085 131.305 87.865C131.026 88.3819 130.841 88.8474 130.893 88.8995C130.945 88.9516 131.406 88.8004 131.916 88.5636C132.427 88.3268 132.981 88.1323 133.148 88.1314C133.4 88.13 133.435 88.0213 133.357 87.4867C133.258 86.8044 133.525 86.2386 134.546 84.9673C134.819 84.627 135.009 84.3148 134.968 84.2738C134.927 84.2326 134.635 84.3552 134.32 84.5462ZM130.471 85.3985C130.033 85.6881 129.295 86.3387 128.831 86.8445C127.706 88.071 125.818 90.8729 126.116 90.8729C126.6 90.8729 129.608 89.593 129.995 89.2228C130.037 89.1831 129.901 89.0322 129.694 88.8875C129.487 88.743 129.318 88.4421 129.318 88.2188C129.318 87.8374 130.068 86.7171 130.978 85.7386C131.32 85.3712 131.52 84.8721 131.326 84.8721C131.295 84.8721 130.91 85.1091 130.471 85.3985ZM143.856 85.5639C143.382 85.8407 141.989 86.3874 140.759 86.7792C139.529 87.1709 138.445 87.5476 138.35 87.6164C138.255 87.6851 137.752 87.8787 137.232 88.0467C136.711 88.2145 135.705 88.6001 134.995 88.9034C134.285 89.2069 133.008 89.7435 132.156 90.096C131.305 90.4485 130.105 90.957 129.49 91.2259C128.875 91.4949 127.392 92.0994 126.195 92.5694C120.962 94.6231 117.446 96.9806 117.446 98.435C117.446 98.5936 118.359 98.6167 121.36 98.5339C131.004 98.2675 134.546 96.9099 140.232 91.3015C142.113 89.4457 143.775 87.2985 144.782 85.4239C145.046 84.9313 144.899 84.9534 143.856 85.5639ZM84.8399 86.4634C84.4835 87.0497 83.9438 87.9154 83.6409 88.3869C83.3377 88.8583 82.9984 89.5122 82.8868 89.8401C82.7018 90.3829 82.7185 90.4624 83.0753 90.7342C83.6684 91.1858 84.4125 91.4582 84.5752 91.2833C84.8159 91.0248 86.822 87.13 86.822 86.9213C86.822 86.6346 86.1598 85.7553 85.799 85.5629C85.5351 85.4222 85.3897 85.5586 84.8399 86.4634ZM169.509 85.6144C168.831 85.8184 168.026 86.6424 168.269 86.8839C168.342 86.9561 169.811 87.0153 171.533 87.0153C175.196 87.0153 175.058 86.9643 176.648 88.895C177.59 90.0393 178.489 90.6783 178.766 90.4017C178.938 90.2308 178.877 89.3264 178.668 88.9327C177.964 87.6102 176.27 86.044 175.082 85.6176C174.315 85.3426 170.42 85.3402 169.509 85.6144ZM109.241 86.9086C108.975 87.2745 108.344 88.0592 107.838 88.6526C106.497 90.2246 106.442 90.4007 107.062 91.164C107.344 91.5105 107.653 91.8203 107.75 91.8524C107.846 91.8844 108.229 91.3255 108.6 90.6102C108.973 89.8896 109.667 88.9154 110.156 88.4253L111.037 87.5409L110.514 86.8923C110.226 86.5355 109.93 86.2437 109.857 86.2437C109.783 86.2437 109.506 86.5429 109.241 86.9086ZM125.87 86.6295C125.271 86.9307 125.084 87.1286 125.016 87.5332C124.969 87.818 124.493 88.5895 123.959 89.2477C122.699 90.7998 121.208 92.9644 121.322 93.0774C121.37 93.1261 122.023 92.862 122.772 92.4908C124.107 91.8285 124.133 91.8037 124.144 91.1657C124.152 90.7251 124.326 90.2829 124.682 89.7941C124.972 89.3974 125.628 88.5026 126.14 87.8058C127.323 86.1966 127.262 85.93 125.87 86.6295ZM35.4557 88.1105C34.1315 88.7099 32.9112 90.7486 33.0051 92.2045C33.0521 92.9335 33.1026 93.0213 33.5023 93.0676C34.0642 93.1326 34.2373 92.9126 34.591 91.6833C34.9091 90.5775 35.5127 89.8106 36.4123 89.3686C37.0592 89.0507 37.2813 88.4678 36.9205 88.0345C36.6494 87.7088 36.3034 87.7268 35.4557 88.1105ZM87.6115 88.8597C87.0808 89.7624 85.9618 92.1601 85.9618 92.395C85.9618 92.6024 86.6441 93.1017 86.9276 93.1017C87.0383 93.1017 87.1811 92.8895 87.2449 92.6302C87.3087 92.371 87.7091 91.3987 88.1347 90.4698C88.8723 88.8601 88.8947 88.7656 88.6128 88.4553C88.1958 87.9961 88.0957 88.0364 87.6115 88.8597ZM158.964 89.0157C158.315 90.6311 157.099 92.6853 155.325 95.1591C154.695 96.0371 152.014 98.7012 150.757 99.6977C147.203 102.515 143.461 104.22 137.995 105.516C136.96 105.761 135.842 106.036 135.511 106.126C133.105 106.783 127.553 107.88 125.821 108.04C123.484 108.256 114.597 108.143 111.167 107.853C104.928 107.326 98.0166 106.214 92.4135 104.834C89.647 104.153 82.258 101.836 79.5014 100.785C78.0879 100.246 76.3712 99.1916 74.5456 97.7404C73.7077 97.0745 72.5707 96.2517 72.0186 95.9123C71.2292 95.4267 70.8299 95.011 70.1479 93.965C69.671 93.2336 69.2285 92.4893 69.1645 92.3112C68.9539 91.7239 67.4735 89.3298 67.3212 89.3298C67.239 89.3298 67.2116 89.4332 67.2603 89.5596C67.309 89.6858 67.5528 90.7979 67.8024 92.031C68.9433 97.6693 71.1599 103.542 74.3825 109.463C75.0019 110.601 76.6165 113.191 77.9705 115.219C81.0079 119.766 82.5097 121.333 85.6805 123.26C86.9333 124.022 89.3826 125.2 90.349 125.505C90.7275 125.624 91.1154 125.783 91.2111 125.858C91.4791 126.067 95.1795 127.161 98.5212 128.018C101.928 128.892 102.882 128.996 110.362 129.305C118.12 129.626 126.802 129.104 130.75 128.079C132.699 127.574 135.415 126.632 137.06 125.892C137.485 125.7 138.415 125.299 139.124 125C141.046 124.191 144.04 122.587 145.404 121.637C147.086 120.465 149.608 117.995 150.55 116.596C151.382 115.359 152.242 113.661 152.105 113.524C152.06 113.48 151.812 113.641 151.553 113.883C150.039 115.293 146.542 117.177 142.221 118.912C140.754 119.5 138.664 120.348 137.576 120.794C133.938 122.287 132.242 122.495 132.242 121.449C132.242 120.955 132.946 120.602 135.951 119.59C138.571 118.708 144.219 116.433 146.178 115.472C148.443 114.36 150.511 112.958 151.924 111.575C152.929 110.591 153.191 110.419 153.563 110.498C153.985 110.587 154.034 110.516 154.581 109.02C154.897 108.156 155.199 107.178 155.253 106.847L155.351 106.244L154.679 106.736C154.309 107.006 153.813 107.395 153.576 107.602C152.999 108.105 150.372 109.843 148.673 110.846C147.343 111.631 138.949 115.824 136.037 117.157C134.272 117.965 133.533 117.975 133.533 117.19C133.533 116.737 133.645 116.621 134.479 116.214C134.999 115.961 136.935 115.018 138.78 114.121C146.99 110.127 151.686 107.386 154.867 104.732C155.718 104.022 156.537 103.294 156.686 103.115C156.835 102.935 157.162 102.056 157.413 101.16C157.95 99.2488 158.003 98.9718 157.846 98.8994C157.782 98.8696 156.621 99.9259 155.266 101.247C152.525 103.919 151.671 104.611 148.673 106.593C146.275 108.178 143.92 109.497 140.07 111.409C136.873 112.998 136.673 113.071 136.206 112.822C135.31 112.344 136.114 111.486 138.371 110.511C140.434 109.62 146.112 106.702 147.468 105.835C148.812 104.977 149.666 104.272 153.109 101.179C157.68 97.0732 159.17 94.4882 159.517 90.0623C159.658 88.2662 159.435 87.8432 158.964 89.0157ZM110.804 89.9779C110.415 90.6116 109.837 91.5437 109.519 92.0495L108.941 92.969L109.421 93.3807C109.685 93.6071 109.975 93.747 110.065 93.6915C110.155 93.6359 110.497 93.0592 110.826 92.4099C111.331 91.4088 111.802 90.8729 112.175 90.8729C112.405 90.8729 112.801 91.4556 112.801 91.7932C112.801 92.0031 112.453 92.7034 112.027 93.3495C111.301 94.4514 111.057 95.1591 111.404 95.1591C111.487 95.1591 111.646 94.9403 111.757 94.673C112.054 93.9576 112.93 93.0683 113.272 93.1339C113.435 93.1651 113.638 93.3891 113.724 93.6313C113.848 93.9828 113.753 94.3511 113.254 95.4514C112.617 96.8571 112.489 97.6635 112.807 98.2565C112.959 98.5387 113.176 98.5881 114.266 98.5881H115.547L115.919 97.8594C116.351 97.0137 117.719 94.9647 118.688 93.7131C121.212 90.4506 122.191 89.0291 122.027 88.8659C121.692 88.5317 117.876 92.5987 116.93 94.2974C116.599 94.8925 116.167 95.5421 115.97 95.7408C115.774 95.9395 115.394 96.5055 115.128 96.9984C114.501 98.1569 114.079 98.5469 113.706 98.3122C113.055 97.9031 113.056 97.63 113.713 96.357L114.348 95.1272L113.984 93.643C113.585 92.0202 112.709 90.0187 112.075 89.2834C111.853 89.026 111.636 88.8177 111.591 88.8206C111.547 88.8234 111.193 89.3442 110.804 89.9779ZM89.1618 91.9371L88.3525 93.6869L88.7486 93.9905C88.9664 94.1575 89.2303 94.296 89.3349 94.2981C89.4397 94.3001 89.6529 93.7868 89.8087 93.1574C90.1012 91.9761 90.4176 91.4702 90.9738 91.2943C91.1505 91.2384 91.2952 91.127 91.2952 91.0467C91.2952 90.9133 90.2463 90.1871 90.0536 90.1871C90.0081 90.1871 89.6068 90.9745 89.1618 91.9371ZM75.4177 90.8075C75.3501 90.8749 75.2949 91.151 75.2949 91.4212C75.2949 92.0068 75.6608 92.1963 76.2633 91.9226C76.5961 91.7716 76.6816 91.6206 76.6396 91.2573C76.5952 90.8737 76.4889 90.7777 76.0629 90.7362C75.7756 90.7081 75.4853 90.7403 75.4177 90.8075ZM97.2596 90.8158C96.9994 91.0748 97.1667 91.7365 97.5567 91.9912C98.169 92.3909 98.8653 92.1692 98.8653 91.5744C98.8653 91.3205 98.7724 91.0203 98.6588 90.9072C98.4393 90.6884 97.4519 90.6239 97.2596 90.8158ZM91.6393 91.9727C91.6393 92.4907 91.4833 93.077 91.1942 93.6454C90.8482 94.326 90.7985 94.5508 90.9711 94.6571C91.3012 94.8604 91.4422 94.7027 91.5617 93.9958C91.7704 92.7612 91.7899 92.7357 92.4712 92.7922C93.0978 92.8442 93.1017 92.8495 93.0919 93.6161C93.0866 94.0404 93.0479 94.613 93.0059 94.8887C92.9302 95.3861 92.9424 95.3938 94.6501 95.9349C96.6906 96.5814 97.4889 96.7505 97.4889 96.5362C97.4889 96.1019 94.5345 93.3314 92.2845 91.6555L91.6393 91.1751V91.9727ZM169.362 92.0874C168.289 92.3394 165.354 93.9896 164.182 95C164.101 95.0698 164.531 95.7321 165.137 96.4717C165.744 97.2113 166.52 98.2049 166.863 98.6795C167.511 99.5767 168.716 102.128 168.716 102.602C168.716 103.081 168.988 102.904 170.471 101.46C174.295 97.7365 175.244 94.6545 173.134 92.8084C172.172 91.9669 170.906 91.7248 169.362 92.0874ZM102.513 93.9932C102.003 94.5011 102.398 95.3924 103.258 95.6753C104.027 95.928 104.371 95.801 104.371 95.2642C104.371 94.6122 104.198 94.3104 103.67 94.0383C103.079 93.7337 102.785 93.7222 102.513 93.9932ZM180.594 96.005C180.496 96.1874 180.415 96.8724 180.415 97.5272C180.415 98.8773 180.144 99.6603 179.293 100.772C178.975 101.187 178.589 101.904 178.435 102.366C177.727 104.489 174.12 107.081 170.714 107.915C168.86 108.369 167.918 109.018 167.818 109.91C167.777 110.271 167.849 110.34 168.316 110.385C168.618 110.414 169.158 110.288 169.521 110.104C169.883 109.92 170.853 109.564 171.678 109.314C172.503 109.063 173.733 108.581 174.413 108.242C176.786 107.059 180.241 103.105 181.426 100.217C181.697 99.5544 181.876 98.7199 181.927 97.8728C182.002 96.6361 181.98 96.5312 181.563 96.1154C181.032 95.5869 180.831 95.5637 180.594 96.005ZM38.4418 96.1084C38.1944 96.3549 39.2628 100.004 40.022 101.506C40.8423 103.128 43.0002 106.121 45.5213 109.132C46.7879 110.645 47.3087 111.228 49.4158 113.494C49.9911 114.112 50.9946 115.197 51.6458 115.904C54.5424 119.05 59.747 124.057 64.0258 127.814C66.5807 130.057 69.0969 132.292 69.6173 132.781C70.8617 133.95 74.3287 136.836 78.4867 140.164C79.3115 140.825 80.612 141.888 81.3769 142.527C82.1416 143.167 83.4578 144.17 84.3013 144.756C85.1449 145.343 86.5288 146.362 87.3765 147.022C88.2244 147.683 89.2929 148.511 89.7511 148.863C91.096 149.897 93.6782 152.416 93.8092 152.821C93.9449 153.241 93.9649 153.618 94.1863 159.967C94.3482 164.609 94.4402 165.212 95.1377 166.209C95.4577 166.666 95.4973 166.681 95.6155 166.381C95.6864 166.201 95.7497 165.071 95.7564 163.871C95.7696 161.458 96.0036 160.519 96.7668 159.819C97.1923 159.429 97.2164 159.426 97.4502 159.734C97.7004 160.063 97.6637 161.109 97.3275 163.224C97.2451 163.743 97.2183 165.17 97.268 166.396C97.353 168.494 97.3883 168.673 97.8686 169.435C98.8252 170.952 100.233 171.858 100.009 170.811C99.6188 168.989 99.5239 167.657 99.591 164.948C99.6684 161.817 99.8408 160.996 100.42 160.996C101.124 160.996 101.187 161.374 101.203 165.694C101.22 170.591 101.415 171.643 102.573 173.087C103.088 173.729 104.765 174.719 104.978 174.506C105.029 174.456 104.86 173.42 104.603 172.206C104.187 170.233 104.135 169.62 104.125 166.482C104.114 163.232 104.14 162.916 104.474 162.281C104.768 161.721 104.926 161.596 105.334 161.596H105.833L105.793 162.624C105.655 166.196 105.698 169.638 105.895 170.854C106.152 172.441 106.701 174.695 106.977 175.3C107.153 175.683 108.765 176.562 108.952 176.375C108.993 176.334 108.913 175.422 108.774 174.349C108.634 173.275 108.467 170.849 108.4 168.957C108.276 165.395 108.373 164.542 108.959 164.058C109.187 163.869 109.293 163.912 109.661 164.338L110.094 164.84L109.977 168.104C109.753 174.303 110.402 177.115 112.156 177.547C112.779 177.7 112.772 177.448 112.105 175.569C111.057 172.617 110.794 170.565 111.395 170.023C111.568 169.867 111.799 169.739 111.907 169.739C112.237 169.739 112.636 170.717 112.887 172.138C113.195 173.887 114.155 177.359 114.436 177.741C114.614 177.984 114.936 178.04 116.179 178.047C118.122 178.057 119.274 177.561 120.22 176.305C121.337 174.823 121.49 174.156 121.486 170.768C121.482 166.744 121.007 164.832 119.297 161.943C117.567 159.02 114.919 156.347 112.004 154.582C109.993 153.363 108.765 153.103 104.199 152.927C97.6455 152.674 98.2285 152.807 96.4602 151.164C95.6318 150.395 94.4992 149.534 93.9434 149.251C92.1364 148.332 91.0065 147.32 88.2462 144.147C85.4639 140.949 85.2586 140.734 81.3024 136.896C78.6813 134.353 77.1344 132.731 75.9153 131.246C75.4521 130.682 72.9688 128.137 70.3967 125.591C67.8246 123.045 64.5421 119.639 63.1024 118.022C61.5487 116.277 59.5609 114.28 58.2122 113.109C55.9432 111.139 54.8741 110.08 52.3812 107.332C50.533 105.295 44.5176 99.6615 42.8641 98.4199C41.6018 97.4719 39.0765 96.0163 38.6943 96.0163C38.6062 96.0163 38.4927 96.0578 38.4418 96.1084ZM65.4015 97.688C65.118 97.8354 64.481 98.2843 63.9859 98.6853C63.4907 99.0865 63.0236 99.4409 62.9478 99.4729C62.7783 99.5443 60.9403 102.1 60.1319 103.389C59.2644 104.771 58.6671 106.221 58.371 107.663L58.1095 108.936L58.804 109.763C59.186 110.217 59.5899 110.59 59.7014 110.59C59.8153 110.59 60.0008 110.083 60.1245 109.433C60.4004 107.983 60.8049 107.263 61.3821 107.195C61.9926 107.123 62.2749 107.507 62.0483 108.101C61.9502 108.358 61.7515 109.302 61.6067 110.199C61.3582 111.737 61.3608 111.852 61.6514 112.196C62.2742 112.934 64.5308 115.219 64.6366 115.219C64.6964 115.219 64.7988 113.134 64.864 110.587C64.9292 108.04 65.0578 105.758 65.1496 105.517C65.3633 104.957 65.987 105.011 66.3104 105.617C66.5417 106.051 66.5367 106.301 66.2086 110.761C66.0663 112.693 66.2361 115.345 66.5879 116.688C66.9329 118.004 67.5032 118.799 68.9716 120.012C70.2685 121.083 70.6026 121.257 70.3876 120.748C70.3177 120.583 70.0684 119.831 69.8334 119.076C69.4334 117.792 69.4009 117.402 69.3218 112.933C69.2385 108.229 69.2424 108.157 69.5993 107.908C69.9807 107.642 70.0812 107.006 69.7878 106.713C69.4587 106.385 66.9126 100.166 66.4296 98.5114C66.2779 97.9913 66.1005 97.533 66.0355 97.4929C65.9703 97.4527 65.685 97.5405 65.4015 97.688ZM161.229 98.1166C161.072 99.0724 159.706 103.789 159.259 104.918C158.751 106.203 158.788 106.475 159.469 106.473C161.609 106.468 165.28 105.59 165.869 104.942C166.109 104.677 166.105 104.534 165.82 103.454C165.647 102.797 165.243 101.769 164.922 101.169C164.319 100.041 161.969 97.3879 161.574 97.3879C161.442 97.3879 161.299 97.6916 161.229 98.1166ZM72.9456 99.3668C72.6168 100.221 74.0364 104.71 75.6428 107.896C77.0463 110.68 78.1312 112.257 80.6232 115.133C81.7669 116.453 82.8852 117.745 83.1082 118.005C83.6539 118.64 84.4134 118.661 84.4134 118.042C84.4134 117.261 83.9691 116.523 82.7626 115.3C79.5408 112.035 77.8331 109.365 76.0777 104.846C74.425 100.591 73.7243 99.1024 73.375 99.1024C73.1949 99.1024 73.0017 99.2214 72.9456 99.3668ZM189.821 100.074C189.758 100.137 189.706 100.324 189.706 100.491C189.706 101.089 188.308 105.005 187.698 106.113C186.238 108.77 183.773 111.645 182.348 112.353C181.316 112.865 181.105 113.203 181.525 113.665C182.218 114.429 183.335 113.891 185.381 111.808C187.896 109.245 189.295 106.968 190.475 103.51C191.117 101.629 191.154 101.03 190.675 100.265C190.483 99.9593 190.036 99.8592 189.821 100.074ZM41.7458 100.87C41.7458 101.417 42.2743 101.932 43.4322 102.514C44.1236 102.862 44.5279 103.204 44.7996 103.67C45.0117 104.034 45.58 104.756 46.0624 105.275C48.4558 107.848 51.7374 111.663 52.4773 112.733C52.9338 113.393 53.6674 114.198 54.1073 114.523C55.4266 115.496 55.8357 115.915 57.1496 117.635C57.8407 118.54 58.9349 119.733 59.5815 120.287C61.5191 121.949 62.56 122.935 64.1822 124.648C68.8904 129.621 70.906 131.568 72.7692 132.943C74.079 133.91 75.6219 133.631 74.8336 132.57C74.644 132.315 74.2251 131.934 73.9027 131.724C72.9308 131.091 70.5051 129.259 69.6815 128.537C69.2567 128.164 68.0846 126.886 67.0771 125.696C63.9353 121.988 62.8882 120.881 61.624 119.933C60.1842 118.853 59.0525 117.685 57.6957 115.88C57.1543 115.159 56.2041 114.097 55.5842 113.519C54.3281 112.348 49.2324 106.59 47.2261 104.074C45.1368 101.455 43.8334 100.474 42.4408 100.474C41.8292 100.474 41.7458 100.522 41.7458 100.87ZM70.758 109.947C70.5997 110.536 70.6326 113.934 70.8115 115.485C70.8993 116.245 71.1391 117.556 71.3445 118.4C71.7184 119.935 72.842 122.609 73.2079 122.834C73.3148 122.9 73.4079 123.239 73.4146 123.587C73.4254 124.14 73.5662 124.346 74.5329 125.225C75.6865 126.273 75.8585 126.267 75.316 125.199C73.9851 122.577 72.2865 114.569 72.8654 113.645C72.9805 113.461 73.0233 113.143 72.9609 112.936C72.7945 112.388 71.1456 109.561 70.9923 109.561C70.9206 109.561 70.8151 109.734 70.758 109.947ZM163.082 111.042C162.659 111.22 162.855 111.752 163.414 111.946C164.028 112.159 164.28 111.972 164.201 111.361C164.157 111.018 163.551 110.845 163.082 111.042ZM74.6081 116.537C74.6096 117.113 75.3396 120.673 75.6966 121.846C76.6857 125.098 78.189 128.035 79.8925 130.045C80.2104 130.421 80.4589 130.883 80.4444 131.074C80.43 131.265 80.4267 131.524 80.4372 131.65C80.4552 131.868 81.5249 132.957 85.5982 136.907C86.5708 137.85 88.1143 139.508 89.0283 140.593C91.655 143.709 93.9215 145.872 95.5314 146.798C96.2999 147.24 97.3838 148.002 97.94 148.491C99.3592 149.739 99.8386 149.911 101.525 149.774C103.432 149.618 107.998 150.087 109.962 150.64C113.67 151.684 116.753 153.941 119.701 157.772C120.26 158.497 120.888 159.211 121.098 159.358C121.539 159.665 122.671 159.701 124.004 159.449C124.513 159.352 125.916 159.123 127.12 158.939C131.573 158.258 138.563 156.162 143.683 153.971C145.794 153.068 149.677 151.11 150.975 150.293L151.698 149.838L151.334 149.376L150.969 148.914L151.631 148.311C151.995 147.98 153.492 146.694 154.956 145.455C159.456 141.647 162.18 138.598 164.2 135.11C165.276 133.254 166.231 132.364 167.148 132.364C167.584 132.364 167.786 132.971 167.484 133.376C162.944 139.449 160.964 141.918 158.893 144.09C157.486 145.565 155.047 147.699 154.266 148.138C154.125 148.218 154.061 148.334 154.124 148.397C154.302 148.575 157.134 146.973 158.68 145.82C159.043 145.549 160.23 144.432 161.318 143.337C164.347 140.288 165.659 138.174 169.032 130.906C170.716 127.277 171.014 123.508 170.117 117.19L169.995 116.333L169.254 116.381C168.846 116.407 167.358 116.657 165.947 116.936C160.575 118 158.735 117.967 156.339 116.767C155.58 116.387 154.862 116.076 154.741 116.076C154.621 116.076 154.291 116.443 154.009 116.891C151.926 120.19 148.417 123.411 144.429 125.686L142.565 126.749L142.563 127.456C142.562 127.845 142.449 128.587 142.313 129.106C142.103 129.905 141.892 130.213 140.93 131.127C137.457 134.427 131.351 136.75 124.156 137.509C121.477 137.792 110.036 137.625 107.382 137.265C102.124 136.552 100.415 136.135 98.0632 134.993C96.5636 134.265 95.2418 133.142 93.3546 130.992C92.5684 130.096 91.7639 129.279 91.5671 129.175C91.0614 128.91 89.5825 128.527 89.4753 128.634C89.4259 128.683 89.583 129.013 89.8244 129.367C90.3345 130.116 90.3478 130.194 90.0116 130.472C89.6322 130.786 88.6245 130.392 88.1272 129.735C87.9009 129.436 87.6172 128.845 87.4968 128.42C87.3763 127.996 87.2175 127.568 87.1439 127.469C86.9727 127.24 85.112 126.467 84.9999 126.579C84.9016 126.676 85.2775 127.33 86.5682 129.307C87.2198 130.305 87.6958 130.838 88.1483 131.078C88.5045 131.267 88.8231 131.562 88.8563 131.734C88.9358 132.145 88.4157 132.523 87.761 132.53C87.1119 132.536 86.1753 131.615 85.0652 129.878C82.6549 126.105 82.5208 125.862 82.5208 125.265C82.5208 124.933 82.4241 124.587 82.3058 124.495C82.1876 124.403 81.5701 123.86 80.9337 123.288C79.1726 121.705 79.0766 121.836 80.1177 124.398C81.48 127.751 82.5972 129.521 84.4101 131.199C85.7274 132.418 85.9408 132.962 85.1769 133.153C83.0081 133.696 79.0512 127.553 77.4572 121.17C76.95 119.138 76.8366 118.877 75.9132 117.612C74.7428 116.008 74.6062 115.896 74.6081 116.537ZM87.5169 120.665C87.1831 120.934 87.1511 121.043 87.3151 121.348C87.5456 121.777 88.0599 121.972 88.5519 121.816C88.8384 121.726 88.8957 121.585 88.853 121.076C88.8086 120.545 88.7319 120.44 88.357 120.396C88.1122 120.368 87.7359 120.488 87.5169 120.665ZM54.3668 124.373C54.5115 125.599 55.5174 128.444 56.4898 130.376C58.0448 133.466 64.5022 142.753 66.0412 144.112C67.0466 145 68.3137 145.945 70.1335 147.161C71.2217 147.889 72.5378 148.793 73.0583 149.169C74.3584 150.11 76.1353 151.075 77.8756 151.787C79.2664 152.356 80.3434 152.696 86.736 154.581C88.25 155.027 89.7379 155.496 90.0424 155.622C91.0817 156.054 91.203 155.86 90.521 154.86C90.2844 154.513 90.0909 154.021 90.0909 153.766C90.0909 153.379 89.6733 152.953 87.5639 151.191C86.1739 150.03 84.827 148.926 84.5706 148.737C84.3143 148.548 81.6384 146.416 78.6243 143.997C71.6107 138.37 71.0347 137.905 70.2868 137.266C69.9454 136.974 69.2879 136.427 68.8257 136.05C67.9249 135.315 65.6508 133.387 65.0158 132.821C64.8033 132.632 64.5977 132.509 64.5592 132.549C64.5204 132.588 64.8666 133.238 65.328 133.992C65.7896 134.747 66.2953 135.595 66.4518 135.878C66.9231 136.73 68.1136 138.114 68.7996 138.608C69.5769 139.167 69.8155 139.853 69.3507 140.192C68.7223 140.65 67.8848 140.132 66.5041 138.434C64.9134 136.477 61.4893 130.839 61.2748 129.823C61.1987 129.463 60.8684 128.992 60.3738 128.537C58.9981 127.274 58.9534 127.535 59.9951 130.742C61.0582 134.014 62.5034 136.757 64.1991 138.719C65.1784 139.852 65.4013 140.356 65.1581 140.888C64.8876 141.48 64.5961 141.371 63.5661 140.293C60.6759 137.269 58.8333 133.391 57.657 127.856L57.2513 125.948L55.9073 124.706C55.168 124.023 54.4946 123.461 54.4105 123.456C54.3265 123.452 54.3069 123.864 54.3668 124.373ZM45.8809 125.494C45.4432 126.309 45.676 128.125 46.6441 131.448C48.7028 138.513 49.3069 139.896 52.4722 144.794C54.4363 147.833 54.427 147.822 55.0706 147.76C55.5387 147.714 55.5897 147.654 55.5415 147.208C55.4673 146.522 55.0152 145.719 53.7952 144.108C52.2678 142.091 50.9719 139.431 49.6284 135.555C47.823 130.346 47.2079 128.155 47.2163 126.963C47.2244 125.824 46.922 125.163 46.3931 125.163C46.2093 125.163 45.979 125.312 45.8809 125.494ZM157.119 126.038C156.685 126.52 156.329 126.975 156.329 127.049C156.329 127.495 154.486 130.319 153.197 131.849C152.362 132.839 151.239 134.305 150.7 135.107C149.28 137.217 148.096 138.354 144.028 141.509C138.588 145.728 133.243 148.833 129.333 150.045C128.445 150.32 128.105 150.731 128.395 151.18C128.835 151.862 130.831 151.304 134.565 149.458C139.127 147.201 147.092 141.371 149.993 138.164C154.16 133.557 158.738 127.06 158.738 125.754C158.738 125.411 158.449 125.163 158.051 125.163C157.973 125.163 157.554 125.557 157.119 126.038ZM162.463 125.559C162.168 125.782 160.424 128.626 160.046 129.501C159.915 129.802 159.444 130.473 158.997 130.992C152.897 138.08 149.049 141.69 142.221 146.73C141.511 147.254 140.544 147.97 140.07 148.321C138.193 149.716 135.489 151.023 133.361 151.566C131.822 151.958 130.401 152.679 130.253 153.142C130.196 153.322 130.25 153.589 130.373 153.737C131.074 154.578 136.386 152.549 140.34 149.93C142.705 148.363 147.064 145.025 150.049 142.494C152.504 140.413 157.823 135.094 159 133.544C160.946 130.979 161.441 130.287 161.948 129.424C162.529 128.437 163.383 126.382 163.383 125.972C163.383 125.599 162.771 125.325 162.463 125.559ZM164.171 128.636C163.785 129.037 163.089 129.944 162.624 130.65C158.304 137.222 152.252 143.441 144.286 149.494C140.48 152.386 136.8 154.65 135.902 154.653C135.36 154.655 134.326 155 134.055 155.271C133.909 155.415 133.791 155.711 133.791 155.929C133.791 156.793 135.588 156.664 137.619 155.654C140.082 154.429 141.005 153.802 147.022 149.257C148.241 148.337 151.75 145.328 153.32 143.857C157.58 139.865 161.629 135.211 164.384 131.139C165.175 129.969 165.706 128.473 165.441 128.156C165.122 127.773 164.931 127.845 164.171 128.636ZM138.35 128.543C136.342 129.632 132.648 130.85 129.893 131.331C128.08 131.647 121.159 132.193 116.93 132.354C109.97 132.617 103.439 132.123 97.704 130.897C96.5106 130.642 98.527 132.02 100.331 132.693C103.944 134.04 109.908 134.83 117.102 134.914C126.809 135.027 134.398 132.995 138.393 129.212C139.397 128.262 139.379 127.984 138.35 128.543ZM149.468 129.612C148.003 131.617 145.461 133.95 140.759 137.608C138.715 139.198 136.141 140.873 135.362 141.122C134.11 141.521 133.511 142.531 134.395 142.752C135.383 142.999 136.302 142.667 137.908 141.484C138.766 140.853 140.419 139.661 141.582 138.835C144.756 136.584 146.433 135.218 148.253 133.404C150.835 130.83 151.72 129.241 150.835 128.769C150.316 128.493 150.26 128.528 149.468 129.612ZM144.458 130.595C143.599 131.858 140.92 134.194 138.436 135.848C137.632 136.384 136.684 137.019 136.329 137.261C135.554 137.788 135.31 138.479 135.778 138.82C136.215 139.139 136.554 139.003 138.436 137.755C142.903 134.795 145.284 132.541 146.106 130.494C146.356 129.871 146.364 129.734 146.161 129.606C145.595 129.249 145.229 129.462 144.458 130.595ZM42.0468 131.006C41.8812 131.102 41.7458 131.366 41.7458 131.593C41.7458 131.963 42.9382 135.259 43.5443 136.564C43.6756 136.847 43.9493 137.729 44.1523 138.524C44.3555 139.319 44.6413 140.206 44.7877 140.495C45.1743 141.26 45.8878 141.965 46.2751 141.965C46.5798 141.965 46.6023 141.873 46.519 140.979C46.466 140.409 46.1237 139.236 45.7083 138.201C45.313 137.215 44.7179 135.599 44.3858 134.611C43.6827 132.516 42.8639 130.818 42.5606 130.826C42.4436 130.829 42.2125 130.909 42.0468 131.006ZM175.296 132.57C175.193 132.693 175.053 133.025 174.983 133.308C174.759 134.218 173.406 137.592 172.741 138.897C171.438 141.454 168.927 144.834 166.405 147.425C163.902 149.997 161.794 151.647 158.785 153.391C153.99 156.171 151.416 157.433 149.933 157.732C148.919 157.936 148.707 158.082 148.513 158.714C148.413 159.041 148.49 159.118 149.101 159.301C149.694 159.478 149.95 159.465 150.724 159.222C151.229 159.063 151.926 158.742 152.273 158.507C152.62 158.273 152.952 158.081 153.011 158.081C153.18 158.081 158.516 155.192 159.586 154.522C163.467 152.09 165.143 150.818 167.658 148.399C171.121 145.066 173.22 141.939 175.274 137.05C176.233 134.769 176.476 133.844 176.316 133.077C176.177 132.404 175.652 132.143 175.296 132.57ZM77.9738 135.205C77.8252 135.353 77.7035 135.54 77.7035 135.621C77.7035 135.823 78.2057 136.307 78.4153 136.307C78.7816 136.307 79.2519 135.937 79.2519 135.649C79.2519 134.98 78.4717 134.709 77.9738 135.205ZM178.284 138.887C178.033 139.184 177.356 140.365 176.78 141.51C173.66 147.71 169.098 152.522 164.132 154.852C162.533 155.602 161.662 156.44 161.662 157.23C161.662 157.674 161.724 157.738 162.153 157.738C162.423 157.738 162.907 157.549 163.228 157.318C164.659 156.289 165.633 155.665 166.996 154.906C170.711 152.834 171.463 152.119 175.017 147.28C177.696 143.632 178.002 143.128 178.45 141.638C178.585 141.191 178.99 140.522 179.388 140.091C180.305 139.097 180.296 138.476 179.363 138.398C178.843 138.355 178.666 138.435 178.284 138.887ZM177.905 147.041C177.802 147.084 177.377 147.66 176.959 148.322C176.542 148.984 175.83 150.023 175.377 150.632C174.685 151.562 174.583 151.792 174.738 152.08C174.966 152.505 175.197 152.51 175.856 152.104C176.784 151.534 177.345 150.821 178.196 149.132C178.953 147.629 179.007 147.444 178.766 147.203C178.5 146.938 178.263 146.894 177.905 147.041ZM110.497 154.678C110.115 155.221 110.485 155.961 111.896 157.476C113.779 159.499 115.662 163.261 116.741 167.154C117.379 169.454 117.457 169.914 117.604 172.269C117.706 173.89 117.779 174.238 118.059 174.449C118.499 174.781 118.933 174.777 119.062 174.44C119.418 173.516 118.951 169.611 118.11 166.482C117.085 162.668 115.663 159.832 113.262 156.816C111.758 154.927 111.176 154.309 110.899 154.309C110.82 154.309 110.639 154.475 110.497 154.678ZM100.448 155.201C100.335 155.314 100.242 155.53 100.242 155.681C100.242 156.2 100.637 156.366 101.867 156.368C107.109 156.373 110.466 158.906 113.682 165.281C114.717 167.333 115.286 169.193 115.692 171.848C115.893 173.165 116.102 173.511 116.697 173.511C117.438 173.511 117.525 172.934 117.099 170.837C116.587 168.314 116.163 167.212 114.183 163.244C111.771 158.412 110.449 156.989 107.31 155.847C105.204 155.081 100.968 154.682 100.448 155.201ZM129.413 168.406C129.096 168.858 129.07 170.059 129.321 172.698C129.511 174.695 129.369 176.162 128.888 177.173C128.734 177.495 128.035 178.39 127.334 179.163C126.446 180.142 126.024 180.753 125.945 181.174C125.59 183.062 127.835 181.522 129.844 178.501C131.035 176.707 131.151 174.751 130.418 168.754C130.348 168.186 130.257 168.025 130.005 168.025C129.827 168.025 129.561 168.196 129.413 168.406ZM132.32 173.525C132.257 173.627 132.261 174.791 132.33 176.112C132.455 178.514 132.454 178.515 131.974 179.461C131.476 180.442 131.518 180.904 132.115 181.022C132.593 181.116 133.563 180.087 133.77 179.265C134.16 177.723 133.882 174.141 133.33 173.591C133.034 173.296 132.484 173.261 132.32 173.525Z" fill="#D4B7AA"/>
</g>
<path d="M40.8004 233.74C41.7471 233.967 42.4604 234.373 42.9404 234.96C43.4337 235.533 43.6804 236.273 43.6804 237.18C43.6804 238.393 43.2337 239.333 42.3404 240C41.4604 240.667 40.1737 241 38.4804 241H32.0804V227H38.1004C39.6337 227 40.8271 227.313 41.6804 227.94C42.5471 228.553 42.9804 229.44 42.9804 230.6C42.9804 231.36 42.7871 232.007 42.4004 232.54C42.0271 233.073 41.4937 233.473 40.8004 233.74ZM34.0604 233.16H37.9604C38.9337 233.16 39.6737 232.967 40.1804 232.58C40.7004 232.193 40.9604 231.627 40.9604 230.88C40.9604 230.133 40.7004 229.567 40.1804 229.18C39.6604 228.78 38.9204 228.58 37.9604 228.58H34.0604V233.16ZM38.4404 239.42C40.5871 239.42 41.6604 238.62 41.6604 237.02C41.6604 236.22 41.3871 235.633 40.8404 235.26C40.3071 234.873 39.5071 234.68 38.4404 234.68H34.0604V239.42H38.4404ZM50.4818 230.3C51.9485 230.3 53.0685 230.66 53.8418 231.38C54.6285 232.1 55.0218 233.173 55.0218 234.6V241H53.2018V239.6C52.8818 240.093 52.4218 240.473 51.8218 240.74C51.2351 240.993 50.5351 241.12 49.7218 241.12C48.5351 241.12 47.5818 240.833 46.8618 240.26C46.1551 239.687 45.8018 238.933 45.8018 238C45.8018 237.067 46.1418 236.32 46.8218 235.76C47.5018 235.187 48.5818 234.9 50.0618 234.9H53.1018V234.52C53.1018 233.693 52.8618 233.06 52.3818 232.62C51.9018 232.18 51.1951 231.96 50.2618 231.96C49.6351 231.96 49.0218 232.067 48.4218 232.28C47.8218 232.48 47.3151 232.753 46.9018 233.1L46.1018 231.66C46.6485 231.22 47.3018 230.887 48.0618 230.66C48.8218 230.42 49.6285 230.3 50.4818 230.3ZM50.0418 239.64C50.7751 239.64 51.4085 239.48 51.9418 239.16C52.4751 238.827 52.8618 238.36 53.1018 237.76V236.28H50.1418C48.5151 236.28 47.7018 236.827 47.7018 237.92C47.7018 238.453 47.9085 238.873 48.3218 239.18C48.7351 239.487 49.3085 239.64 50.0418 239.64ZM64.0991 230.3C65.1258 230.3 66.0458 230.527 66.8591 230.98C67.6725 231.433 68.3058 232.067 68.7591 232.88C69.2258 233.693 69.4591 234.633 69.4591 235.7C69.4591 236.767 69.2258 237.713 68.7591 238.54C68.3058 239.353 67.6725 239.987 66.8591 240.44C66.0458 240.893 65.1258 241.12 64.0991 241.12C63.3391 241.12 62.6391 240.973 61.9991 240.68C61.3725 240.387 60.8391 239.96 60.3991 239.4V244.88H58.4791V230.4H60.3191V232.08C60.7458 231.493 61.2858 231.053 61.9391 230.76C62.5925 230.453 63.3125 230.3 64.0991 230.3ZM63.9391 239.44C64.6191 239.44 65.2258 239.287 65.7591 238.98C66.3058 238.66 66.7325 238.22 67.0391 237.66C67.3591 237.087 67.5191 236.433 67.5191 235.7C67.5191 234.967 67.3591 234.32 67.0391 233.76C66.7325 233.187 66.3058 232.747 65.7591 232.44C65.2258 232.133 64.6191 231.98 63.9391 231.98C63.2725 231.98 62.6658 232.14 62.1191 232.46C61.5858 232.767 61.1591 233.2 60.8391 233.76C60.5325 234.32 60.3791 234.967 60.3791 235.7C60.3791 236.433 60.5325 237.087 60.8391 237.66C61.1458 238.22 61.5725 238.66 62.1191 238.98C62.6658 239.287 63.2725 239.44 63.9391 239.44ZM72.2487 230.4H74.1687V238.12L80.6687 230.4H82.4087V241H80.4887V233.28L74.0087 241H72.2487V230.4ZM89.9154 230.3C91.3821 230.3 92.5021 230.66 93.2754 231.38C94.0621 232.1 94.4554 233.173 94.4554 234.6V241H92.6354V239.6C92.3154 240.093 91.8554 240.473 91.2554 240.74C90.6687 240.993 89.9687 241.12 89.1554 241.12C87.9687 241.12 87.0154 240.833 86.2954 240.26C85.5887 239.687 85.2354 238.933 85.2354 238C85.2354 237.067 85.5754 236.32 86.2554 235.76C86.9354 235.187 88.0154 234.9 89.4954 234.9H92.5354V234.52C92.5354 233.693 92.2954 233.06 91.8154 232.62C91.3354 232.18 90.6287 231.96 89.6954 231.96C89.0687 231.96 88.4554 232.067 87.8554 232.28C87.2554 232.48 86.7487 232.753 86.3354 233.1L85.5354 231.66C86.0821 231.22 86.7354 230.887 87.4954 230.66C88.2554 230.42 89.0621 230.3 89.9154 230.3ZM89.4754 239.64C90.2087 239.64 90.8421 239.48 91.3754 239.16C91.9087 238.827 92.2954 238.36 92.5354 237.76V236.28H89.5754C87.9487 236.28 87.1354 236.827 87.1354 237.92C87.1354 238.453 87.3421 238.873 87.7554 239.18C88.1687 239.487 88.7421 239.64 89.4754 239.64ZM97.9127 230.4H99.8327V234.9H105.873V230.4H107.793V241H105.873V236.56H99.8327V241H97.9127V230.4ZM119.426 232.08H115.546V241H113.626V232.08H109.746V230.4H119.426V232.08ZM126.169 234C127.503 234.013 128.523 234.32 129.229 234.92C129.936 235.52 130.289 236.367 130.289 237.46C130.289 238.607 129.903 239.493 129.129 240.12C128.369 240.733 127.276 241.033 125.849 241.02L121.389 241V230.4H123.309V233.98L126.169 234ZM131.869 230.4H133.789V241H131.869V230.4ZM125.709 239.56C126.576 239.573 127.229 239.4 127.669 239.04C128.123 238.68 128.349 238.147 128.349 237.44C128.349 236.747 128.129 236.24 127.689 235.92C127.249 235.6 126.589 235.433 125.709 235.42L123.309 235.38V239.54L125.709 239.56ZM147.013 236.52H144.813V241H142.893V230.4H144.813V234.88H147.053L150.493 230.4H152.553L148.533 235.5L152.833 241H150.573L147.013 236.52ZM159.035 241.12C157.981 241.12 157.035 240.887 156.195 240.42C155.355 239.953 154.695 239.313 154.215 238.5C153.748 237.673 153.515 236.74 153.515 235.7C153.515 234.66 153.748 233.733 154.215 232.92C154.695 232.093 155.355 231.453 156.195 231C157.035 230.533 157.981 230.3 159.035 230.3C160.088 230.3 161.028 230.533 161.855 231C162.695 231.453 163.348 232.093 163.815 232.92C164.295 233.733 164.535 234.66 164.535 235.7C164.535 236.74 164.295 237.673 163.815 238.5C163.348 239.313 162.695 239.953 161.855 240.42C161.028 240.887 160.088 241.12 159.035 241.12ZM159.035 239.44C159.715 239.44 160.321 239.287 160.855 238.98C161.401 238.66 161.828 238.22 162.135 237.66C162.441 237.087 162.595 236.433 162.595 235.7C162.595 234.967 162.441 234.32 162.135 233.76C161.828 233.187 161.401 232.747 160.855 232.44C160.321 232.133 159.715 231.98 159.035 231.98C158.355 231.98 157.741 232.133 157.195 232.44C156.661 232.747 156.235 233.187 155.915 233.76C155.608 234.32 155.455 234.967 155.455 235.7C155.455 236.433 155.608 237.087 155.915 237.66C156.235 238.22 156.661 238.66 157.195 238.98C157.741 239.287 158.355 239.44 159.035 239.44ZM180.687 235.68C180.687 237.32 180.141 238.613 179.047 239.56C177.954 240.507 176.414 241.033 174.427 241.14V244.88H172.547V241.14C170.561 241.033 169.021 240.513 167.927 239.58C166.847 238.633 166.307 237.333 166.307 235.68C166.307 234.04 166.847 232.76 167.927 231.84C169.007 230.92 170.547 230.407 172.547 230.3V226.16H174.427V230.3C176.414 230.407 177.954 230.927 179.047 231.86C180.141 232.78 180.687 234.053 180.687 235.68ZM168.207 235.68C168.207 236.813 168.567 237.7 169.287 238.34C170.021 238.98 171.107 239.347 172.547 239.44V232C171.094 232.093 170.007 232.453 169.287 233.08C168.567 233.707 168.207 234.573 168.207 235.68ZM174.427 239.46C177.334 239.233 178.787 237.973 178.787 235.68C178.787 234.56 178.421 233.693 177.687 233.08C176.954 232.453 175.867 232.093 174.427 232V239.46ZM192.981 235.76C192.981 235.907 192.968 236.1 192.941 236.34H184.341C184.461 237.273 184.868 238.027 185.561 238.6C186.268 239.16 187.141 239.44 188.181 239.44C189.448 239.44 190.468 239.013 191.241 238.16L192.301 239.4C191.821 239.96 191.221 240.387 190.501 240.68C189.794 240.973 189.001 241.12 188.121 241.12C187.001 241.12 186.008 240.893 185.141 240.44C184.274 239.973 183.601 239.327 183.121 238.5C182.654 237.673 182.421 236.74 182.421 235.7C182.421 234.673 182.648 233.747 183.101 232.92C183.568 232.093 184.201 231.453 185.001 231C185.814 230.533 186.728 230.3 187.741 230.3C188.754 230.3 189.654 230.533 190.441 231C191.241 231.453 191.861 232.093 192.301 232.92C192.754 233.747 192.981 234.693 192.981 235.76ZM187.741 231.92C186.821 231.92 186.048 232.2 185.421 232.76C184.808 233.32 184.448 234.053 184.341 234.96H191.141C191.034 234.067 190.668 233.34 190.041 232.78C189.428 232.207 188.661 231.92 187.741 231.92Z" fill="#D4B7AA"/>
<defs>
<clipPath id="clip0_24_196611">
<rect width="158" height="142" fill="white" transform="translate(33 40)"/>
</clipPath>
</defs>
</svg>
