<svg width="224" height="320" viewBox="0 0 224 320" fill="none" xmlns="http://www.w3.org/2000/svg">
<rect width="224" height="320" rx="32" fill="#54372A"/>
<g clip-path="url(#clip0_24_196612)">
<path fill-rule="evenodd" clip-rule="evenodd" d="M117.754 40.0607C116.94 40.1714 116.774 40.3158 116.744 40.9369L116.722 41.4115L118.089 41.5083C121.097 41.7214 127.319 43.0694 130.032 44.0957C130.776 44.3771 131.75 44.644 132.197 44.689C132.97 44.7665 133.018 44.7526 133.179 44.4024C133.483 43.741 133.058 43.4597 130.488 42.6185C126.767 41.4007 122.231 40.3302 119.996 40.1424C119.369 40.0897 118.761 40.0292 118.643 40.0079C118.526 39.9864 118.126 40.0103 117.754 40.0607ZM90.67 42.9815C88.4293 43.6356 86.2874 44.4224 84.9045 45.0993C83.6505 45.713 79.9782 47.8583 79.4237 48.3009C79.3454 48.3635 78.833 48.7187 78.2849 49.0905C73.8696 52.0853 73.5159 52.4167 73.5159 53.5572C73.5159 54.024 73.5466 54.0589 73.9569 54.0589C74.3057 54.0589 74.5716 53.8855 75.2269 53.2311C75.6827 52.7758 76.364 52.2238 76.741 52.0045C77.1178 51.7853 77.4914 51.5519 77.5708 51.486C77.7166 51.3652 79.0082 50.4294 80.6516 49.2543C81.1406 48.9045 81.6504 48.5548 81.7842 48.4771C81.9181 48.3994 82.3707 48.1047 82.7899 47.8222C85.2322 46.1767 88.0894 44.9309 90.1841 44.598C92.6246 44.2102 93.2941 43.828 92.8122 43.0978C92.6287 42.8198 92.47 42.7558 91.9836 42.7639C91.6526 42.7693 91.0615 42.8672 90.67 42.9815ZM112.593 44.3121C112.28 44.3748 111.864 44.4873 111.668 44.5619C111.441 44.6481 110.535 44.6491 109.177 44.5646C106.46 44.3955 102.359 44.6234 99.6386 45.0948C97.0216 45.5483 97.1519 45.5114 89.6735 47.9144C81.5654 50.5196 80.5737 50.9988 77.9919 53.5581C76.4483 55.0882 75.7856 56.0495 75.0608 57.8101C74.6354 58.8434 74.5901 59.1051 74.5003 61.0537C74.3618 64.06 74.1222 65.429 73.1409 68.8258C72.3787 71.4636 71.3758 73.5767 70.0725 75.2904C69.6146 75.8925 68.9391 76.8464 68.5714 77.4101C67.9992 78.287 67.8953 78.5574 67.8512 79.2828C67.8076 79.9993 67.8509 80.1981 68.1309 80.5657C69.2369 82.0179 72.4928 84.0168 76.8613 85.9256C77.8792 86.3703 78.776 86.7822 78.8543 86.8409C78.9326 86.8995 79.237 87.0243 79.5305 87.1181C79.8242 87.2121 80.0655 87.3316 80.0669 87.3839C80.0683 87.4361 80.1609 88.1166 80.2726 88.8961C80.3842 89.6756 80.5452 90.8838 80.6304 91.581C80.7978 92.9507 81.3782 95.9468 81.6973 97.088C82.0198 98.2415 83.0843 104.464 83.2688 106.273C83.3162 106.74 83.4167 107.566 83.492 108.11C83.5674 108.654 83.7541 110.117 83.9072 111.36C84.2508 114.155 84.6201 116.478 85.1875 119.415C85.4278 120.659 85.7141 122.248 85.8237 122.948C86.0142 124.163 86.4618 126.716 86.9634 129.448C87.092 130.148 87.3218 131.451 87.4741 132.345C87.6264 133.239 87.8502 134.542 87.9713 135.242C88.0926 135.941 88.279 137.094 88.3856 137.802C88.4924 138.511 88.677 139.592 88.7962 140.205C88.9152 140.817 89.1828 142.431 89.3906 143.791C89.5986 145.151 89.8873 146.9 90.0321 147.677C90.177 148.455 90.3369 149.377 90.3874 149.726C90.438 150.076 90.599 150.903 90.7453 151.563C90.8915 152.224 91.1768 153.528 91.3791 154.46C91.7395 156.122 92.2055 157.858 92.7446 159.547C94.0473 163.63 94.1793 163.915 94.9976 164.399C95.3473 164.606 96.7268 165.316 98.0631 165.977C100.713 167.287 100.672 167.25 101.211 168.874C102.24 171.971 102.625 172.475 104.763 173.525C106.421 174.338 108.294 174.915 110.6 175.322C112.375 175.635 112.756 175.648 119.925 175.652C127.214 175.657 127.434 175.649 128.861 175.332C130.944 174.868 134.278 173.749 135.129 173.228C135.897 172.757 136.757 171.823 137.185 170.994C137.574 170.241 137.634 169.955 137.725 168.45C137.869 166.066 138.159 165.49 139.965 164.009C141.836 162.474 141.952 161.97 142.043 155.025C142.08 152.228 142.212 148.603 142.337 146.971C142.462 145.339 142.659 142.254 142.775 140.117C142.891 137.98 143.018 135.945 143.056 135.595C143.095 135.245 143.226 133.751 143.347 132.274C143.469 130.798 143.661 128.954 143.775 128.176C144.056 126.263 144.365 122.227 144.55 118.06C144.635 116.163 144.768 113.498 144.846 112.138C144.924 110.778 145.05 108.425 145.126 106.909C145.329 102.879 145.522 100.495 145.755 99.137C146.147 96.8522 146.721 93.6926 146.922 92.7074C147.147 91.6004 147.602 89.1903 147.908 87.4789C148.018 86.8571 148.072 86.0622 148.026 85.7125C147.926 84.944 147.774 85.0989 150.938 82.7437C153.969 80.4878 155.146 79.4855 156.526 77.9852C157.313 77.1305 157.629 76.6877 157.562 76.5351C157.508 76.4142 157.419 75.9243 157.363 75.4463C157.239 74.3788 156.943 73.9431 155.647 72.9167C154.403 71.9307 154.091 71.5365 153.135 69.739C152.707 68.9338 151.85 67.6497 151.231 66.8852C149.983 65.3459 149.598 64.6695 148.94 62.8644C148.488 61.6261 148.2 61.0807 146.884 58.972C146.105 57.725 145.631 56.4474 145.481 55.192C145.43 54.7661 145.191 53.9712 144.951 53.4256C143.208 49.4716 139.527 47.3277 131.954 45.8565C127.426 44.9768 126.36 44.8549 122.131 44.7322C119.861 44.6664 117.234 44.5143 116.294 44.3942C114.437 44.1568 113.475 44.1354 112.593 44.3121ZM77.8043 44.5396C76.908 44.9276 76.2638 45.5586 76.0729 46.2353C75.968 46.6074 75.9471 46.9194 76.0221 46.9936C76.2412 47.2104 77.9959 46.5235 78.7128 45.9404C79.345 45.426 79.8371 44.6563 79.6874 44.4158C79.5752 44.2356 78.3148 44.3186 77.8043 44.5396ZM112.807 47.4257C112.214 47.7359 111.407 47.7615 109.421 47.5334C108.277 47.402 107.374 47.4038 105.293 47.5416C102.367 47.7352 99.4788 48.0577 98.9689 48.2476C98.7891 48.3146 98.1037 48.4771 97.4458 48.6085C96.7878 48.7401 95.1223 49.2187 93.7445 49.6721C92.3666 50.1256 89.8301 50.9475 88.1076 51.4984C82.4248 53.3163 82.2532 53.4152 79.4237 56.5113C77.9361 58.1391 77.5946 58.7935 77.6729 59.8667C77.7211 60.5296 77.8236 60.7961 78.2286 61.3122C78.8328 62.0821 80.1688 63.1991 81.132 63.7401C81.5235 63.9599 81.9399 64.2142 82.0574 64.305C82.6644 64.7752 84.243 65.2306 86.1857 65.4961C91.4252 66.2123 93.0742 66.3783 96.8626 66.5717C99.094 66.6856 101.817 66.8413 102.913 66.9177C105.485 67.097 110.919 67.0973 113.376 66.9183C114.433 66.8411 116.771 66.6833 118.572 66.5674C124.139 66.2091 127.842 65.5659 131.669 64.2927C135.778 62.9258 138.314 61.4773 140.409 59.3009C142.34 57.2942 142.709 55.6086 141.673 53.5212C140.868 51.8968 139.602 50.9533 137.221 50.2009C133.311 48.9656 129.871 48.2634 126.028 47.9161C124.746 47.8002 122.992 47.6405 122.131 47.5612C120.658 47.4256 114.253 47.1167 113.603 47.1499C113.439 47.1584 113.081 47.2824 112.807 47.4257ZM106.828 49.3387C103.204 49.7475 101.495 50.0815 95.6722 51.5192C89.9559 52.9306 88.8219 53.2619 87.2534 53.9786C84.5372 55.2197 83.9173 55.5969 82.8298 56.6696C81.7059 57.7783 81.3447 59.1672 81.8999 60.2469C82.2259 60.8809 82.5059 61.137 83.3161 61.5414C84.1717 61.9686 86.6373 62.639 87.7517 62.7475C88.2606 62.7971 89.0135 62.8952 89.4248 62.9655C89.8362 63.0358 91.9823 63.2614 94.1938 63.4669C97.6806 63.7909 98.6502 63.8304 101.489 63.7632C103.29 63.7207 104.956 63.6529 105.191 63.6125C105.425 63.5719 106.834 63.4348 108.322 63.3078C109.809 63.1808 111.062 63.0543 111.107 63.0267C111.152 62.9992 112.177 62.8752 113.386 62.7515C114.594 62.6277 115.967 62.4643 116.437 62.3884C117.75 62.1767 125.298 61.407 126.062 61.407C127.222 61.407 130.782 60.7279 132.401 60.1978C134.947 59.3642 136.475 58.3718 137.264 57.0383C137.603 56.4669 137.647 56.2488 137.639 55.1893C137.628 53.8752 137.456 53.3941 136.771 52.7742C134.934 51.1101 131.095 50.2576 122.772 49.6654C118.879 49.3883 108.307 49.1718 106.828 49.3387ZM108.219 52.2954C108.162 52.3551 106.977 52.4161 105.585 52.4312C102.825 52.4611 101.795 52.6394 98.0726 53.7317C97.1331 54.0074 96.044 54.3166 95.6525 54.4186C95.2611 54.5207 94.3962 54.7728 93.7307 54.9788C93.0652 55.185 92.2136 55.4409 91.8382 55.5477C90.2716 55.9934 88.8767 56.5259 87.5094 57.2005C85.9577 57.9661 84.5955 58.9529 84.9259 59.072C86.6028 59.6767 86.9484 59.6993 87.625 59.2488C89.503 57.9985 94.2942 56.6475 98.4997 56.1825C99.2044 56.1046 100.293 55.9753 100.92 55.8953C102.755 55.6609 107.889 55.4803 116.711 55.34C127.715 55.1649 130.641 55.3827 132.907 56.5459C133.279 56.7373 133.341 56.7219 133.98 56.2765C135.121 55.482 134.939 54.711 133.479 54.15C131.38 53.344 127.622 52.8035 123.528 52.7188C121.898 52.6852 119.925 52.5919 119.142 52.5115C117.35 52.3275 108.358 52.1498 108.219 52.2954ZM106.472 58.3106C102.326 58.4991 97.7056 59.1249 94.4563 59.9378C92.3735 60.459 92.4355 60.5193 95.2394 60.6996C99.4462 60.9701 106.042 60.8094 109.604 60.3497C110.465 60.2387 111.618 60.1089 112.166 60.0615C112.714 60.0141 114.572 59.7858 116.294 59.554C118.017 59.3223 120.629 58.9739 122.099 58.7801C123.569 58.5863 124.915 58.3708 125.089 58.3012C125.478 58.1457 109.926 58.1536 106.472 58.3106ZM142.835 60.7602C141.574 62.0094 139.385 63.9506 139.237 63.9506C139.17 63.9506 138.915 64.0924 138.67 64.2657C136.222 65.9958 130.497 67.8474 125.192 68.625C116.543 69.8926 108.193 70.1487 97.3608 69.4787C87.5719 68.8733 85.8506 68.6803 83.3544 67.908C81.8592 67.4454 80.7011 66.8342 78.6623 65.4316C77.9303 64.9279 77.2491 64.5159 77.1486 64.5159C76.9338 64.5159 76.7952 64.9536 76.791 65.6464C76.7893 65.9184 76.6337 66.8722 76.4453 67.766C75.696 71.3204 74.5014 73.9731 71.8558 77.9568C71.3596 78.7042 70.9534 79.3539 70.9534 79.4007C70.9534 79.4876 72.6247 80.6253 72.7524 80.6253C72.7913 80.6253 73.027 80.7733 73.2763 80.9541C74.7272 82.0068 80.4275 84.357 83.4318 85.1413C83.7329 85.22 84.5557 85.4393 85.2604 85.6288C91.0534 87.1868 93.3136 87.7224 97.7879 88.5965C100.88 89.2006 105.075 89.5447 110.315 89.6244C113.415 89.6715 116.432 89.6405 117.95 89.5458C120.71 89.3736 125.184 88.901 126.188 88.6754C126.541 88.5962 127.534 88.4062 128.395 88.253C131.943 87.6217 134.45 86.9709 136.723 86.0912C137.595 85.7533 139.065 85.2453 140.709 84.713C146.9 82.7082 147.288 82.4963 150.777 79.2029C152.275 77.7889 153.558 76.7296 154.126 76.4383L154.573 76.2089L153.827 75.5317C152.634 74.4482 152.027 73.612 150.809 71.3694C150.16 70.1751 149.393 69.0782 148.314 67.8045C147.802 67.2005 147.203 66.3246 146.982 65.8583C146.331 64.4831 145.976 63.6777 145.976 63.5729C145.976 63.5188 145.848 63.2001 145.691 62.8648C145.535 62.5293 145.275 61.9738 145.115 61.6304C144.779 60.9112 144.035 59.8526 143.866 59.8526C143.803 59.8526 143.339 60.261 142.835 60.7602ZM153.466 64.4403C153.34 64.6317 153.236 64.8424 153.236 64.9084C153.236 65.1121 153.967 65.7215 155.189 66.5356C157.203 67.8785 158.285 68.926 159.015 70.2411C159.41 70.9527 159.497 71.1182 159.713 71.5814C159.949 72.0843 160.425 73.8192 160.644 74.9729C160.71 75.3226 160.768 76.1884 160.773 76.8968C160.78 77.979 160.736 78.2424 160.497 78.5442C159.853 79.3568 160.434 80.0213 161.393 79.5694C162.123 79.2255 162.383 78.5001 162.379 76.8099C162.376 75.2983 162.176 74.031 161.744 72.7825C161.365 71.687 160.644 70.2139 160.084 69.3912C159.841 69.0336 159.642 68.7015 159.642 68.653C159.642 68.5124 158.235 66.9042 157.526 66.2342C156.727 65.4803 155.666 64.7721 154.755 64.3844C153.877 64.0111 153.746 64.0168 153.466 64.4403ZM141.803 66.1323C140.529 67.3123 137.533 68.7276 134.303 69.6758C133.95 69.7793 133.15 70.0606 132.523 70.3011C129.532 71.4494 124.905 72.4454 119.07 73.1966C111.041 74.2304 107.245 74.3936 96.7914 74.1545L91.0971 74.0242L89.5787 73.5102C87.6194 72.8467 86.6651 72.6339 84.4316 72.3627C82.57 72.1368 82.5558 72.132 80.5719 71.0554C79.9273 70.7057 79.3547 70.6466 79.0963 70.9031C78.607 71.3888 79.3 72.1897 80.8505 72.9299C81.8262 73.3957 82.2296 73.4959 84.041 73.7217C86.8188 74.0679 87.8676 74.2982 89.3888 74.8963C90.8243 75.4605 91.4496 75.5383 96.9338 75.8334C102.3 76.1224 110.331 75.8195 116.01 75.1138C119.021 74.7394 122.813 74.1719 124.11 73.9012C124.65 73.7884 125.123 73.7268 125.16 73.7641C125.198 73.8015 125.098 74.1684 124.938 74.5792C124.778 74.99 124.183 76.6205 123.616 78.2027C122.167 82.2409 121.048 84.3423 119.713 85.5274C118.971 86.1862 118.936 86.4484 119.529 86.8879C120.313 87.4686 120.94 86.8482 122.683 83.7648C123.629 82.0927 124.211 80.8552 125.256 78.2937C126.48 75.2962 126.667 74.6392 126.47 74.0457C126.378 73.7681 126.332 73.5116 126.368 73.4757C126.461 73.3835 129.351 72.8362 129.414 72.8988C129.442 72.9274 129.172 73.7713 128.814 74.7743C128.455 75.7773 128.029 76.9795 127.867 77.4458C127.705 77.9121 127.525 78.3573 127.468 78.435C127.411 78.5127 127.282 78.8307 127.182 79.1415C126.572 81.0345 125.265 83.195 123.983 84.4298C123.464 84.9291 122.976 85.4562 122.898 85.601C122.562 86.225 123.266 86.8113 124.034 86.5458C124.98 86.2182 127.427 82.481 128.789 79.2828C129.579 77.4276 130.344 75.1523 130.539 74.0779C130.618 73.6458 130.576 73.4542 130.335 73.1299C130.168 72.9062 130.032 72.6941 130.032 72.6582C130.032 72.6223 130.24 72.5492 130.495 72.4955C131.119 72.3641 137.131 70.3896 138.289 69.9356C139.746 69.3644 141.441 68.4512 142.05 67.9093C142.694 67.3359 143.414 66.2742 143.414 65.8977C143.414 65.7013 142.921 65.3544 142.657 65.3647C142.642 65.3653 142.258 65.7108 141.803 66.1323ZM161.804 66.4589L161.514 66.7062L161.927 67.978C162.154 68.6775 162.401 69.377 162.476 69.5324C162.551 69.6878 162.788 70.2284 163.004 70.7335C163.498 71.8943 163.576 71.9926 163.923 71.9025C164.788 71.6778 164.675 70.2065 163.621 67.978C163.25 67.1948 162.462 66.2116 162.204 66.2116C162.143 66.2116 161.963 66.3228 161.804 66.4589ZM66.9798 69.8234C66.1509 70.1805 64.6891 71.8232 63.959 73.2182C62.7012 75.6213 62.1254 77.914 62.0233 80.9252C61.9509 83.058 61.959 83.1432 62.2601 83.4421C62.6874 83.8663 63.0009 83.7661 63.3373 83.0982C63.5911 82.5943 63.6186 82.2881 63.5908 80.2757C63.5544 77.6405 63.6965 76.9108 64.5903 75.1409C65.3929 73.5517 66.4501 72.1994 67.3945 71.5538C68.3279 70.9158 68.5334 70.6637 68.5334 70.1564C68.5334 69.5715 67.8865 69.4328 66.9798 69.8234ZM137.297 70.7015C136.938 70.99 136.533 72.0939 136.3 73.4184C136.011 75.056 135.045 78.069 134.601 78.7176C134.547 78.7953 134.285 79.3676 134.017 79.9894C133.504 81.1802 133.138 81.8373 131.918 83.7507C131.167 84.9292 131.046 85.3574 131.318 85.8631C131.613 86.41 132.266 86.0733 133.116 84.9353C133.817 83.9973 135.213 81.4113 135.651 80.2392C135.761 79.9463 136.037 79.2617 136.266 78.7176C136.494 78.1736 136.89 76.9654 137.144 76.0327C137.399 75.1 137.729 73.9115 137.878 73.3913C138.564 70.9989 138.322 69.8775 137.297 70.7015ZM140.035 70.903C139.952 71.0042 139.776 71.6273 139.642 72.288C139.227 74.3474 138.748 75.8635 137.699 78.435C137.248 79.5407 135.699 82.5522 134.936 83.8048C134.561 84.4215 134.491 84.9946 134.758 85.2603C135.058 85.5582 135.427 85.4446 135.997 84.8782C136.498 84.3809 136.901 83.6546 138.051 81.1775C138.253 80.7429 138.67 79.8526 138.978 79.1992C140.366 76.254 140.99 74.0751 141.037 72.0113L141.065 70.8042L140.626 70.7617C140.384 70.7382 140.118 70.8018 140.035 70.903ZM60.6027 71.7804C59.9318 72.3408 59.5081 73.4435 59.5003 74.6495C59.4952 75.4307 59.5507 75.7253 59.7383 75.9119C59.9698 76.1419 59.9994 76.1404 60.2873 75.8819C60.7279 75.4865 61.102 74.6898 61.3542 73.6099C61.4757 73.09 61.6727 72.4773 61.7921 72.2481C62.031 71.7896 61.9554 71.6464 61.4024 71.511C61.1273 71.4436 60.9239 71.5123 60.6027 71.7804ZM143.254 72.5716C143.128 72.6451 142.942 72.9134 142.841 73.1678C142.654 73.6438 142.319 74.439 141.285 76.8669C140.957 77.6364 140.439 78.7045 140.133 79.24C139.247 80.7925 138.914 82.2453 139.321 82.7864C139.724 83.3225 140.477 82.6157 140.764 81.4329C140.816 81.2165 141.402 79.9556 142.065 78.6311C143.947 74.8737 144.554 73.2196 144.238 72.7166C144.046 72.4116 143.635 72.351 143.254 72.5716ZM132.694 72.8885C132.316 73.1671 131.473 75.3148 130.103 79.4948C129.656 80.8595 128.589 83.1389 128.054 83.8755C127.856 84.1475 127.424 84.6638 127.095 85.023C126.643 85.5155 126.472 85.8371 126.397 86.3314C126.234 87.4115 126.805 87.7265 127.769 87.0874C128.573 86.5543 130.929 81.7294 132.166 78.0817C132.417 77.3434 132.708 76.5485 132.813 76.3153C133.967 73.7525 134.053 72.7119 133.108 72.7119C133.012 72.7119 132.826 72.7915 132.694 72.8885ZM110.07 76.492C109.949 76.6279 109.803 76.8982 109.746 77.0925C109.503 77.9078 107.924 80.942 107.105 82.1683C106.033 83.7724 104.616 85.2216 103.535 85.8185C101.769 86.7939 101.66 87.9182 103.359 87.6445C104.273 87.4972 106.87 85.1263 108.309 83.1238C109.164 81.9355 110.224 80.0832 110.655 79.0292C111.042 78.0793 111.26 76.6025 111.044 76.3881C110.819 76.1648 110.311 76.2191 110.07 76.492ZM120.128 77.2692C119.829 77.8327 119.353 78.7388 119.069 79.2828C118.786 79.8269 118.392 80.5582 118.195 80.9079C117.998 81.2577 117.657 81.8618 117.438 82.2504C116.531 83.8579 116.045 84.533 115.515 84.9223C114.871 85.3945 114.639 86.0371 114.986 86.3823C115.297 86.6911 115.802 86.5205 116.68 85.8108C117.303 85.3064 118.928 83.1823 118.928 82.872C118.928 82.8213 119.315 82.0922 119.787 81.2522C120.722 79.5909 121.259 78.4011 121.567 77.3123C121.796 76.5018 121.675 76.2447 121.064 76.2447C120.722 76.2447 120.602 76.3759 120.128 77.2692ZM113.453 76.8955C113.11 77.2353 112.075 78.8509 111.368 80.1478C109.419 83.7242 109.006 84.3069 107.654 85.3913C106.689 86.1655 106.116 86.9672 106.116 87.5439C106.116 87.8769 106.448 87.9155 107.298 87.6812C107.825 87.536 109.277 86.2472 110.074 85.2179C110.405 84.7904 111.81 82.3894 111.81 82.2518C111.81 82.1816 113.403 79.6869 113.932 78.9296C114.475 78.1511 114.709 77.1645 114.419 76.8766C114.145 76.6043 113.738 76.6122 113.453 76.8955ZM116.54 77.3323C116.301 77.7057 115.524 79.0815 114.813 80.3899C114.102 81.6983 113.165 83.3043 112.731 83.9587C112.077 84.9443 111.383 86.2537 111.383 86.5014C111.383 86.649 112.435 86.5392 112.796 86.354C113.701 85.8896 114.401 84.8142 116.571 80.5546C117.72 78.299 117.933 77.7793 117.9 77.3045C117.864 76.7853 117.824 76.7357 117.417 76.6964C117.025 76.6586 116.925 76.7315 116.54 77.3323ZM143.841 77.4784C143.469 77.6196 142.706 78.5103 142.619 78.904C142.573 79.1124 142.508 79.3705 142.474 79.4774C142.372 79.7999 142.707 80.0601 143.226 80.0601C144.088 80.0601 145.018 78.6751 144.782 77.7413C144.689 77.3747 144.358 77.2822 143.841 77.4784ZM100.706 79.0165C99.4501 80.7632 98.6856 82.1314 98.7433 82.5303C98.7772 82.7653 98.8836 82.8124 99.3467 82.797C99.9963 82.7755 100.078 82.6923 101.51 80.5873C102.027 79.828 102.54 78.9454 102.651 78.6262C102.833 78.104 102.828 78.0188 102.612 77.781C102.133 77.2566 101.831 77.4527 100.706 79.0165ZM105.048 78.0635C104.495 78.4045 104.191 78.7556 103.259 80.1307C102.837 80.7525 102.159 81.6328 101.751 82.087C100.332 83.6696 100.146 84.8231 101.36 84.5208C101.86 84.3962 102.95 83.359 103.626 82.3637C103.932 81.9128 104.572 81.0669 105.048 80.484C106.307 78.9413 106.543 78.5749 106.543 78.1659C106.543 77.8361 106.489 77.7991 106.009 77.7996C105.716 77.7999 105.283 77.9186 105.048 78.0635ZM96.0064 78.4042C95.8096 78.5766 95.4965 78.9616 95.3109 79.2598L94.9734 79.802L95.2707 80.0971C95.5485 80.3728 95.6076 80.3793 96.1663 80.1963C96.6184 80.0482 96.8637 79.8453 97.1695 79.3666C97.6407 78.6291 97.6461 78.5971 97.3507 78.3037C97.035 77.9904 96.427 78.0358 96.0064 78.4042ZM144.268 86.5834C140.686 88.1811 133.58 90.1933 128.324 91.0981C122.008 92.1854 117.761 92.5422 111.17 92.5392C102.806 92.5355 97.6389 91.8657 89.6735 89.7531C85.4448 88.6317 83.3991 88.1405 83.3185 88.2277C83.1743 88.384 83.4483 91.2482 83.7657 92.9003C83.9244 93.7268 84.3035 95.4205 84.6081 96.6641C85.4364 100.046 86.1735 104.695 86.4678 108.393C86.6577 110.78 87.6786 116.999 88.2428 119.203C88.3521 119.631 88.5151 120.457 88.605 121.04C88.6949 121.623 88.8261 122.291 88.8964 122.524C89.0108 122.903 89.582 127.235 89.8093 129.448C89.97 131.013 90.7546 135.849 91.3106 138.704C91.8826 141.641 92.3135 143.96 92.6623 145.982C93.2811 149.568 93.7424 152.022 93.9504 152.835C94.0598 153.263 94.3458 154.439 94.5861 155.449C95.1682 157.897 95.6804 159.514 96.54 161.618C96.7589 162.154 96.9887 162.282 101.062 164.149C104.743 165.836 108.579 167.024 112.451 167.678C114.796 168.073 121.091 168.218 124.437 167.952C127.598 167.701 131.12 166.808 133.146 165.743C134.119 165.232 135.074 164.576 134.98 164.483C134.951 164.453 133.871 164.771 132.582 165.187C129.948 166.038 127.366 166.488 125.822 166.365C124.815 166.285 124.48 166.103 124.48 165.635C124.48 165.13 124.761 164.988 125.754 164.987C127.254 164.987 130.684 164.296 132.452 163.639C134.375 162.925 135.915 162.551 136.632 162.624L137.382 162.701L138.025 161.901C138.379 161.462 138.709 161.032 138.758 160.947C138.943 160.627 139.144 156.947 139.288 151.226C139.369 147.971 139.405 145.276 139.366 145.238C139.328 145.199 138.797 145.361 138.188 145.598C137.01 146.054 135.159 146.514 133.52 146.757C132.972 146.839 132.107 146.994 131.598 147.102C130.239 147.392 127.695 147.658 127.28 147.555C126.541 147.37 126.245 146.722 126.697 146.274C126.861 146.111 127.211 146.052 128.013 146.051C128.708 146.051 129.99 145.868 131.527 145.552C133.766 145.091 134.489 144.938 137.435 144.295C138.058 144.159 138.725 144.099 139.036 144.151L139.57 144.24L139.573 143.203C139.574 142.633 139.67 141.34 139.785 140.329C140.12 137.39 140.136 137.43 138.851 137.93C138.241 138.167 137.32 138.354 136.084 138.491C135.065 138.604 133.623 138.833 132.879 139C132.135 139.166 131.142 139.389 130.673 139.495C129.459 139.768 127.695 139.755 127.408 139.471C127.131 139.196 127.123 138.931 127.386 138.715C127.697 138.458 130.06 137.872 131.703 137.643C132.518 137.529 133.232 137.407 133.29 137.371C133.502 137.242 137.637 136.585 138.204 136.591C138.525 136.594 139.028 136.682 139.322 136.786C139.642 136.9 139.891 136.923 139.94 136.844C139.986 136.771 140.079 135.841 140.149 134.776C140.219 133.711 140.31 132.617 140.352 132.345C140.899 128.804 141.845 118.624 141.847 116.256L141.848 114.509L141.488 114.599C141.29 114.648 140.794 114.839 140.385 115.022C139.688 115.335 139.337 115.491 137.719 116.203C137.367 116.358 136.598 116.69 136.011 116.941C135.424 117.192 134.751 117.479 134.516 117.58C133.025 118.217 132.015 118.525 131.684 118.442C131.26 118.337 130.977 117.891 131.096 117.517C131.183 117.246 132.171 116.764 132.997 116.591C133.258 116.536 134.187 116.155 135.061 115.744C138.508 114.126 139.797 113.59 141.159 113.21L141.966 112.985L142.043 111.961C142.238 109.364 142.438 105.187 142.37 105.12C142.329 105.079 141.058 105.458 139.545 105.962C137.079 106.783 135.022 107.4 133.804 107.683C130.823 108.377 129.046 108.746 128.685 108.746C128.095 108.746 127.584 108.378 127.639 107.993C127.712 107.491 128.679 107.104 131.028 106.637C133.172 106.211 134.608 105.865 136.367 105.35C138.65 104.682 139.893 104.306 141.081 103.924L142.379 103.507L142.468 102.77C142.599 101.69 142.579 101.115 142.411 101.115C142.33 101.115 142.026 101.235 141.735 101.382C140.56 101.975 136.356 103.292 133.377 104.001C132.516 104.205 131.308 104.509 130.693 104.674C129.536 104.985 128.579 105.069 128.146 104.897C127.853 104.781 127.804 104.049 128.075 103.836C128.388 103.59 129.642 103.253 130.815 103.1C131.441 103.018 132.274 102.859 132.666 102.747C133.057 102.634 134.018 102.371 134.801 102.161C136.39 101.735 140.444 100.309 141.813 99.6946C142.303 99.4748 142.729 99.2116 142.759 99.11C143.193 97.6226 143.41 95.7456 143.146 95.7456C143.019 95.7456 142.368 96.0005 141.349 96.4499C141.036 96.5881 140.62 96.7482 140.424 96.8058C140.228 96.8635 140.004 96.958 139.926 97.0159C139.618 97.2437 135.15 98.6578 131.18 99.7838C130.206 100.06 129.309 100.339 129.187 100.404C129.064 100.469 128.671 100.566 128.313 100.619C127.586 100.727 126.615 100.423 126.615 100.087C126.615 99.5645 128.117 98.8711 129.747 98.6409C130.965 98.469 135.181 97.1919 137.648 96.2474C138.118 96.0675 138.951 95.7505 139.499 95.5429C140.047 95.3353 140.623 95.1081 140.78 95.038C140.937 94.9679 141.597 94.7066 142.246 94.4574C142.905 94.205 143.492 93.8866 143.571 93.7391C143.765 93.3793 144.125 91.4672 144.125 90.7976V90.2551L143.307 90.747C140.626 92.3576 135.112 94.5238 131.313 95.4584C130.961 95.5452 130.544 95.6704 130.388 95.7369C129.676 96.0392 127.184 96.7353 126.516 96.8184C125.426 96.9541 125.049 96.8239 125.049 96.3114C125.049 96.0304 125.158 95.8231 125.379 95.6791C125.82 95.3921 127.301 94.9175 128.298 94.7431C129.115 94.6002 129.936 94.3782 132.523 93.5993C134.538 92.9927 136.059 92.4708 136.217 92.3318C136.292 92.2663 136.437 92.2128 136.539 92.2128C136.642 92.2128 136.997 92.0906 137.329 91.9411C137.661 91.7917 138.412 91.4653 138.997 91.2156C139.953 90.8076 140.983 90.2877 142.409 89.4926C143.166 89.0707 144.811 87.9889 144.891 87.8603C145.033 87.6322 145.156 86.278 145.034 86.2878C144.965 86.2931 144.62 86.4263 144.268 86.5834ZM152.169 86.9867C151.519 87.2309 150.968 88.4194 151.158 89.1694C151.271 89.6169 151.761 89.6494 152.281 89.2437C152.696 88.9193 153.142 87.8829 153.071 87.4065C153.015 87.035 152.58 86.8322 152.169 86.9867ZM74.0247 89.2908C73.7361 89.5002 73.6158 89.0583 75.2041 93.6259C76.0137 95.954 76.3472 97.2111 76.9289 100.126C77.529 103.133 77.684 104.83 77.569 107.135C77.4783 108.953 77.4948 109.184 77.7572 109.773C77.9152 110.127 78.1768 110.488 78.3384 110.574C78.6006 110.713 78.6658 110.665 78.946 110.127C79.3335 109.382 79.4673 107.053 79.2281 105.213C78.6106 100.461 78.0443 97.8049 76.7723 93.6966C75.8719 90.7884 75.5473 89.9702 75.1043 89.4926C74.7063 89.0634 74.4133 89.0087 74.0247 89.2908ZM86.8443 91.5793C86.717 91.7056 86.6141 91.9158 86.6157 92.0462C86.6205 92.4515 87.4298 97.6893 87.8203 99.8436C88.3682 102.865 88.8922 106.251 89.4719 110.513C89.7911 112.86 89.9057 113.587 90.3958 116.377C91.1352 120.586 91.6022 123.636 91.8755 126.044C92.1675 128.616 92.394 129.412 92.9211 129.721C93.1285 129.843 93.2332 129.807 93.455 129.538C93.9461 128.944 93.7861 126.89 92.9529 123.089C92.2404 119.84 91.7218 116.414 91.0915 110.795C90.8742 108.857 90.3247 105.111 89.9619 103.094C89.8431 102.433 89.6196 101.193 89.465 100.338C89.3105 99.4832 89.1182 98.4022 89.0376 97.9359C88.8578 96.8951 88.2414 93.6015 87.9928 92.3541C87.8284 91.5284 87.7729 91.4312 87.4428 91.3926C87.2409 91.3689 86.9716 91.453 86.8443 91.5793ZM72.3179 96.7152C72.2173 96.877 72.614 99.1086 72.873 99.8372C73.0911 100.451 73.7214 101.104 74.1031 101.111C74.8562 101.125 74.3262 97.7006 73.4392 96.8201C73.1974 96.58 72.4459 96.5098 72.3179 96.7152ZM118.145 108.197C116.417 108.588 114.549 109.686 113.447 110.959C113.056 111.411 112.649 111.877 112.544 111.994C111.505 113.155 109.236 116.844 108.402 118.73C108.063 119.495 107.666 120.391 107.52 120.721C107.374 121.05 107.255 121.35 107.255 121.388C107.255 121.425 107.103 121.792 106.918 122.202C106.499 123.13 105.529 125.925 105.043 127.602C103.76 132.039 104.526 135.578 107.128 137.226C107.664 137.566 108.795 137.928 108.923 137.801C109.046 137.68 109.239 136.513 109.603 133.688C110.009 130.545 110.302 129.599 111.581 127.309C111.963 126.624 114.062 123.782 114.75 123.019C114.855 122.902 115.157 122.552 115.422 122.241C115.686 121.93 116.312 121.199 116.812 120.616C118.978 118.091 119.824 116.759 120.49 114.823C121.034 113.242 121.07 108.772 120.543 108.249C120.304 108.012 119.079 107.985 118.145 108.197ZM137.862 108.757C136.961 109.066 135.84 109.451 135.37 109.612C133.852 110.132 132.223 110.569 131.223 110.724C130.115 110.895 129.554 111.225 129.491 111.743C129.456 112.024 129.538 112.134 129.885 112.277C130.125 112.376 130.567 112.424 130.865 112.384C131.559 112.292 134.657 111.449 137.221 110.654C138.317 110.314 139.624 109.921 140.124 109.78C140.779 109.595 141.118 109.411 141.334 109.123L141.634 108.723L141.298 108.452C140.761 108.019 139.747 108.109 137.862 108.757ZM124.483 111.236C124.474 115.191 123.223 118.429 120.312 122.029C119.095 123.535 119.245 123.353 117.637 125.28C114.122 129.493 112.809 132.595 112.807 136.688L112.807 137.992L113.269 137.714C113.524 137.562 114.571 137.031 115.597 136.534C118.733 135.015 119.579 134.4 121.084 132.547C123.369 129.731 125.368 125.178 126.135 121.04C126.474 119.209 126.472 115.932 126.13 114.055C125.856 112.551 125.22 110.736 124.765 110.159L124.486 109.806L124.483 111.236ZM138.004 119.062C137.054 119.327 135.591 119.821 135.086 120.047C134.653 120.241 134.326 120.314 133.183 120.474C131.806 120.666 131.286 120.964 131.342 121.531C131.374 121.847 131.484 121.988 131.779 122.09C132.29 122.268 133.802 122.014 135.429 121.478C136.101 121.257 137.292 120.904 138.075 120.695C139.485 120.318 140.101 119.975 140.399 119.401C140.743 118.74 139.694 118.591 138.004 119.062ZM137.933 122.81C136.763 123.81 133.986 124.991 130.956 125.775C128.891 126.31 127.935 126.684 127.545 127.111C127.292 127.389 127.292 127.409 127.541 127.682C127.887 128.062 128.571 128.047 130.211 127.624C132.752 126.968 134.52 126.313 136.794 125.182C138.98 124.096 139.291 123.887 139.514 123.358C139.747 122.805 139.663 122.511 139.24 122.398C138.697 122.254 138.516 122.311 137.933 122.81ZM146.643 123.125C146.608 123.183 146.535 123.676 146.48 124.22C146.425 124.764 146.187 126.322 145.951 127.682C145.413 130.788 145.218 135.106 145.401 139.879C145.542 143.573 145.686 144.642 146.738 149.797C147.008 151.118 147.367 152.931 147.535 153.824C147.859 155.537 148.031 155.934 148.619 156.316C148.901 156.499 149.018 156.514 149.151 156.381C149.422 156.111 149.338 154.176 149.002 152.976C148.839 152.394 148.66 151.541 148.603 151.082L148.5 150.248L149.017 150.332C150.017 150.493 150.256 149.667 149.887 147.324C149.657 145.864 149.589 142.921 149.763 141.998C149.892 141.313 149.697 140.032 149.41 139.679C149.075 139.269 148.574 139.433 148.32 140.036C147.984 140.835 147.919 143.111 148.168 145.329C148.425 147.619 148.459 148.878 148.264 148.878C148.191 148.878 148.059 148.513 147.97 148.066C147.881 147.619 147.751 147.063 147.682 146.829C147.556 146.404 147.416 145.415 147.092 142.661C146.637 138.781 146.989 130.571 147.78 126.635C148.058 125.25 147.966 124.157 147.515 123.5C147.21 123.056 146.789 122.874 146.643 123.125ZM110.113 126.813C109.926 127.159 109.915 127.399 110.086 127.399C110.226 127.399 110.441 126.699 110.334 126.593C110.297 126.557 110.198 126.656 110.113 126.813ZM137.008 128.032C136.655 128.132 135.79 128.472 135.086 128.786C133.724 129.393 132.072 129.853 130.675 130.014C129.037 130.204 128.14 130.714 128.21 131.419C128.249 131.816 128.3 131.854 128.848 131.893C129.586 131.947 131.365 131.536 133.876 130.732C134.933 130.393 136.022 130.069 136.296 130.011C137.072 129.848 138.187 129.309 138.517 128.937C139.012 128.379 139.043 128.115 138.633 127.96C138.173 127.786 137.809 127.802 137.008 128.032ZM138.573 131.733C138.456 131.776 138.012 131.97 137.587 132.164C136.406 132.705 132.914 133.58 130.722 133.884C128.921 134.134 127.855 134.862 128.406 135.466C128.73 135.822 129.431 135.816 131.241 135.442C135.668 134.528 138.668 133.565 139.776 132.701C140.049 132.488 140.049 132.481 139.761 132.097C139.478 131.719 139.006 131.575 138.573 131.733ZM92.6731 133.98C92.2446 134.406 92.5358 135.03 93.1627 135.03C93.6667 135.03 94.0836 134.409 93.8536 134.001C93.6807 133.695 92.9735 133.682 92.6731 133.98ZM93.3001 137.936C93.1193 138.408 93.1238 139.078 93.3123 139.694C93.4661 140.197 93.6988 142.043 94.0873 145.84C94.45 149.386 94.8639 152.761 95.3045 155.763C95.8405 159.416 96.0007 159.799 97.5177 161.054C98.8448 162.152 101.102 163.673 102.161 164.181C103.991 165.061 104.869 165.412 105.237 165.412C106.294 165.412 106.201 164.245 105.119 163.928C104.592 163.773 102.434 162.741 101.777 162.329C97.8488 159.869 97.3574 159.282 97.0113 156.635C96.9261 155.983 96.7318 154.655 96.5796 153.683C96.263 151.662 95.9691 149.168 95.5761 145.165C95.4251 143.628 95.2369 141.975 95.1578 141.491C95.0788 141.007 95.0132 140.326 95.0122 139.976C95.0097 139.09 94.7639 138.304 94.3661 137.909C93.9173 137.463 93.4769 137.475 93.3001 137.936ZM136.452 140.398C135.873 140.625 135.2 140.853 134.957 140.904C134.715 140.956 134.452 141.047 134.374 141.107C134.211 141.232 131.169 142.125 130.103 142.361C129.712 142.448 128.911 142.584 128.324 142.664C127.024 142.84 126.758 142.915 126.437 143.194C125.85 143.706 126.355 144.357 127.338 144.356C128.437 144.356 131.076 143.82 132.95 143.216C133.42 143.064 134.464 142.743 135.271 142.502C137.769 141.754 138.758 141.147 138.439 140.556C138.287 140.273 137.857 139.971 137.622 139.981C137.558 139.983 137.032 140.171 136.452 140.398ZM85.53 146.959C85.4209 147.241 85.8523 150.011 86.2075 151.308C86.6451 152.905 87.3805 153.445 87.7653 152.45C88.0612 151.685 87.4738 148.714 86.7587 147.359C86.4957 146.861 86.3707 146.759 86.0246 146.759C85.7951 146.759 85.5726 146.849 85.53 146.959ZM136.652 148.407C136.495 148.441 135.726 148.628 134.943 148.823C132.845 149.344 130.901 149.698 129.195 149.87C126.703 150.12 126.553 150.147 126.077 150.435C125.553 150.751 125.476 151.195 125.904 151.422C126.432 151.703 127.927 151.738 129.391 151.504C134.408 150.705 137.504 149.976 138.204 149.429C139.115 148.718 138.151 148.084 136.652 148.407ZM135.797 152.492C135.484 152.603 135.1 152.753 134.943 152.824C133.942 153.282 127.986 154.74 125.346 155.175C123.876 155.417 123.29 155.653 123.05 156.098C122.748 156.658 122.962 156.792 124.155 156.791C126.023 156.79 128.616 156.277 132.381 155.164C133.086 154.956 134.014 154.695 134.445 154.586C136.651 154.024 137.435 153.58 137.435 152.892C137.435 152.294 136.795 152.138 135.797 152.492ZM135.797 156.031C135.093 156.139 133.587 156.49 132.452 156.811C128.121 158.035 127.853 158.086 125.233 158.184C123.011 158.267 122.764 158.302 122.569 158.558C122.311 158.897 122.301 158.991 122.487 159.336C122.704 159.738 123.679 159.817 126.088 159.629C128.334 159.453 130.209 159.102 133.261 158.285C134.264 158.017 135.506 157.725 136.019 157.638C137.679 157.355 138.62 156.543 137.909 156.008C137.599 155.775 137.461 155.776 135.797 156.031ZM137.15 159.553C136.798 159.66 135.965 159.916 135.299 160.123C131.439 161.324 127.43 161.955 124.542 161.815C122.354 161.709 121.918 161.81 121.918 162.424C121.918 162.967 122.149 163.132 123.179 163.322C125.161 163.688 132.615 162.743 135.015 161.822C135.289 161.716 135.801 161.584 136.153 161.527C137.057 161.381 138.227 160.785 138.415 160.373C138.624 159.92 138.616 159.821 138.35 159.557C138.088 159.298 138.001 159.297 137.15 159.553ZM133.947 168.623C131.352 170.028 125.86 170.952 120.352 170.909C114.877 170.867 108.723 170.009 104.728 168.731C104.457 168.645 104.408 168.68 104.408 168.963C104.411 170.503 107.033 171.667 112.522 172.566C114.71 172.924 115.173 172.95 119.284 172.958C123.715 172.965 124.399 172.918 128.074 172.343C130.194 172.012 131.728 171.638 133.026 171.137C133.941 170.784 133.963 170.763 134.355 169.869C134.923 168.576 134.789 168.167 133.947 168.623ZM143.02 170.252C142.942 170.349 142.638 170.905 142.346 171.488C141.177 173.821 139.763 175.477 138.37 176.146C137.576 176.528 137.058 177.272 137.289 177.7C137.683 178.43 139.29 177.698 140.987 176.015C142.515 174.5 142.74 174.207 143.38 172.901C143.76 172.126 143.915 171.604 143.958 170.958L144.016 170.075H143.59C143.356 170.075 143.099 170.155 143.02 170.252ZM94.1104 170.876C94.0581 170.928 94.0154 171.176 94.0154 171.427C94.0154 172.118 94.8509 173.263 97.28 175.903C98.5418 177.275 100.112 178.173 102.913 179.126C104.8 179.768 106.652 180.506 107.539 180.97C108.413 181.427 108.979 181.489 109.255 181.159C109.552 180.804 109.248 180.23 108.5 179.732C107.85 179.299 107.491 179.164 104.763 178.333C101.315 177.282 98.5414 175.316 96.3994 172.405C96.0556 171.938 95.5657 171.381 95.311 171.169C94.873 170.803 94.3198 170.668 94.1104 170.876ZM143.173 175.288C142.384 175.856 141.968 176.418 142.019 176.85C142.107 177.604 143.463 177.316 144.339 176.357C145.247 175.362 145.287 175.26 144.847 175.026C144.366 174.77 143.761 174.865 143.173 175.288ZM95.1302 177.459C94.7032 177.8 94.7234 178.094 95.1984 178.448C96.3132 179.28 97.7374 179.819 98.0782 179.538C98.45 179.232 98.3151 178.754 97.7011 178.203C96.7611 177.36 95.6541 177.04 95.1302 177.459ZM119.176 180.451C118.461 180.704 118.216 180.925 118.216 181.316C118.216 181.768 118.985 182.006 120.423 182C121.556 181.995 122.487 181.71 122.487 181.367C122.487 180.975 122.133 180.664 121.462 180.466C120.571 180.204 119.888 180.199 119.176 180.451Z" fill="#D4B7AA"/>
</g>
<path d="M48.4252 234.84H45.5052V241H43.5452V227H45.5052V233.08H48.4652L52.8652 227H55.0052L50.0052 233.78L55.2452 241H52.9652L48.4252 234.84ZM61.3785 241.12C60.3252 241.12 59.3785 240.887 58.5385 240.42C57.6985 239.953 57.0385 239.313 56.5585 238.5C56.0918 237.673 55.8585 236.74 55.8585 235.7C55.8585 234.66 56.0918 233.733 56.5585 232.92C57.0385 232.093 57.6985 231.453 58.5385 231C59.3785 230.533 60.3252 230.3 61.3785 230.3C62.4318 230.3 63.3718 230.533 64.1985 231C65.0385 231.453 65.6918 232.093 66.1585 232.92C66.6385 233.733 66.8785 234.66 66.8785 235.7C66.8785 236.74 66.6385 237.673 66.1585 238.5C65.6918 239.313 65.0385 239.953 64.1985 240.42C63.3718 240.887 62.4318 241.12 61.3785 241.12ZM61.3785 239.44C62.0585 239.44 62.6652 239.287 63.1985 238.98C63.7452 238.66 64.1718 238.22 64.4785 237.66C64.7852 237.087 64.9385 236.433 64.9385 235.7C64.9385 234.967 64.7852 234.32 64.4785 233.76C64.1718 233.187 63.7452 232.747 63.1985 232.44C62.6652 232.133 62.0585 231.98 61.3785 231.98C60.6985 231.98 60.0852 232.133 59.5385 232.44C59.0052 232.747 58.5785 233.187 58.2585 233.76C57.9518 234.32 57.7985 234.967 57.7985 235.7C57.7985 236.433 57.9518 237.087 58.2585 237.66C58.5785 238.22 59.0052 238.66 59.5385 238.98C60.0852 239.287 60.6985 239.44 61.3785 239.44ZM83.031 235.68C83.031 237.32 82.4843 238.613 81.391 239.56C80.2977 240.507 78.7577 241.033 76.771 241.14V244.88H74.891V241.14C72.9043 241.033 71.3643 240.513 70.271 239.58C69.191 238.633 68.651 237.333 68.651 235.68C68.651 234.04 69.191 232.76 70.271 231.84C71.351 230.92 72.891 230.407 74.891 230.3V226.16H76.771V230.3C78.7577 230.407 80.2977 230.927 81.391 231.86C82.4843 232.78 83.031 234.053 83.031 235.68ZM70.551 235.68C70.551 236.813 70.911 237.7 71.631 238.34C72.3643 238.98 73.451 239.347 74.891 239.44V232C73.4377 232.093 72.351 232.453 71.631 233.08C70.911 233.707 70.551 234.573 70.551 235.68ZM76.771 239.46C79.6777 239.233 81.131 237.973 81.131 235.68C81.131 234.56 80.7644 233.693 80.031 233.08C79.2977 232.453 78.211 232.093 76.771 232V239.46ZM95.3248 235.76C95.3248 235.907 95.3114 236.1 95.2848 236.34H86.6848C86.8048 237.273 87.2114 238.027 87.9048 238.6C88.6114 239.16 89.4848 239.44 90.5248 239.44C91.7914 239.44 92.8114 239.013 93.5848 238.16L94.6448 239.4C94.1648 239.96 93.5648 240.387 92.8448 240.68C92.1381 240.973 91.3448 241.12 90.4648 241.12C89.3448 241.12 88.3514 240.893 87.4848 240.44C86.6181 239.973 85.9448 239.327 85.4648 238.5C84.9981 237.673 84.7648 236.74 84.7648 235.7C84.7648 234.673 84.9914 233.747 85.4448 232.92C85.9114 232.093 86.5448 231.453 87.3448 231C88.1581 230.533 89.0714 230.3 90.0848 230.3C91.0981 230.3 91.9981 230.533 92.7848 231C93.5848 231.453 94.2048 232.093 94.6448 232.92C95.0981 233.747 95.3248 234.693 95.3248 235.76ZM90.0848 231.92C89.1648 231.92 88.3914 232.2 87.7648 232.76C87.1514 233.32 86.7914 234.053 86.6848 234.96H93.4848C93.3781 234.067 93.0114 233.34 92.3848 232.78C91.7714 232.207 91.0048 231.92 90.0848 231.92ZM108.294 241.12C107.214 241.12 106.248 240.887 105.394 240.42C104.554 239.953 103.894 239.313 103.414 238.5C102.934 237.673 102.694 236.74 102.694 235.7C102.694 234.66 102.934 233.733 103.414 232.92C103.894 232.093 104.554 231.453 105.394 231C106.248 230.533 107.214 230.3 108.294 230.3C109.254 230.3 110.108 230.493 110.854 230.88C111.614 231.267 112.201 231.827 112.614 232.56L111.154 233.5C110.821 232.993 110.408 232.613 109.914 232.36C109.421 232.107 108.874 231.98 108.274 231.98C107.581 231.98 106.954 232.133 106.394 232.44C105.848 232.747 105.414 233.187 105.094 233.76C104.788 234.32 104.634 234.967 104.634 235.7C104.634 236.447 104.788 237.107 105.094 237.68C105.414 238.24 105.848 238.673 106.394 238.98C106.954 239.287 107.581 239.44 108.274 239.44C108.874 239.44 109.421 239.313 109.914 239.06C110.408 238.807 110.821 238.427 111.154 237.92L112.614 238.84C112.201 239.573 111.614 240.14 110.854 240.54C110.108 240.927 109.254 241.12 108.294 241.12ZM125.091 241.12C124.011 241.12 123.045 240.887 122.191 240.42C121.351 239.953 120.691 239.313 120.211 238.5C119.731 237.673 119.491 236.74 119.491 235.7C119.491 234.66 119.731 233.733 120.211 232.92C120.691 232.093 121.351 231.453 122.191 231C123.045 230.533 124.011 230.3 125.091 230.3C126.051 230.3 126.905 230.493 127.651 230.88C128.411 231.267 128.998 231.827 129.411 232.56L127.951 233.5C127.618 232.993 127.205 232.613 126.711 232.36C126.218 232.107 125.671 231.98 125.071 231.98C124.378 231.98 123.751 232.133 123.191 232.44C122.645 232.747 122.211 233.187 121.891 233.76C121.585 234.32 121.431 234.967 121.431 235.7C121.431 236.447 121.585 237.107 121.891 237.68C122.211 238.24 122.645 238.673 123.191 238.98C123.751 239.287 124.378 239.44 125.071 239.44C125.671 239.44 126.218 239.313 126.711 239.06C127.205 238.807 127.618 238.427 127.951 237.92L129.411 238.84C128.998 239.573 128.411 240.14 127.651 240.54C126.905 240.927 126.051 241.12 125.091 241.12ZM136.281 241.12C135.228 241.12 134.281 240.887 133.441 240.42C132.601 239.953 131.941 239.313 131.461 238.5C130.994 237.673 130.761 236.74 130.761 235.7C130.761 234.66 130.994 233.733 131.461 232.92C131.941 232.093 132.601 231.453 133.441 231C134.281 230.533 135.228 230.3 136.281 230.3C137.334 230.3 138.274 230.533 139.101 231C139.941 231.453 140.594 232.093 141.061 232.92C141.541 233.733 141.781 234.66 141.781 235.7C141.781 236.74 141.541 237.673 141.061 238.5C140.594 239.313 139.941 239.953 139.101 240.42C138.274 240.887 137.334 241.12 136.281 241.12ZM136.281 239.44C136.961 239.44 137.568 239.287 138.101 238.98C138.648 238.66 139.074 238.22 139.381 237.66C139.688 237.087 139.841 236.433 139.841 235.7C139.841 234.967 139.688 234.32 139.381 233.76C139.074 233.187 138.648 232.747 138.101 232.44C137.568 232.133 136.961 231.98 136.281 231.98C135.601 231.98 134.988 232.133 134.441 232.44C133.908 232.747 133.481 233.187 133.161 233.76C132.854 234.32 132.701 234.967 132.701 235.7C132.701 236.433 132.854 237.087 133.161 237.66C133.481 238.22 133.908 238.66 134.441 238.98C134.988 239.287 135.601 239.44 136.281 239.44ZM149.953 230.76C150.94 230.76 151.82 230.98 152.593 231.42C153.367 231.86 153.967 232.473 154.393 233.26C154.833 234.033 155.053 234.92 155.053 235.92C155.053 236.947 154.82 237.86 154.353 238.66C153.9 239.447 153.253 240.06 152.413 240.5C151.587 240.94 150.64 241.16 149.573 241.16C147.773 241.16 146.38 240.547 145.393 239.32C144.42 238.08 143.933 236.34 143.933 234.1C143.933 231.927 144.38 230.227 145.273 229C146.167 227.76 147.533 226.94 149.373 226.54L154.213 225.46L154.493 227.22L150.033 228.18C148.647 228.487 147.613 229.007 146.933 229.74C146.253 230.473 145.867 231.527 145.773 232.9C146.227 232.22 146.813 231.693 147.533 231.32C148.253 230.947 149.06 230.76 149.953 230.76ZM149.613 239.56C150.293 239.56 150.893 239.407 151.413 239.1C151.947 238.793 152.36 238.373 152.653 237.84C152.947 237.293 153.093 236.673 153.093 235.98C153.093 234.927 152.773 234.08 152.133 233.44C151.493 232.8 150.653 232.48 149.613 232.48C148.573 232.48 147.727 232.8 147.073 233.44C146.433 234.08 146.113 234.927 146.113 235.98C146.113 236.673 146.26 237.293 146.553 237.84C146.86 238.373 147.28 238.793 147.813 239.1C148.347 239.407 148.947 239.56 149.613 239.56ZM162.336 241.12C161.282 241.12 160.336 240.887 159.496 240.42C158.656 239.953 157.996 239.313 157.516 238.5C157.049 237.673 156.816 236.74 156.816 235.7C156.816 234.66 157.049 233.733 157.516 232.92C157.996 232.093 158.656 231.453 159.496 231C160.336 230.533 161.282 230.3 162.336 230.3C163.389 230.3 164.329 230.533 165.156 231C165.996 231.453 166.649 232.093 167.116 232.92C167.596 233.733 167.836 234.66 167.836 235.7C167.836 236.74 167.596 237.673 167.116 238.5C166.649 239.313 165.996 239.953 165.156 240.42C164.329 240.887 163.389 241.12 162.336 241.12ZM162.336 239.44C163.016 239.44 163.622 239.287 164.156 238.98C164.702 238.66 165.129 238.22 165.436 237.66C165.742 237.087 165.896 236.433 165.896 235.7C165.896 234.967 165.742 234.32 165.436 233.76C165.129 233.187 164.702 232.747 164.156 232.44C163.622 232.133 163.016 231.98 162.336 231.98C161.656 231.98 161.042 232.133 160.496 232.44C159.962 232.747 159.536 233.187 159.216 233.76C158.909 234.32 158.756 234.967 158.756 235.7C158.756 236.433 158.909 237.087 159.216 237.66C159.536 238.22 159.962 238.66 160.496 238.98C161.042 239.287 161.656 239.44 162.336 239.44ZM170.608 230.4H172.528V238.12L179.028 230.4H180.768V241H178.848V233.28L172.368 241H170.608V230.4ZM175.568 229.02C174.581 229.02 173.815 228.787 173.268 228.32C172.721 227.84 172.441 227.153 172.428 226.26H173.728C173.741 226.753 173.908 227.153 174.228 227.46C174.561 227.753 175.001 227.9 175.548 227.9C176.095 227.9 176.535 227.753 176.868 227.46C177.201 227.153 177.375 226.753 177.388 226.26H178.728C178.715 227.153 178.428 227.84 177.868 228.32C177.308 228.787 176.541 229.02 175.568 229.02Z" fill="#D4B7AA"/>
<defs>
<clipPath id="clip0_24_196612">
<rect width="105" height="142" fill="white" transform="translate(59.5 40)"/>
</clipPath>
</defs>
</svg>
