<svg width="224" height="320" viewBox="0 0 224 320" fill="none" xmlns="http://www.w3.org/2000/svg">
<rect width="224" height="320" rx="32" fill="#54372A"/>
<g clip-path="url(#clip0_24_196603)">
<path fill-rule="evenodd" clip-rule="evenodd" d="M78.4345 40.4328C77.4689 41.025 76.4208 42.0622 76.3178 42.5279C76.2255 42.9455 76.5706 43.7735 76.837 43.7735C77.128 43.7735 79.6716 41.4475 80.1435 40.7499C80.6998 39.9274 79.5934 39.7223 78.4345 40.4328ZM83.6534 42.4597C81.9384 42.8128 80.274 43.4683 79.3855 44.1409C78.5862 44.7458 78.3147 45.5845 78.6685 46.3554C78.9668 47.0056 79.416 46.7816 80.5481 45.418C80.8744 45.0249 82.1495 44.3329 83.3662 43.8885C84.1168 43.6142 84.4963 43.5785 86.7479 43.57C89.5489 43.5594 90.2001 43.4272 90.2001 42.8687C90.2001 42.1898 89.8623 42.0937 87.5118 42.1035C85.772 42.1109 85.003 42.1819 83.6534 42.4597ZM117.959 42.7498C117.112 42.7978 112.898 43.2346 109.997 43.5752C108.99 43.6934 107.341 43.8217 106.334 43.8603C104.116 43.9453 103.91 43.9822 103.804 44.3137C103.575 45.0286 104.16 45.3126 105.861 45.3126C107.021 45.3126 108.549 45.1868 115.141 44.5492C121.084 43.9741 120.819 44.0217 120.986 43.4991C121.035 43.348 121.005 43.0961 120.92 42.9392C120.76 42.6416 120.34 42.6148 117.959 42.7498ZM142.725 43.6685C142.516 43.8284 142.419 44.1577 142.46 44.5601C142.469 44.6464 142.714 44.756 143.005 44.8036C144.226 45.0034 146.14 46.0137 147.041 46.9347C147.657 47.5643 148.299 48.6507 148.544 49.4753C148.749 50.1663 149.118 50.2639 149.653 49.7688C149.936 49.5069 149.968 49.3776 149.896 48.7751C149.783 47.8316 149.245 46.9655 148.048 45.8019C146.949 44.7337 145.761 44.0541 144.384 43.706C143.364 43.4479 143.022 43.4402 142.725 43.6685ZM134.304 47.7037C131.94 47.7635 128.706 47.8811 127.118 47.9651C122.752 48.1961 120.556 48.1978 104.361 47.9826C88.0174 47.7654 86.4119 47.8035 83.5776 48.475C79.1083 49.5337 78.5593 50.1062 77.7932 54.5045C77.2875 57.4077 77.2169 57.6257 76.7818 57.6258C75.8794 57.6264 73.0527 58.4753 71.8119 59.1185C70.1246 59.9932 69.9052 60.1871 69.1129 61.5047C67.718 63.8242 66.8176 66.265 66.4327 68.7692C66.0753 71.0949 66.1148 78.2521 66.512 83.1226C67.01 89.2275 67.627 90.894 70.0506 92.6778C70.9114 93.3114 72.9761 94.0842 75.0988 94.5672C75.5115 94.6611 75.8756 94.8092 75.9078 94.8963C75.94 94.9835 76.0298 99.4622 76.1076 104.849C76.1907 110.622 76.3346 115.821 76.4579 117.512C76.73 121.245 76.7319 130.709 76.4618 137.101C76.2265 142.67 76.1956 149.402 76.3938 151.933C76.5834 154.355 76.9337 159.288 77.0298 160.888C77.0736 161.619 77.136 162.388 77.1685 162.596C77.222 162.94 77.1779 162.984 76.7037 163.064C71.864 163.88 70.4478 164.533 69.1339 166.555C68.4688 167.578 68.1857 168.963 68.133 171.452C68.0792 174 68.4336 176.291 69.0789 177.565C69.8337 179.054 71.7133 180.059 74.9118 180.683C77.1623 181.121 77.9154 181.172 84.423 181.32C87.4842 181.39 90.9716 181.519 92.1728 181.606C93.7435 181.721 99.9761 181.74 114.366 181.676C132.533 181.595 134.682 181.609 137.721 181.829C140.573 182.036 141.371 182.047 143.116 181.904C145.253 181.728 148.443 181.163 149.169 180.831C149.402 180.725 149.782 180.593 150.015 180.537C150.585 180.4 152.587 179.417 153.113 179.016C154.196 178.189 155.007 177.206 155.455 176.181C155.694 175.635 155.748 175.222 155.748 173.97C155.746 171.087 155.001 168.859 153.522 167.32C152.27 166.017 150.712 165.352 148.254 165.074C147.517 164.99 146.892 164.899 146.864 164.872C146.836 164.844 146.884 164.203 146.972 163.449C147.059 162.694 147.124 160.566 147.116 158.719C147.107 156.466 147.175 154.739 147.324 153.472C147.49 152.059 147.546 150.189 147.547 146.051C147.549 140.841 147.767 135.732 148.112 132.833C148.262 131.569 148.574 127.138 148.886 121.85C149.001 119.887 149.097 116.519 149.1 114.364C149.102 112.209 149.15 110.383 149.207 110.305C149.36 110.095 150.311 109.518 151.404 108.971C151.935 108.705 152.552 108.282 152.774 108.032C153.64 107.054 153.834 105.058 153.202 103.618C152.739 102.563 150.918 100.933 149.483 100.289L149.092 100.114L149.131 97.8057L149.169 95.4972L150.085 95.1979C152.586 94.3807 154.273 92.8333 155.583 90.1574C156.956 87.3521 157.623 84.1636 158.186 77.7044C158.387 75.3957 158.606 72.9797 158.671 72.3353C158.969 69.395 157.796 65.6064 155.775 62.9854C154.451 61.2685 152.51 59.6313 150.578 58.6016C149.017 57.7697 149.149 57.9777 149.059 56.2013C148.927 53.5675 148.22 51.7106 146.874 50.4613C146.132 49.7724 144.037 48.376 143.264 48.0553C142.589 47.7752 140.855 47.5463 139.613 47.5732C139.056 47.5853 136.667 47.644 134.304 47.7037ZM128.456 50.7776C127.139 50.8354 124.793 50.9481 123.243 51.0281C121.322 51.1272 118.808 51.1293 115.352 51.0345C112.562 50.958 104.826 50.8829 98.1613 50.8675L86.0434 50.8395L84.5639 51.1683C83.7502 51.3492 82.68 51.664 82.1857 51.8679C81.4137 52.1865 81.2519 52.3175 81.0372 52.7984C80.82 53.2846 80.428 55.5735 80.3063 57.066L80.2663 57.5557H87.382C94.9993 57.5557 94.3767 57.5178 101.372 58.4087C103.954 58.7375 107.543 58.8886 109.578 58.7544C111.88 58.6026 113.694 58.2748 118.593 57.1255C122.512 56.206 123.109 56.1559 130.077 56.1625C136.061 56.1683 136.731 56.1943 140.151 56.553C142.166 56.7645 144.354 57.0232 145.013 57.1281C145.671 57.2329 146.265 57.285 146.332 57.244C146.554 57.1087 146.266 55.2174 145.882 54.2835C145.447 53.224 144.435 52.1161 143.113 51.2509L142.271 50.6996L136.561 50.6861C133.421 50.6789 129.774 50.72 128.456 50.7776ZM123.66 51.5539C123.17 51.668 122.552 52.2401 122.649 52.4903C122.834 52.9702 124.209 53.1951 126.413 53.1059C128.175 53.0346 128.65 53.0642 129.865 53.322C131.125 53.5892 131.736 53.6217 135.642 53.6294C139.964 53.6378 140.017 53.6416 140.662 53.9722C141.562 54.4334 142.054 54.3143 142.054 53.6353C142.054 53.0683 141.71 52.6676 140.949 52.3457C140.518 52.1636 139.619 52.124 135.501 52.1059C131.244 52.0872 130.464 52.0508 129.795 51.8403C129.215 51.6579 128.382 51.5829 126.483 51.5419C125.088 51.512 123.818 51.5173 123.66 51.5539ZM97.1045 52.1724C96.3683 52.2325 95.4806 52.3571 95.1319 52.449C94.7693 52.5447 92.7786 52.6622 90.482 52.7235C86.8889 52.8197 86.3776 52.8626 85.6254 53.1324C84.168 53.655 83.4641 54.688 84.423 54.8972C84.9183 55.0052 85.4746 54.9083 86.5176 54.5322C87.1757 54.2947 87.7315 54.2536 90.8152 54.2138C93.6666 54.177 94.5765 54.117 95.4841 53.9054C96.4331 53.6841 97.1905 53.6423 100.275 53.6403C103.439 53.6382 104.398 53.6926 107.305 54.0385C111.318 54.5161 111.806 54.4808 111.87 53.7079C111.933 52.9422 111.648 52.8482 108.877 52.7203C107.556 52.6593 105.587 52.5143 104.502 52.3982C101.986 52.1287 98.8192 52.032 97.1045 52.1724ZM116.092 52.6032C115.598 52.8819 115.886 53.9877 116.453 53.9877C116.874 53.9877 117.395 53.6116 117.395 53.3069C117.395 52.7454 116.6 52.3164 116.092 52.6032ZM156.426 55.9279C156.426 56.2497 156.627 56.5059 157.441 57.2221C160.208 59.6573 160.126 59.5464 160.659 61.5838C160.917 62.5733 161.911 63.2176 162.128 62.5371C162.254 62.1429 161.951 60.4776 161.606 59.6652C161.242 58.8083 160.282 57.5248 159.56 56.93C158.887 56.3751 157.194 55.5269 156.759 55.5269C156.486 55.5269 156.426 55.5995 156.426 55.9279ZM154.188 57.333C153.88 57.5268 154.092 58.0357 154.854 58.9299C155.236 59.3778 155.819 60.1346 156.15 60.6117C156.92 61.7198 157.586 62.2431 158.229 62.2431H158.718L158.641 61.6754C158.584 61.254 158.351 60.8488 157.736 60.1013C157.28 59.5478 156.666 58.7639 156.372 58.3594C156.078 57.9549 155.702 57.53 155.537 57.415C155.205 57.1846 154.492 57.1413 154.188 57.333ZM65.3019 58.3772C63.9978 59.934 63.5915 60.9033 64.0269 61.4187C64.5137 61.995 64.6515 61.9985 64.9899 61.4436C65.1676 61.1523 65.5896 60.5523 65.9277 60.1105C66.6199 59.206 67.1671 58.0229 67.0424 57.7003C66.9901 57.5651 66.7885 57.4888 66.4971 57.494C66.1062 57.501 65.9215 57.6376 65.3019 58.3772ZM126.836 58.8902C124.87 59.0526 119.86 59.7684 117.735 60.1902C116.341 60.4668 115.902 60.6165 115.319 61.015C114.756 61.3999 114.419 61.5197 113.711 61.5869C112.222 61.7282 104.962 61.4413 102.459 61.1423C95.2909 60.2861 88.0224 59.9527 81.135 60.1641C77.73 60.2687 77.3037 60.3102 75.8155 60.6835C74.0133 61.1355 72.7122 61.7252 71.8904 62.4625C70.7995 63.4411 69.7537 66.2576 69.3482 69.3091C68.6646 74.4514 69.4055 88.146 70.4119 88.9756C70.5232 89.0673 70.6142 89.2167 70.6142 89.3075C70.6142 89.7952 72.394 90.9434 73.4515 91.1377C74.0319 91.2445 74.0415 91.2352 74.972 89.6677C75.5472 88.6987 76.0543 88.358 76.5045 88.6377C77.0316 88.9654 76.87 89.6334 75.9679 90.857C75.7409 91.1649 75.5531 91.4819 75.5506 91.5615C75.5431 91.7928 77.0601 92.0196 77.4232 91.8415C77.5919 91.7587 77.9888 91.239 78.3053 90.6867C79.0597 89.3702 79.1724 89.2479 79.6322 89.2479C80.5288 89.2479 80.53 90.0772 79.6353 91.4132C79.3274 91.873 79.1215 92.29 79.1778 92.3398C79.234 92.3896 79.7353 92.4699 80.2918 92.5183C81.2794 92.6041 81.3104 92.5969 81.5768 92.2214C81.727 92.0097 81.9852 91.571 82.1506 91.2464C82.4913 90.578 82.8914 90.3064 83.3627 90.4238C83.8334 90.5412 83.8787 91.0826 83.4877 91.9206C83.3046 92.3129 83.1548 92.6906 83.1548 92.7598C83.1548 92.8292 83.6318 92.8859 84.2146 92.8859C85.2397 92.8859 85.2796 92.8733 85.4281 92.5011C85.9747 91.131 86.2166 90.6656 86.5917 90.2624C86.8243 90.0122 87.1191 89.8076 87.2469 89.8076C87.4897 89.8076 87.9456 90.2257 87.9456 90.4483C87.9456 90.5191 87.686 91.0929 87.3686 91.7233C87.0512 92.3536 86.8331 92.9361 86.8838 93.0176C86.9345 93.099 87.4189 93.1657 87.9603 93.1657C89.2424 93.1657 89.4446 92.9676 90.0391 91.1295C90.5872 89.434 90.9712 88.8841 91.5123 89.0189C91.7576 89.08 91.9184 89.2374 91.9784 89.4749C92.1076 89.986 91.799 91.2261 91.3154 92.139C91.0895 92.5655 90.9047 92.9708 90.9047 93.0401C90.9047 93.1092 91.4129 93.1657 92.034 93.1657C93.3491 93.1657 93.2472 93.2631 94.3753 90.927C94.7284 90.1959 95.1427 89.3382 95.2959 89.021C95.5403 88.515 96.0166 88.1286 96.3958 88.1286C96.4636 88.1286 96.5881 88.3365 96.6725 88.5904C96.8775 89.2071 96.6263 90.0203 95.7813 91.4749C95.4241 92.0899 95.1319 92.7246 95.1319 92.8852C95.1319 93.16 95.1972 93.1751 96.2239 93.1366L97.3159 93.0958L97.7052 92.3455C97.9194 91.9329 98.2139 91.2403 98.3597 90.8064C99.1043 88.5916 99.7541 87.7088 100.64 87.7088C100.966 87.7088 101.19 87.7849 101.24 87.9129C101.283 88.0253 100.987 88.7651 100.582 89.557C99.6275 91.4244 99.0772 92.6617 99.0772 92.9419C99.0772 93.1238 99.246 93.1657 99.9763 93.1657C100.825 93.1657 100.895 93.1404 101.224 92.711C101.556 92.2782 102.459 90.3887 102.459 90.1265C102.459 89.8426 103.328 88.8598 103.801 88.609C104.289 88.3501 104.319 88.3491 104.496 88.5883C104.771 88.9591 104.587 89.543 103.617 91.3813C103.147 92.2718 102.8 93.0376 102.845 93.083C102.891 93.1285 103.39 93.1657 103.955 93.1657H104.981L106.027 91.3118C106.602 90.292 107.113 89.2435 107.162 88.9814C107.275 88.3808 107.484 88.128 107.866 88.1307C108.892 88.1381 108.839 89.1195 107.688 91.3607C107.218 92.2782 106.899 93.0535 106.974 93.0995C107.138 93.2 108.355 93.0373 108.677 92.872C108.803 92.8073 109.004 92.5162 109.123 92.2253C109.242 91.9346 109.597 91.357 109.911 90.942C110.226 90.527 110.589 89.8973 110.719 89.5427C111.203 88.2238 111.458 87.7288 111.728 87.5854C112.107 87.384 112.463 87.7877 112.563 88.5317C112.651 89.1826 112.355 89.8321 111.199 91.5246C110.809 92.0948 110.491 92.6342 110.491 92.7234C110.491 92.9623 111.915 92.9298 112.27 92.6829C112.43 92.5712 112.8 91.9889 113.091 91.3886C113.382 90.7885 113.745 90.0455 113.898 89.7377C114.205 89.12 115.075 88.3758 115.416 88.4397C115.728 88.4984 115.768 89.3043 115.493 89.9883C115.366 90.3038 115.012 90.9858 114.708 91.5035C114.403 92.0213 114.154 92.5442 114.154 92.6654C114.154 92.9284 114.778 92.956 115.634 92.7311C115.944 92.6497 116.37 92.5499 116.58 92.5094C116.996 92.4293 117.028 92.3652 117.24 91.1777C117.511 89.6624 118.212 88.7585 119.041 88.8529C119.368 88.8902 119.445 88.9723 119.475 89.3179C119.495 89.5488 119.417 89.8951 119.302 90.0875C118.787 90.9491 118.528 91.5906 118.525 92.0114L118.522 92.4661H119.636H120.75L121.135 91.8015C121.347 91.4359 121.608 91.0365 121.714 90.9141C121.82 90.7915 122.102 90.1619 122.339 89.5149C122.828 88.1833 123.071 87.8487 123.55 87.8487C123.971 87.8487 124.214 88.4178 124.087 89.1066C124.037 89.3767 123.649 90.2432 123.224 91.0319L122.452 92.4661H123.378C124.438 92.4661 124.34 92.5823 125.084 90.4529C125.502 89.2549 126.051 88.5122 126.678 88.2952C127.648 87.9595 127.617 88.6479 126.566 90.8453C126.172 91.6688 125.849 92.3706 125.849 92.4046C125.849 92.4384 126.323 92.4661 126.902 92.4661H127.955L128.327 91.6616C129.882 88.307 130.275 87.6671 131.312 86.807C131.625 86.5469 131.635 86.5469 131.836 86.8106C131.948 86.9583 132.042 87.2507 132.045 87.4606C132.05 87.8633 131.13 89.7104 130.378 90.8113C130.131 91.1709 129.836 91.6903 129.72 91.9656L129.509 92.4661H130.678H131.847L132.716 90.6821C133.264 89.5574 133.833 88.6209 134.255 88.1481L134.924 87.3983L135.178 87.7089C135.682 88.3277 135.546 88.7667 134.153 91.0223C133.876 91.47 133.613 91.9781 133.567 92.1513C133.486 92.4591 133.511 92.4661 134.658 92.4661H135.83L136.051 91.8715C136.172 91.5445 136.375 90.962 136.5 90.5772C136.89 89.3869 137.412 88.4092 137.937 87.8883L138.439 87.3891L138.697 87.7045C139.119 88.2223 139.009 88.8212 138.193 90.4543C137.239 92.364 137.187 92.6385 137.756 92.7615C137.988 92.8117 138.412 92.8603 138.697 92.8694C139.277 92.8878 139.265 92.9093 140.146 90.2551C140.6 88.8874 141.042 88.0589 141.603 87.5252C141.975 87.1711 142.026 87.1579 142.203 87.3693C142.588 87.8294 142.423 88.964 141.777 90.3105C141.046 91.8334 140.762 92.5958 140.865 92.7608C140.908 92.8296 141.253 92.8859 141.633 92.8859C142.319 92.8859 142.323 92.8829 142.42 92.3612C142.473 92.0727 142.661 91.6644 142.838 91.4539C143.148 91.0841 143.744 89.6969 143.744 89.3452C143.744 89.0074 144.438 88.167 144.86 87.9934C145.947 87.5465 145.973 88.2979 144.944 90.4254C144.184 91.9985 143.99 92.5674 144.176 92.6813C144.415 92.8281 144.842 92.2616 145.403 91.0512C145.711 90.3886 146.029 89.8058 146.109 89.7563C146.19 89.7067 146.301 89.3989 146.355 89.0723C146.479 88.3236 146.639 88.1286 147.126 88.1286C148.092 88.1286 148.051 89.1717 147.003 91.2131C146.606 91.9866 146.281 92.6883 146.281 92.7726C146.281 92.9717 147.705 92.8292 148.791 92.5215C150.709 91.9785 152.443 90.5643 153.33 88.8203C153.857 87.7831 154.4 86.0663 154.522 85.0503C154.573 84.627 154.704 83.777 154.814 83.1613C155.212 80.9276 155.581 77.3381 155.581 75.701C155.581 74.701 155.673 73.5844 155.809 72.9292C156.109 71.489 155.992 70.2901 155.374 68.4542C154.828 66.835 154.124 65.3791 153.323 64.2133C151.548 61.6321 147.938 60.1682 141.752 59.5219C140.639 59.4056 138.873 59.2086 137.826 59.0842C135.61 58.8208 129.072 58.7052 126.836 58.8902ZM74.0262 63.7472C73.578 64.3124 73.011 65.3509 72.4792 66.5807C70.9467 70.1247 70.2332 76.2263 71.0158 79.0949C71.2408 79.9202 71.3187 80.6071 71.3187 81.7667C71.3187 83.4945 71.4127 83.7047 72.2604 83.8731C72.6442 83.9492 72.701 83.9162 72.7899 83.5645C72.9804 82.8106 72.8765 81.1055 72.5066 78.922C72.0751 76.3738 72.0925 74.503 72.5753 71.4779C73.0506 68.5009 73.7426 66.5566 74.8432 65.1053C75.0792 64.7941 75.3085 64.3191 75.3525 64.0496C75.4228 63.6192 75.3873 63.5393 75.0599 63.3911C74.5289 63.1509 74.488 63.1649 74.0262 63.7472ZM150.113 63.8102C149.712 64.2084 149.902 64.7555 150.927 66.1609C152.268 67.9986 152.974 70.788 152.871 73.8384C152.817 75.4247 152.759 75.7531 152.302 77.0466C151.38 79.653 151.285 81.2724 152.053 81.2724C152.335 81.2724 152.917 80.5209 153.084 79.9432C153.128 79.7892 153.324 79.1281 153.52 78.474C154.123 76.4629 154.358 74.4802 154.269 72.1775C154.172 69.6546 153.959 68.7941 152.903 66.6501C151.7 64.2081 150.719 63.209 150.113 63.8102ZM81.2526 66.1691C80.8651 66.2327 79.9502 66.5872 79.2195 66.9573C77.3919 67.8826 75.4391 69.763 74.5971 71.4079C73.8305 72.9054 73.4619 74.1582 73.3071 75.7911C73.0823 78.1643 73.5132 80.4295 74.434 81.7137C74.5806 81.918 74.7005 82.1273 74.7005 82.179C74.7005 82.3467 76.201 84.2572 77.0855 85.2153C78.0163 86.2239 79.6158 87.4832 80.5919 87.976C81.4278 88.3982 82.7421 88.7851 84.0003 88.9794C87.2924 89.4879 90.8331 88.242 93.241 85.7278C94.6166 84.2915 95.3026 83.1542 96.01 81.1374C96.3535 80.1581 96.4421 79.6411 96.5026 78.2641C96.5726 76.667 96.3883 74.6899 96.1381 74.354C96.0776 74.2728 95.9414 73.923 95.8354 73.5767C95.48 72.4148 94.4017 70.3653 93.9291 69.953C93.665 69.7229 92.9649 69.388 92.2919 69.17C91.0347 68.763 90.3785 68.3982 89.3298 67.5234C88.5055 66.836 87.0271 66.3846 84.9039 66.1725C83.1968 66.0019 82.28 66.0011 81.2526 66.1691ZM82.2188 68.9631C81.1843 69.1479 79.5317 69.9414 78.7584 70.6245C77.7825 71.4869 76.8995 72.8987 76.5183 74.2064C76.2616 75.0872 76.1913 75.6743 76.1886 76.9607C76.1868 77.86 76.2362 78.6465 76.2986 78.7083C76.3609 78.7702 77.1572 78.066 78.0681 77.1433C81.5041 73.6628 84.0169 71.4631 86.3579 69.886C86.6859 69.6651 86.9215 69.4316 86.8812 69.3669C86.6509 68.9967 83.5395 68.7272 82.2188 68.9631ZM89.4252 71.417C89.2702 71.5305 88.4343 72.0878 87.5676 72.6555C83.9116 75.0502 80.2108 78.6017 78.4897 81.3667L78.193 81.8437L78.5908 82.4137C79.3053 83.4376 81.0062 84.8638 82.226 85.4618C83.6556 86.1627 84.6036 86.3661 85.999 86.2711C87.0017 86.2028 87.2572 86.1149 89.0781 85.212C91.2586 84.1307 91.5748 83.8428 92.432 82.1566C93.1845 80.6761 93.4976 79.2119 93.4887 77.2147C93.4823 75.7679 93.421 75.2723 93.1342 74.3463C92.6102 72.6546 92.2114 72.1213 91.0953 71.6187C90.0482 71.1473 89.8294 71.1208 89.4252 71.417ZM139.235 73.2415C138.964 73.2704 138.045 73.3625 137.192 73.4462C136.222 73.5413 135.423 73.7013 135.055 73.8743C133.924 74.4059 133.309 75.6498 133.297 77.4292C133.283 79.3726 133.892 80.6258 135.149 81.2422L135.924 81.6222H140.644C145.279 81.6222 145.381 81.6162 146.252 81.2881C147.495 80.8196 148.285 79.915 148.613 78.5838C149.299 75.8053 147.808 74.1857 143.954 73.5212C142.754 73.3144 140.053 73.1542 139.235 73.2415ZM108.627 74.1472C107.633 74.8005 107.225 75.7188 107.139 77.4947C107.063 79.0594 107.117 79.1954 108.42 80.7512C109.789 82.3839 111.09 82.8149 112.155 81.9873C113.044 81.2954 113.439 81.2398 116.728 81.3443C119.229 81.4238 119.905 81.4016 120.847 81.2085C123.155 80.7357 124.607 79.6737 124.794 78.3223C125 76.8354 124.455 74.9957 123.693 74.6043C123.46 74.4844 122.851 74.2574 122.34 74.0999C121.477 73.8339 120.976 73.8097 115.352 73.7613L109.293 73.7092L108.627 74.1472ZM161.993 74.5912C161.951 74.7644 161.894 76.1023 161.866 77.5645C161.823 79.7155 161.745 80.557 161.455 81.972C160.79 85.2105 159.329 89.0134 157.47 92.3465C157.271 92.704 157.073 93.2549 157.03 93.5708C156.96 94.0913 156.981 94.1452 157.26 94.1452C157.659 94.1452 158.383 93.7701 158.711 93.3932C159.733 92.218 162.022 86.0299 162.858 82.1819C163.301 80.1428 163.466 76.7385 163.195 75.2295L163.023 74.2763H162.545C162.166 74.2763 162.052 74.3413 161.993 74.5912ZM62.1177 74.805C61.993 74.9417 61.8145 75.5142 61.7208 76.0773C61.19 79.2694 63.3536 90.2285 64.9598 92.4826C65.6598 93.4649 67.3601 94.081 67.4903 93.3995C67.5839 92.9097 67.3799 92.5247 66.8079 92.112C65.8685 91.4341 64.931 89.3589 64.3447 86.6594C63.7911 84.1106 63.3134 79.345 63.2961 76.2003L63.2871 74.5562H62.8158C62.543 74.5562 62.2489 74.661 62.1177 74.805ZM138.601 76.0346C138.446 76.071 137.952 76.1718 137.502 76.2586C136.587 76.4352 135.995 76.817 135.995 77.2294C135.995 77.3801 136.082 77.7106 136.188 77.9637C136.366 78.3864 136.472 78.4459 137.492 78.6938C138.39 78.9122 139.112 78.9637 141.279 78.9637C143.892 78.9637 143.975 78.9547 144.767 78.5863C145.559 78.2178 145.969 77.7044 145.807 77.2852C145.709 77.0314 144.242 76.5299 142.915 76.2961C141.656 76.0745 139.093 75.9192 138.601 76.0346ZM110.307 76.4009C110.001 76.6309 109.813 77.4053 109.921 77.9843C109.996 78.3836 110.044 78.4098 110.915 78.5213C112.521 78.7272 118.901 78.7069 119.97 78.4923C120.98 78.29 121.834 77.8302 121.834 77.4889C121.834 77.3766 121.517 77.1272 121.129 76.9348C120.448 76.5967 120.301 76.5821 116.69 76.4946C114.637 76.445 112.417 76.3605 111.759 76.3067C110.841 76.232 110.502 76.2541 110.307 76.4009ZM164.123 84.9453C163.317 86.6384 162.765 88.6152 162.726 89.9475L162.696 90.9969L163.145 91.0402C163.724 91.0959 163.97 90.7266 164.092 89.6163C164.142 89.1648 164.303 88.5037 164.45 88.1472C165.305 86.077 165.484 85.4923 165.499 84.7308C165.514 83.9256 165.37 83.6588 164.916 83.6532C164.819 83.6521 164.462 84.2336 164.123 84.9453ZM151.479 85.003C151.354 85.0362 151.179 85.2207 151.091 85.4132C150.592 86.5003 151.409 87.3541 152.174 86.5455C152.577 86.1201 152.596 85.2614 152.208 85.0552C151.927 84.9056 151.863 84.9011 151.479 85.003ZM59.6886 85.3387C59.4921 85.6545 59.4467 87.9135 59.6202 88.7428C59.8105 89.6526 60.316 90.2692 60.8134 90.1986C61.0745 90.1615 61.1067 90.0469 61.1398 89.038C61.1658 88.2479 61.0819 87.5277 60.8549 86.5894C60.5558 85.3536 60.507 85.2571 60.1621 85.2172C59.9581 85.1936 59.745 85.2483 59.6886 85.3387ZM72.4574 86.0085C72.3781 86.1558 72.3657 86.4419 72.4288 86.6731C72.518 87.0006 72.6052 87.0698 72.8803 87.0305C73.6603 86.9192 73.8202 86.3037 73.1576 85.9634C72.6355 85.6953 72.6259 85.6959 72.4574 86.0085ZM78.7605 95.4395C78.7294 95.5357 78.7511 99.4552 78.8087 104.15C78.8822 110.146 78.986 113.58 79.1576 115.693C79.4314 119.064 79.4486 121.07 79.3676 140.319C79.3152 152.759 79.389 156.177 79.7959 160.166C79.8854 161.043 80.0269 161.778 80.1121 161.81C80.2835 161.873 81.5608 161.572 84.0003 160.894C90.739 159.02 91.5699 158.82 95.3432 158.162C97.4144 157.801 98.5721 157.67 99.7113 157.669C101.301 157.668 102.373 157.484 102.287 157.227C102.26 157.147 101.701 156.87 101.045 156.612C96.2481 154.723 92.9133 151.835 91.5234 148.365C90.8086 146.58 90.3997 145.48 89.9117 144.027C89.6016 143.104 89.2893 142.222 89.2179 142.068C88.7963 141.16 88.1877 139.004 87.9294 137.505C87.6916 136.125 87.6447 135.4 87.6986 133.949C87.7752 131.899 87.9349 131.43 88.8831 130.473C90.445 128.896 92.7126 127.974 97.2454 127.071C99.0637 126.708 99.3418 126.691 103.545 126.684C107.772 126.677 107.95 126.666 108.155 126.397C108.47 125.983 108.425 125.781 107.955 125.516C107.723 125.385 107.533 125.183 107.533 125.068C107.533 124.384 108.35 122.383 109.304 120.73C110.16 119.247 110.159 119.141 109.293 119.036C108.905 118.989 108.228 118.902 107.787 118.843L106.986 118.735L106.651 119.418C106.466 119.793 106.09 120.51 105.814 121.01C105.539 121.51 105.135 122.486 104.917 123.179C104.499 124.501 103.948 125.27 103.481 125.182C103.284 125.145 103.225 124.964 103.19 124.297C103.14 123.321 103.527 122.203 104.524 120.441C104.862 119.845 105.175 119.172 105.221 118.945C105.297 118.566 105.258 118.514 104.724 118.302C103.874 117.964 103.647 118.004 103.443 118.526C103.345 118.777 102.98 119.579 102.633 120.31C102.285 121.042 101.889 121.955 101.752 122.339C101.043 124.331 100.432 125.276 99.7579 125.423C99.0767 125.571 99.0049 125.355 99.3542 124.204C99.6741 123.151 100.09 122.194 101.077 120.241C101.718 118.973 102.207 117.673 102.105 117.509C102.007 117.352 100.818 116.673 100.641 116.673C100.56 116.673 100.352 117.003 100.179 117.407C100.006 117.811 99.5402 118.771 99.1449 119.541C98.7495 120.31 98.2133 121.468 97.9534 122.113C97.512 123.208 96.6632 124.368 96.3035 124.368C96.1155 124.368 95.8364 123.738 95.8364 123.314C95.8364 122.743 96.3253 121.649 97.2288 120.197C97.7114 119.422 98.2462 118.333 98.4501 117.71C98.6494 117.101 98.9353 116.395 99.0853 116.141C99.3537 115.686 99.3538 115.672 99.0885 115.162C98.9404 114.877 98.5698 114.404 98.265 114.111L97.7107 113.579L97.5032 113.901C97.389 114.079 97.1925 114.476 97.0664 114.784C96.9401 115.091 96.6374 115.816 96.3937 116.393C96.1499 116.97 95.8544 117.757 95.7368 118.142C95.3839 119.297 94.8848 120.146 94.4165 120.386C94.0794 120.559 93.9401 120.571 93.7831 120.442C93.5245 120.229 93.5354 119.416 93.8064 118.701C93.923 118.394 94.1169 117.827 94.2374 117.442C94.4255 116.841 95.0742 115.479 96.2375 113.244C96.3978 112.937 96.6088 112.383 96.7063 112.015C96.8633 111.423 96.8518 111.252 96.6067 110.546C96.4364 110.054 96.2487 109.746 96.1197 109.746C95.978 109.746 95.6233 110.496 95.0274 112.055C94.542 113.325 93.9389 114.769 93.6873 115.265C93.2446 116.137 92.5661 116.83 92.3576 116.623C92.3018 116.567 92.2305 116.124 92.1992 115.637C92.1459 114.806 92.1919 114.642 92.9509 112.949C93.3956 111.957 94.0357 110.56 94.3735 109.843C95.3132 107.851 95.5935 106.797 95.5333 105.482C95.4821 104.362 95.2343 103.756 95.0508 104.301C94.8946 104.765 94.1218 106.638 93.9919 106.868C93.6745 107.429 93.1231 108.84 92.9495 109.537C92.3359 111.997 91.7804 113.21 91.004 113.786C90.6423 114.054 90.6058 114.057 90.3801 113.833C90.0082 113.464 90.1207 112.657 90.7477 111.198C91.0578 110.477 91.5631 109.194 91.8706 108.347C92.178 107.501 92.6482 106.336 92.9155 105.759C93.9675 103.487 94.8321 101.152 95.0658 99.9519C95.3138 98.6778 95.3945 96.5527 95.2063 96.2504C94.9236 95.7961 94.0397 97.3164 93.7327 98.7853C93.5667 99.5792 92.6792 101.874 91.343 104.964C90.6348 106.602 89.7642 109.04 89.5714 109.925C89.4288 110.58 88.8403 111.571 88.4391 111.832C88.0185 112.106 88.0169 112.106 87.7443 111.835C87.3748 111.468 87.4852 110.729 88.0918 109.509C88.4046 108.88 88.7805 108.015 88.9272 107.587C89.3029 106.489 90.3729 103.53 90.904 102.121C91.1504 101.467 91.4174 100.742 91.4973 100.512C91.5774 100.281 91.8671 99.4937 92.1413 98.7626C92.4155 98.0315 92.7222 97.213 92.8228 96.9436C93.1871 95.9692 93.1806 95.9642 91.5927 95.9642C90.1742 95.9642 90.1679 95.9657 90.2826 96.279C90.3461 96.4522 90.3971 97.0031 90.3961 97.5033C90.3946 98.2026 90.3031 98.6069 90.0005 99.2523C89.7841 99.7141 89.4202 100.564 89.1922 101.141C88.9641 101.718 88.6925 102.38 88.5883 102.61C88.4843 102.841 88.199 103.502 87.9544 104.08C87.7098 104.657 87.3888 105.412 87.2411 105.759C87.0934 106.105 86.7849 106.829 86.5553 107.368C86.3258 107.906 85.9766 108.902 85.7795 109.581C85.3596 111.025 85.0003 111.66 84.4674 111.901C83.6642 112.265 83.4882 111.277 84.0783 109.718C84.2762 109.195 84.5628 108.421 84.7152 107.997C84.8677 107.574 85.1178 106.961 85.2713 106.635C85.4247 106.308 85.5524 105.994 85.555 105.935C85.5577 105.876 85.6823 105.577 85.8321 105.269C85.9818 104.961 86.1064 104.653 86.1091 104.584C86.1118 104.515 86.466 103.665 86.8963 102.695C87.3266 101.725 87.8102 100.617 87.9709 100.232C88.1314 99.847 88.4237 99.1859 88.6203 98.7626C88.817 98.3393 89.0086 97.6802 89.0463 97.2976C89.0839 96.9152 89.2004 96.5171 89.3051 96.4132C89.6846 96.0365 89.4949 95.9528 88.353 95.9935L87.2104 96.0341L86.7308 97.3634C86.4671 98.0945 85.9053 99.7001 85.4826 100.931C85.0598 102.163 84.5174 103.674 84.2772 104.289C84.0371 104.905 83.7166 105.755 83.5653 106.178C83.1354 107.38 82.7909 108.039 82.4066 108.395C81.9168 108.848 81.5642 108.743 81.4028 108.096C81.2945 107.662 81.3283 107.439 81.593 106.838C81.77 106.437 82.0282 105.825 82.1664 105.479C82.3048 105.133 82.638 104.314 82.9069 103.66C84.0317 100.923 85.6358 95.9891 85.4553 95.821C85.219 95.6012 83.9177 95.5156 83.7626 95.7096C83.5561 95.9679 83.074 97.5156 82.8113 98.7626C82.6899 99.3398 82.4954 100.156 82.3794 100.577C82.2635 100.998 82.1685 101.483 82.1685 101.656C82.1685 102.149 81.6112 103.503 81.2842 103.806C80.9075 104.154 80.5284 104.155 80.3417 103.809C80.1273 103.411 80.1614 102.87 80.47 101.771C81.4616 98.2398 81.9354 96.4004 81.9456 96.0427C81.9571 95.6324 81.9545 95.631 80.7594 95.4539C79.2248 95.2265 78.8302 95.2236 78.7605 95.4395ZM117.395 95.364C116.581 95.3864 114.33 95.5005 112.393 95.6174C110.455 95.7344 106.51 95.8706 103.626 95.9197L98.3823 96.0092L98.3423 99.3683C98.2679 105.61 98.5895 108.61 99.5591 110.715C99.7591 111.149 99.9227 111.537 99.9227 111.577C99.9227 111.807 101.133 113.363 101.691 113.851C103.136 115.114 104.639 115.629 108.377 116.141C111.492 116.567 116.813 116.602 118.653 116.208C119.306 116.069 120.023 115.861 120.246 115.746C120.934 115.393 121.772 114.447 122.199 113.54C122.642 112.599 123.145 109.873 122.917 109.647C122.785 109.516 121.582 109.287 119.124 108.925L117.684 108.713L116.447 109.937C115.047 111.324 114.209 111.752 112.297 112.058C109.683 112.475 106.745 111.386 105.585 109.569C105.099 108.808 104.573 107.215 104.573 106.503C104.573 106.236 104.706 105.472 104.868 104.804C105.71 101.35 108.025 99.6002 111.749 99.603C113.574 99.6044 114.403 99.8049 115.352 100.475L116.197 101.071L118.311 101.069C119.763 101.067 120.733 100.995 121.411 100.837C121.953 100.712 122.746 100.569 123.172 100.519L123.947 100.43L123.905 98.0224C123.881 96.6979 123.836 95.5357 123.803 95.4395C123.745 95.2673 121.774 95.2441 117.395 95.364ZM126.836 97.6432V100.022H127.169C127.65 100.022 128.154 99.5727 128.452 98.8777C128.595 98.545 128.988 97.6533 129.325 96.896C129.661 96.1388 129.901 95.462 129.857 95.3919C129.814 95.3219 129.116 95.2646 128.307 95.2646H126.836V97.6432ZM130.746 97.2754C130.223 98.375 129.795 99.3484 129.795 99.4384C129.795 99.6649 130.574 99.6438 131.035 99.4047C131.499 99.1637 132.074 98.5569 132.372 97.993C132.714 97.3463 133.599 95.4362 133.599 95.3454C133.599 95.3009 133.171 95.2671 132.648 95.2703L131.697 95.2759L130.746 97.2754ZM135.909 95.6048C135.668 95.7091 135.297 95.9742 135.085 96.1941C134.693 96.5997 133.599 98.6662 133.599 99C133.599 99.1278 133.832 99.1824 134.378 99.1824H135.157L136.245 97.5383C137.535 95.5899 137.488 95.6835 137.245 95.5304C136.967 95.3554 136.414 95.3861 135.909 95.6048ZM142.511 95.637C142.415 95.6759 142.335 95.8388 142.335 95.999C142.335 96.1593 142.058 96.7365 141.718 97.2817C140.678 98.9522 140.604 98.844 142.861 98.9621C143.928 99.0179 145.118 99.1149 145.506 99.1776C145.893 99.2403 146.258 99.2632 146.316 99.2287C146.374 99.1941 146.422 98.4124 146.422 97.4915C146.422 95.8231 146.42 95.8168 146.06 95.6808C145.694 95.5426 142.835 95.5073 142.511 95.637ZM139.629 95.7991C139.114 96.0032 138.27 96.9713 137.772 97.9305C137.484 98.4833 137.277 98.9637 137.312 98.9977C137.346 99.0318 137.764 99.0158 138.241 98.9623C139.027 98.874 139.127 98.8246 139.329 98.429C139.451 98.1892 139.829 97.5469 140.168 97.0018C140.508 96.4567 140.785 95.9372 140.785 95.8475C140.785 95.672 140.03 95.6404 139.629 95.7991ZM69.321 96.3895C68.9445 96.6077 69.239 97.3165 70.0428 98.1271C70.4277 98.5151 70.8397 99.065 70.9586 99.349C71.3469 100.277 71.6101 102.432 71.569 104.347C71.5333 106.002 71.5553 106.189 71.8271 106.552C72.2477 107.113 72.6011 107.061 72.9362 106.388C73.1671 105.925 73.2105 105.576 73.1893 104.359C73.1229 100.576 71.9296 97.0199 70.5318 96.4399C69.9828 96.2121 69.651 96.1982 69.321 96.3895ZM157.011 101.226C156.839 101.346 156.708 101.587 156.708 101.784C156.708 102.136 157.105 103.019 157.552 103.66C158.268 104.687 158.307 107.522 157.624 108.935C157.086 110.049 156.67 110.572 155.914 111.088C155.345 111.477 154.876 112.165 154.876 112.61C154.876 112.79 156.011 112.8 156.452 112.625C158.331 111.875 159.76 108.043 159.384 104.766C159.135 102.605 157.83 100.657 157.011 101.226ZM137.263 101.781C135.907 101.883 134.068 102.063 133.176 102.181C132.285 102.299 131.144 102.432 130.64 102.476C128.866 102.631 123.644 103.252 121.834 103.524C120.826 103.676 119.558 103.847 119.015 103.905L118.029 104.01L117.986 104.667C117.907 105.891 118.28 106.039 123.595 106.886C125.571 107.2 127.442 107.513 127.752 107.58C128.062 107.647 128.822 107.767 129.442 107.846C130.062 107.926 131.299 108.091 132.19 108.212C134.458 108.52 139.121 108.676 142.201 108.545C144.386 108.453 145.06 108.369 146.422 108.021C147.961 107.627 149.585 106.984 150.118 106.556C150.553 106.208 150.77 105.5 150.605 104.967C150.074 103.247 147.314 102.042 143.138 101.706C140.984 101.533 140.467 101.539 137.263 101.781ZM109.625 102.639C109.191 102.705 109.036 102.872 108.348 104.01C107.361 105.643 107.19 106.795 107.769 107.907C108.807 109.902 113.055 109.802 114.697 107.744C115.238 107.065 115.465 106.205 115.344 105.292C115.255 104.626 115.197 104.536 114.599 104.15C114.128 103.845 113.912 103.595 113.814 103.24C113.739 102.971 113.611 102.704 113.529 102.648C113.376 102.543 110.301 102.536 109.625 102.639ZM160.382 109.307C159.231 110.453 159.108 110.617 159.108 111.006C159.108 111.526 159.314 111.68 159.871 111.576C160.566 111.446 161.396 110.674 161.772 109.805C162.132 108.975 162.108 108.56 161.693 108.409C161.444 108.318 161.223 108.47 160.382 109.307ZM125.927 110.54C125.382 113.348 124.331 116.456 123.521 117.652C123.182 118.152 122.518 119.128 122.046 119.821C121.037 121.3 120.257 122.858 120.129 123.651C119.979 124.585 119.196 125.021 118.841 124.368C118.41 123.576 118.899 122.088 120.286 119.975C120.727 119.303 121.048 118.714 120.999 118.666C120.95 118.617 120.457 118.668 119.902 118.779C118.737 119.013 118.898 118.802 117.381 122.067C116.489 123.987 116.128 124.428 115.52 124.342C115.246 124.303 115.214 124.22 115.235 123.618C115.254 123.098 115.461 122.535 116.116 121.22C116.587 120.275 116.972 119.429 116.972 119.341C116.972 118.775 115.684 120.352 115.323 121.36C115.049 122.122 114.231 123.426 113.848 123.709C113.279 124.129 113.027 123.949 113.027 123.12C113.027 122.315 113.171 121.934 113.882 120.87C114.56 119.854 114.868 119.247 114.759 119.139C114.711 119.091 114.046 119.051 113.282 119.051C111.971 119.051 111.886 119.069 111.772 119.366C111.706 119.539 111.295 120.261 110.86 120.971C109.985 122.396 109.905 122.689 110.389 122.689C110.836 122.689 111.287 123.035 111.395 123.461C111.444 123.658 111.769 124.272 112.115 124.825C112.462 125.378 112.745 125.898 112.745 125.981C112.745 126.353 113.056 126.441 113.57 126.213C113.976 126.033 114.758 125.97 117.311 125.912L120.538 125.837L120.717 125.323C120.989 124.542 122.669 121.279 123.35 120.209C123.683 119.688 124.033 119.104 124.129 118.911C124.225 118.719 124.491 118.278 124.719 117.932C125.927 116.099 128.104 111.458 128.104 110.713C128.104 110.463 127.698 110.302 126.744 110.172L126.018 110.074L125.927 110.54ZM129.96 110.901C129.89 111.035 129.592 111.712 129.297 112.405C128.793 113.59 126.764 117.314 125.523 119.331C124.016 121.78 122.07 125.89 122.339 126.055C122.422 126.106 123.015 126.184 123.656 126.229C126.92 126.458 129.475 127.3 130.904 128.617C131.512 129.178 132.19 130.576 132.19 131.269C132.19 131.614 132.309 131.96 132.527 132.248C132.992 132.863 133.176 133.887 133.176 135.849C133.176 136.768 133.23 137.521 133.296 137.521C133.362 137.521 134.012 137.389 134.74 137.229C135.668 137.025 136.79 136.915 138.483 136.862L140.902 136.787L141.724 137.248C142.584 137.731 144.367 139.422 144.52 139.901C144.724 140.541 144.843 140.07 144.935 138.255C145.078 135.409 145.232 133.271 145.938 124.311C146.208 120.887 146.411 116.215 146.417 113.279C146.422 111.086 146.42 111.076 146.105 111.075C145.199 111.072 141.631 111.426 141.631 111.519C141.631 111.987 140.483 113.904 138.88 116.113C138.39 116.789 137.353 118.761 136.611 120.428C136.125 121.52 135.837 121.838 135.325 121.845C135.039 121.849 135.008 121.783 135.008 121.155C135.008 120.37 135.388 119.259 136.055 118.094C137.015 116.417 138.492 114.03 139.338 112.786C139.824 112.072 140.222 111.459 140.222 111.422C140.222 111.385 139.746 111.356 139.164 111.356H138.106L137.706 112.16C137.103 113.374 136.477 114.482 135.432 116.183C133.077 120.015 132.452 121.182 132.186 122.242C132.031 122.858 131.624 123.39 131.309 123.387C130.57 123.378 130.501 122.106 131.164 120.704C131.564 119.857 132.652 117.94 133.572 116.463C134.458 115.038 136.276 111.734 136.276 111.548C136.276 111.401 136.012 111.356 135.153 111.356H134.029L133.725 112.02C133.041 113.517 131.881 115.843 131.196 117.092C130.795 117.823 129.993 119.335 129.414 120.45C128.834 121.566 128.238 122.677 128.089 122.919C127.807 123.376 126.936 123.887 126.693 123.738C126.34 123.521 126.663 121.881 127.175 121.295C127.278 121.177 127.614 120.608 127.922 120.031C128.229 119.453 128.69 118.603 128.946 118.142C129.323 117.46 130.408 115.48 131.07 114.263C131.465 113.537 132.476 111.173 132.416 111.113C132.331 111.029 130.665 110.668 130.328 110.661C130.195 110.658 130.029 110.766 129.96 110.901ZM152.433 119.902C151.6 120.868 151.233 122.115 151.062 124.554C150.98 125.722 150.821 127.259 150.71 127.97C150.599 128.681 150.508 129.521 150.508 129.837C150.508 131.069 151.365 131.975 151.966 131.378C152.231 131.114 152.236 131.045 152.06 130.119C151.704 128.242 152.2 123.479 152.921 121.85C153.075 121.503 153.351 121.063 153.535 120.87C153.849 120.542 153.963 120.151 153.912 119.576C153.895 119.395 153.764 119.331 153.407 119.331C153.018 119.331 152.831 119.44 152.433 119.902ZM70.3166 123.494C70.0681 124.133 70.2945 125.058 71.0958 126.677C72.3228 129.156 72.4466 129.513 72.8073 131.62C73.2699 134.322 73.2662 136.773 72.7937 140.826C72.5975 142.51 72.3975 144.627 72.3495 145.531L72.2621 147.175H72.6984C73.3223 147.175 73.5732 146.75 73.5732 145.694C73.5732 145.222 73.6361 144.506 73.7127 144.104C74.189 141.611 74.5885 137.584 74.5948 135.212C74.605 131.439 74.3888 130.468 72.7255 126.817C72.2697 125.816 71.8018 124.635 71.6855 124.192C71.413 123.152 71.381 123.109 70.8842 123.109C70.5586 123.109 70.4333 123.194 70.3166 123.494ZM115.969 128.795C115.896 128.883 115.525 129.088 115.144 129.251C114.763 129.413 114.407 129.618 114.352 129.707C114.297 129.795 114.265 130.257 114.28 130.733C114.317 131.851 113.979 133.445 113.577 134.055C112.873 135.121 111.503 135.544 110.268 135.075C108.913 134.562 107.954 132.647 107.954 130.457V129.37L104.326 129.447C100.39 129.531 98.7679 129.745 95.215 130.65C92.6688 131.297 91.8493 131.604 91.2805 132.121C90.8492 132.514 90.7638 132.685 90.7638 133.155C90.7638 133.642 90.8379 133.778 91.3017 134.143C92.034 134.718 93.3156 135.173 95.4137 135.602C97.7988 136.09 97.7127 136.079 101.543 136.389C109.78 137.058 115.413 136.852 120.284 135.706C120.904 135.56 122.172 135.274 123.102 135.07C127.77 134.046 129.436 133.175 129.436 131.758C129.436 130.426 126.928 129.192 123.524 128.849C121.414 128.637 116.133 128.599 115.969 128.795ZM129.865 135.878C128.825 136.557 124.431 137.88 121.842 138.293C121.072 138.416 120.403 138.54 120.356 138.569C120.309 138.598 118.814 138.764 117.036 138.939C113.263 139.308 106.055 139.386 103.023 139.09C102.054 138.995 100.215 138.855 98.9363 138.779C96.0074 138.604 93.5626 138.198 92.0636 137.637C91.4224 137.397 90.8678 137.231 90.8311 137.267C90.7943 137.304 90.8824 137.795 91.0266 138.359C91.2691 139.307 91.3294 139.405 91.8303 139.66C93.4317 140.476 98.5993 141.579 100.821 141.579C101.742 141.579 102.057 142.104 101.457 142.641C101.197 142.874 100.959 142.904 99.5798 142.879C97.9225 142.849 94.7344 142.289 92.9968 141.722C92.518 141.566 92.0733 141.439 92.0087 141.439C91.6472 141.439 92.2337 142.937 92.8504 143.589C93.059 143.809 93.5004 144.106 93.8313 144.249C94.4096 144.499 96.6374 145.008 99.0068 145.431C100.457 145.69 101.725 146.16 101.913 146.508C101.994 146.659 102.02 146.939 101.972 147.131C101.889 147.459 101.839 147.477 101.15 147.414C100.746 147.378 100.067 147.22 99.6408 147.063C99.2146 146.906 98.3586 146.682 97.7386 146.565C95.8324 146.206 93.8242 145.909 93.7569 145.976C93.7217 146.011 93.8716 146.39 94.09 146.818C94.4466 147.518 94.5641 147.626 95.2375 147.876C95.6502 148.029 96.0504 148.155 96.1269 148.155C96.2036 148.155 96.6291 148.288 97.0728 148.45C97.7461 148.697 98.2873 148.756 100.345 148.806C101.702 148.84 102.953 148.897 103.126 148.933C103.546 149.021 103.88 149.548 103.773 149.954L103.688 150.278L101.065 150.187C99.6232 150.136 97.8794 150.003 97.1902 149.891C96.501 149.779 95.9081 149.716 95.8726 149.751C95.742 149.881 96.7086 150.917 97.2345 151.21C97.7048 151.473 97.9996 151.513 99.4486 151.516C101.435 151.52 102.098 151.651 102.583 152.132C102.923 152.47 102.93 152.504 102.703 152.73C102.542 152.89 102.161 152.988 101.547 153.027C101.043 153.058 100.663 153.137 100.703 153.201C100.802 153.36 103.307 154.616 104.433 155.072C104.936 155.275 105.947 155.596 106.68 155.786C107.843 156.087 108.317 156.13 110.407 156.13C111.725 156.13 113.481 156.205 114.311 156.297C115.488 156.427 116.023 156.426 116.75 156.293C118.491 155.975 121.551 154.316 123.172 152.812C123.734 152.292 123.596 152.238 122.525 152.561C121.454 152.883 117.719 153.594 116.62 153.685C115.029 153.816 114.387 153.216 115.396 152.541C115.959 152.164 116.725 152.001 119.227 151.725C120.273 151.61 121.446 151.426 121.834 151.317C123.262 150.914 124.005 150.664 124.781 150.323C125.218 150.131 125.755 149.974 125.974 149.974C126.323 149.974 126.456 149.834 127.044 148.845C127.728 147.694 127.89 147.218 127.576 147.28C127.379 147.319 124.932 148.373 124.537 148.588C123.983 148.891 118.791 150.463 117.606 150.687C116.33 150.928 115.568 150.485 116.036 149.775C116.277 149.41 117.717 148.918 118.945 148.78C120.527 148.603 122.188 148.052 124.722 146.865C125.381 146.556 126.263 146.185 126.683 146.039C127.346 145.81 127.476 145.801 127.669 145.975C128.132 146.388 128.254 146.282 128.692 145.077C129.299 143.408 129.531 142.52 129.395 142.385C129.331 142.322 128.618 142.589 127.811 142.98C124.422 144.621 122.762 145.318 120.424 146.078C117.806 146.93 117.157 147.064 116.504 146.885C115.853 146.706 115.678 146.248 116.124 145.89C116.413 145.658 117.015 145.455 120.495 144.414C121.552 144.098 122.518 143.737 124.511 142.913C125.542 142.487 126.048 142.252 127.571 141.492C128.509 141.024 129.261 140.739 129.558 140.739H130.035L130.201 139.741C130.293 139.192 130.333 138.708 130.291 138.666C130.21 138.587 129.905 138.729 128.386 139.558C127.075 140.273 124.381 141.323 121.129 142.387C118.271 143.323 117.47 143.47 117.064 143.135C116.864 142.97 116.861 142.906 117.044 142.555C117.263 142.135 117.847 141.665 118.311 141.537C122.857 140.283 126.438 139 128.294 137.963C130.036 136.989 130.244 136.795 130.191 136.195C130.15 135.729 130.127 135.707 129.865 135.878ZM149.672 139.331C149.499 139.44 149.524 139.758 149.848 141.538C150.286 143.948 150.315 144.814 149.994 145.951C149.777 146.717 149.777 146.79 149.995 147.006C150.212 147.221 150.258 147.221 150.615 147.011C150.827 146.886 151.16 146.51 151.353 146.175C151.673 145.622 151.705 145.42 151.704 143.957C151.703 142.672 151.637 142.137 151.376 141.299C150.84 139.578 150.29 138.943 149.672 139.331ZM137.192 139.63C136.727 139.694 135.588 139.954 134.661 140.207L132.974 140.669L132.849 141.229C132.619 142.259 132.07 144.013 131.493 145.559C131.179 146.401 130.922 147.17 130.922 147.267C130.922 147.574 131.844 147.631 134.269 147.472C138.737 147.179 141.215 146.141 142.052 144.211C142.718 142.672 142.181 140.934 140.735 139.947C140.106 139.518 139.968 139.481 139.044 139.498C138.49 139.507 137.657 139.567 137.192 139.63ZM144.093 146.004C143.649 146.821 142.635 147.855 141.701 148.444C140.824 148.997 139.724 149.4 138.038 149.786C136.674 150.099 136.072 150.15 133.034 150.213L129.581 150.284L129.089 151.07C128.083 152.679 126.192 154.388 123.273 156.328C122.592 156.78 122.056 157.214 122.082 157.292C122.108 157.369 122.666 157.546 123.32 157.685C123.975 157.824 125.24 158.1 126.131 158.297C128.204 158.757 130.979 159.321 132.331 159.558C132.912 159.659 133.863 159.942 134.445 160.185C135.409 160.588 136.352 160.941 139.165 161.953C140.84 162.555 142.23 163.092 143.069 163.463C143.512 163.658 143.909 163.761 143.952 163.692C144.093 163.466 144.299 158.563 144.449 151.878C144.53 148.269 144.578 145.298 144.555 145.275C144.532 145.252 144.324 145.58 144.093 146.004ZM106.981 158.905C106.817 159.208 106.591 160.943 106.657 161.389C106.689 161.608 106.917 161.754 107.574 161.976C109.791 162.728 111.393 163.045 114.04 163.257C115.799 163.398 116.035 163.332 116.855 162.472C117.318 161.986 117.818 160.553 117.818 159.709V159.081L115.176 159.086C112.678 159.09 107.881 158.856 107.364 158.705C107.221 158.664 107.068 158.743 106.981 158.905ZM102.105 159.593C101.967 159.959 101.589 160.762 101.265 161.377C100.351 163.113 100.329 162.987 101.547 162.987H102.6V162.546C102.6 162.291 102.86 161.628 103.218 160.972C103.558 160.348 103.88 159.634 103.934 159.384L104.031 158.929H103.194H102.356L102.105 159.593ZM120.636 159.741C120.636 160.193 120.481 161.075 120.287 161.734C119.842 163.238 119.845 163.518 120.294 162.648C120.49 162.27 120.773 161.789 120.924 161.579C121.311 161.038 122.045 159.465 122.045 159.174C122.045 158.973 121.918 158.929 121.34 158.929H120.636V159.741ZM98.7946 159.421C98.7175 159.622 98.6544 159.861 98.6542 159.952C98.6541 160.044 98.3931 160.621 98.0744 161.236C97.116 163.084 97.1168 162.988 98.0592 162.978L98.8659 162.969L99.6692 161.334C100.752 159.128 100.752 159.149 99.7457 159.097C98.9837 159.057 98.9263 159.077 98.7946 159.421ZM95.8911 159.656C95.0483 159.785 95.0262 159.799 94.8647 160.335C94.774 160.636 94.4469 161.355 94.1382 161.934L93.5767 162.987H94.7065C95.6884 162.987 95.8365 162.954 95.8371 162.742C95.8374 162.607 96.1224 161.899 96.4705 161.168C96.8185 160.436 97.1036 159.76 97.1038 159.663C97.1045 159.47 97.1076 159.47 95.8911 159.656ZM123.259 160.224C123.14 160.629 122.692 161.536 122.262 162.24C121.833 162.944 121.481 163.589 121.481 163.673C121.481 163.757 121.72 163.826 122.011 163.826C122.515 163.826 122.578 163.772 123.281 162.742C123.688 162.145 124.337 161.217 124.723 160.679C125.52 159.569 125.497 159.516 124.204 159.498L123.474 159.489L123.259 160.224ZM127.006 160.035C126.936 160.081 126.798 160.269 126.7 160.454C126.601 160.639 126.109 161.332 125.605 161.993C124.713 163.164 124.187 164.044 124.309 164.159C124.343 164.191 124.845 164.239 125.427 164.266L126.483 164.316L126.554 163.66C126.613 163.108 126.748 162.866 127.399 162.146C128.213 161.245 128.36 161.003 128.376 160.526C128.384 160.294 128.26 160.207 127.76 160.093C127.416 160.015 127.077 159.989 127.006 160.035ZM92.3184 160.243C91.7896 160.383 91.6749 160.475 91.6013 160.823C91.553 161.051 91.3123 161.631 91.0662 162.112L90.6188 162.987H91.2526C91.8641 162.987 91.8989 162.963 92.2461 162.322C92.4441 161.956 92.7252 161.468 92.8709 161.238C93.1782 160.75 93.2926 160.159 93.0887 160.111C93.0112 160.092 92.6646 160.152 92.3184 160.243ZM129.714 161.252C129.52 161.913 128.94 162.827 128.479 163.196C128.25 163.379 127.54 164.316 127.54 164.434C127.54 164.484 128.047 164.526 128.667 164.526H129.795L129.796 164.071C129.797 163.46 130.07 162.978 130.775 162.346C131.098 162.056 131.446 161.656 131.548 161.458C131.733 161.099 131.73 161.096 130.831 160.808L129.929 160.518L129.714 161.252ZM66.8097 160.702C65.7332 161.106 63.5435 164.419 62.9949 166.475C62.1386 169.684 62.4639 173.534 63.6361 174.064C64.412 174.415 64.6353 173.754 64.1845 172.441C63.848 171.46 63.9856 168.774 64.4513 167.234C64.8158 166.027 65.8179 164.054 66.6212 162.96C66.9946 162.452 67.204 162.294 67.5509 162.26C67.8672 162.23 68.062 162.104 68.2144 161.832C68.4082 161.487 68.4082 161.408 68.2144 161.063C68.0503 160.77 67.8813 160.671 67.5099 160.651C67.2411 160.636 66.926 160.659 66.8097 160.702ZM89.1081 160.98C89.0113 161.019 88.932 161.132 88.932 161.232C88.932 161.332 88.8322 161.495 88.7103 161.596C88.5086 161.762 87.9456 162.73 87.9456 162.911C87.9456 162.953 88.191 162.987 88.4908 162.987C89.0246 162.987 89.0442 162.968 89.4214 162.112C89.6333 161.631 89.8386 161.159 89.8776 161.063C89.949 160.886 89.4705 160.835 89.1081 160.98ZM85.973 161.887C85.7792 161.965 85.1547 162.119 84.5852 162.228C84.0156 162.338 83.4926 162.463 83.4227 162.505C83.0366 162.742 83.4465 162.847 84.7637 162.847H86.2318L86.525 162.375C86.6864 162.116 86.8184 161.864 86.8184 161.816C86.8184 161.686 86.3784 161.724 85.973 161.887ZM133.36 161.869C132.927 162.042 132.025 162.965 131.426 163.849L130.921 164.594L131.309 164.7C131.623 164.787 131.751 164.743 131.979 164.473C132.134 164.289 132.514 163.84 132.824 163.474C133.134 163.109 133.445 162.692 133.515 162.548C133.585 162.405 133.696 162.287 133.762 162.287C133.827 162.287 133.881 162.161 133.881 162.007C133.881 161.701 133.821 161.685 133.36 161.869ZM61.0326 162.141C60.7556 162.203 60.538 162.504 60.0147 163.548C59.1192 165.334 58.6093 166.995 58.5287 168.388C58.4656 169.48 58.4778 169.538 58.8674 169.971C59.6027 170.788 60.0348 170.185 60.0124 168.374C59.9953 166.978 60.6327 165.262 61.8841 163.336C62.3127 162.676 62.3427 162.576 62.1713 162.371C61.972 162.132 61.4977 162.036 61.0326 162.141ZM135.28 162.807C134.709 163.284 133.837 164.621 133.963 164.825C134.112 165.064 135.067 164.874 135.569 164.506C136.015 164.178 136.981 162.959 136.981 162.723C136.981 162.583 136.497 162.432 136.041 162.429C135.872 162.428 135.53 162.598 135.28 162.807ZM154.755 163.173C154.636 163.315 154.77 163.691 155.316 164.747C155.711 165.51 156.084 166.198 156.144 166.275C156.458 166.674 157.264 168.95 157.482 170.051C157.778 171.553 157.708 172.974 157.271 174.319C156.905 175.447 156.978 175.859 157.546 175.859C158.713 175.859 159.346 173.286 158.907 170.319C158.509 167.628 157.336 164.759 156.094 163.441C155.638 162.957 155.036 162.836 154.755 163.173ZM137.995 164.148C137.538 164.615 137.444 164.806 137.669 164.806C137.823 164.806 138.672 163.954 138.672 163.799C138.672 163.574 138.436 163.695 137.995 164.148ZM140.457 164.339C140.232 164.562 140.399 164.781 140.862 164.867C141.388 164.965 141.913 164.867 141.913 164.67C141.913 164.418 140.663 164.134 140.457 164.339ZM79.7026 165.438C79.6251 165.466 78.8008 165.555 77.8709 165.635C74.9822 165.885 72.632 166.644 71.7822 167.602C70.9659 168.523 70.722 170.538 71.1017 173.224C71.2359 174.173 71.3951 175.002 71.4557 175.066C71.6139 175.232 72.4447 174.465 73.6899 173.003C74.7893 171.713 76.0898 170.402 76.2712 170.402C76.5048 170.402 76.8141 170.871 76.8141 171.225C76.8141 171.829 76.0532 172.868 74.394 174.53C73.5486 175.377 72.727 176.273 72.568 176.523L72.2792 176.976L72.6647 177.121C73.2535 177.344 73.8359 177.079 74.7065 176.195C75.1295 175.766 75.8559 175.123 76.3209 174.766C77.2792 174.032 78.5006 172.835 79.6177 171.538C80.036 171.052 80.6367 170.468 80.9528 170.241C81.4876 169.856 81.5395 169.844 81.7069 170.072C82.2136 170.76 81.6752 171.866 80.1809 173.206C79.5582 173.764 78.5936 174.669 78.0371 175.218C77.4807 175.767 76.729 176.414 76.3666 176.657C76.0043 176.9 75.6371 177.229 75.5507 177.39C75.4136 177.644 75.4438 177.701 75.7869 177.837C76.003 177.923 76.8259 178.025 77.6153 178.064L79.0505 178.134L80.8561 176.472C81.8491 175.558 82.9787 174.469 83.3662 174.053C84.999 172.298 85.9315 171.41 86.3872 171.176C86.8649 170.931 86.8757 170.932 87.1298 171.243C87.3802 171.551 87.3793 171.573 87.0985 172.046C86.548 172.972 85.2381 174.426 83.2852 176.279C82.206 177.303 81.3231 178.194 81.3231 178.259C81.3231 178.324 81.8096 178.378 82.4044 178.378H83.4858L84.4827 177.432C85.0311 176.911 86.0144 176.014 86.6678 175.438C87.9585 174.299 89.4938 172.768 89.4949 172.617C89.4953 172.565 89.6598 172.329 89.8604 172.092C90.1365 171.766 90.3422 171.662 90.7059 171.662C91.147 171.662 91.1865 171.697 91.1865 172.086C91.1865 172.993 90.7843 173.52 88.1366 176.084L85.5202 178.617L85.9756 178.707C86.226 178.757 87.1436 178.798 88.0146 178.798H89.5982L89.832 178.19C89.964 177.847 90.3557 177.311 90.7318 176.96C91.0981 176.618 92.0407 175.617 92.8264 174.735C94.3347 173.041 95.8733 171.522 96.0796 171.522C96.3366 171.522 96.5409 171.874 96.5409 172.318C96.5409 172.802 95.7651 173.782 93.5712 176.069C92.0091 177.698 91.2226 178.719 91.4346 178.844C91.492 178.878 91.9385 178.951 92.427 179.006L93.3152 179.107L94.752 177.652C95.5422 176.851 96.5454 175.79 96.9815 175.293C98.2574 173.84 101.776 170.402 101.989 170.402C102.096 170.402 102.256 170.561 102.345 170.756C102.475 171.039 102.462 171.204 102.281 171.582C102.032 172.099 100.272 174.087 98.2948 176.082C97.0062 177.383 95.9221 178.547 95.7661 178.797C95.7099 178.888 96.243 178.938 97.2702 178.938H98.8618L102.175 175.6C103.997 173.764 105.797 172.02 106.173 171.723C106.838 171.198 106.864 171.191 107.063 171.457C107.326 171.81 107.21 172.413 106.755 173.057C106.344 173.64 102.266 177.743 101.631 178.214C100.811 178.82 101.009 178.938 102.855 178.938H104.518L105.786 177.643C106.483 176.932 107.554 175.751 108.167 175.02C109.471 173.464 112.497 170.402 112.731 170.402C112.82 170.402 112.961 170.553 113.045 170.736C113.346 171.391 112.194 172.989 109.153 176.139C107.957 177.378 106.968 178.586 106.968 178.808C106.968 178.881 107.767 178.938 108.782 178.938H110.597L112.839 176.651C114.319 175.142 115.289 174.023 115.692 173.361C116.44 172.131 116.969 171.662 117.607 171.662C118.092 171.662 118.522 171.956 118.522 172.289C118.522 172.392 118.316 172.642 118.064 172.844C117.18 173.554 116.846 173.935 116.758 174.333C116.702 174.588 115.98 175.452 114.778 176.705C113.737 177.788 112.886 178.734 112.886 178.806C112.886 178.881 113.671 178.938 114.718 178.938C116.385 178.938 116.829 178.846 116.409 178.588C116.195 178.457 116.24 177.993 116.507 177.568C116.639 177.36 117.638 176.276 118.726 175.16C120.607 173.232 121.337 172.233 121.342 171.576C121.345 171.233 121.48 171.041 121.859 170.843C122.124 170.705 122.206 170.734 122.458 171.051C123.302 172.117 122.602 173.278 118.706 177.274C117.985 178.013 117.395 178.69 117.395 178.778C117.395 178.893 118.411 178.938 121.062 178.938H124.729L124.872 178.563C124.951 178.357 125.631 177.55 126.384 176.77C127.809 175.292 128.342 174.69 129.508 173.25C130.32 172.246 130.907 171.795 131.449 171.758C131.818 171.733 131.837 171.762 131.826 172.317C131.812 173.043 131.278 173.772 129.232 175.859C127.83 177.289 126.977 178.384 126.977 178.755C126.977 178.893 127.321 178.938 128.386 178.938H129.795L129.796 178.483C129.797 177.939 130.012 177.598 131.155 176.331C132.726 174.589 132.891 174.395 133.28 173.83C134.334 172.299 134.785 171.77 135.207 171.57C135.627 171.371 135.707 171.372 136.115 171.581C136.517 171.787 136.546 171.843 136.398 172.121C136.212 172.472 134.532 174.591 132.548 176.979C131.812 177.864 131.209 178.667 131.207 178.763C131.205 178.892 131.589 178.938 132.667 178.938C134.042 178.938 134.143 178.918 134.345 178.613C134.463 178.434 135.162 177.642 135.898 176.852C136.635 176.062 137.661 174.793 138.177 174.032C139.226 172.487 140.016 171.802 140.747 171.802C141.836 171.802 141.504 172.406 138.326 176.209C136.733 178.116 136.219 178.788 136.298 178.866C136.332 178.899 136.865 178.968 137.483 179.019L138.608 179.112L139.096 178.36C139.364 177.947 139.61 177.545 139.642 177.468C139.674 177.391 139.833 177.167 139.996 176.969C140.159 176.771 140.451 176.399 140.644 176.142C140.838 175.885 141.409 175.166 141.914 174.543C142.418 173.92 143.076 173.048 143.376 172.604C143.909 171.818 144.28 171.583 144.825 171.685C145.597 171.831 144.761 173.542 142.751 175.929C141.48 177.439 140.851 178.277 140.52 178.903C140.356 179.211 140.369 179.217 141.124 179.217C141.895 179.217 141.897 179.217 142.503 178.434C142.837 178.002 143.825 176.767 144.699 175.689C145.573 174.611 146.359 173.598 146.444 173.438C146.53 173.279 146.719 173.022 146.863 172.868C147.008 172.714 147.126 172.551 147.126 172.505C147.126 172.355 147.937 171.942 148.23 171.942C148.589 171.942 148.728 172.348 148.537 172.845C148.221 173.671 146.642 175.817 145.187 177.398C144.683 177.945 144.117 178.795 144.201 178.878C144.243 178.919 144.648 178.861 145.103 178.747C145.557 178.634 146.214 178.5 146.563 178.45C147.625 178.298 149.605 177.7 150.581 177.237C151.636 176.736 152.675 175.7 152.814 175.008C152.966 174.253 152.908 172.616 152.693 171.61C152.219 169.386 150.786 168.244 147.996 167.867C147.479 167.797 143.568 167.68 139.306 167.607C135.043 167.534 130.89 167.409 130.077 167.33C129.263 167.25 126.917 167.092 124.863 166.977C119.163 166.66 114.405 166.366 110.984 166.121C108.88 165.971 104.374 165.86 96.9636 165.777C90.9575 165.71 85.5996 165.591 85.0571 165.514C84.1374 165.384 80.0162 165.325 79.7026 165.438ZM159.467 166.052C159.241 166.3 159.24 166.35 159.451 166.756C159.586 167.015 159.736 167.858 159.821 168.832C159.899 169.734 160.032 170.648 160.116 170.862C160.403 171.594 161.112 171.674 161.369 171.004C161.68 170.19 161.421 167.857 160.906 166.839C160.36 165.761 159.941 165.532 159.467 166.052ZM127.243 171.202C126.925 171.488 125.767 172.783 124.671 174.081C123.576 175.378 122.496 176.652 122.273 176.911C121.792 177.471 121.689 178.318 122.073 178.564C122.434 178.795 123.053 178.519 123.383 177.98C123.95 177.052 125.845 174.782 126.963 173.691C127.841 172.834 128.176 172.396 128.393 171.82C128.663 171.102 128.665 171.061 128.425 170.88C128.042 170.592 127.872 170.638 127.243 171.202ZM150.839 173.869C150.517 174.156 149.928 174.633 149.529 174.93C148.795 175.477 147.831 176.722 147.831 177.124C147.831 177.441 148.119 177.678 148.503 177.678C148.736 177.678 149.214 177.3 150.093 176.419C150.784 175.726 151.408 175.16 151.481 175.16C151.809 175.16 152.481 174.418 152.481 174.056C152.481 173.19 151.701 173.101 150.839 173.869Z" fill="#D4B7AA"/>
</g>
<path d="M41.7007 241.16C40.2874 241.16 39.014 240.853 37.8807 240.24C36.7474 239.613 35.854 238.753 35.2007 237.66C34.5607 236.567 34.2407 235.347 34.2407 234C34.2407 232.653 34.5607 231.433 35.2007 230.34C35.854 229.247 36.7474 228.393 37.8807 227.78C39.014 227.153 40.2874 226.84 41.7007 226.84C43.1007 226.84 44.3674 227.153 45.5007 227.78C46.634 228.393 47.5207 229.247 48.1607 230.34C48.8007 231.42 49.1207 232.64 49.1207 234C49.1207 235.36 48.8007 236.587 48.1607 237.68C47.5207 238.76 46.634 239.613 45.5007 240.24C44.3674 240.853 43.1007 241.16 41.7007 241.16ZM41.7007 239.38C42.7274 239.38 43.6474 239.147 44.4607 238.68C45.2874 238.213 45.934 237.573 46.4007 236.76C46.8807 235.933 47.1207 235.013 47.1207 234C47.1207 232.987 46.8807 232.073 46.4007 231.26C45.934 230.433 45.2874 229.787 44.4607 229.32C43.6474 228.853 42.7274 228.62 41.7007 228.62C40.674 228.62 39.7407 228.853 38.9007 229.32C38.074 229.787 37.4207 230.433 36.9407 231.26C36.474 232.073 36.2407 232.987 36.2407 234C36.2407 235.013 36.474 235.933 36.9407 236.76C37.4207 237.573 38.074 238.213 38.9007 238.68C39.7407 239.147 40.674 239.38 41.7007 239.38ZM57.4338 230.76C58.4205 230.76 59.3005 230.98 60.0738 231.42C60.8472 231.86 61.4472 232.473 61.8738 233.26C62.3138 234.033 62.5338 234.92 62.5338 235.92C62.5338 236.947 62.3005 237.86 61.8338 238.66C61.3805 239.447 60.7338 240.06 59.8938 240.5C59.0672 240.94 58.1205 241.16 57.0538 241.16C55.2538 241.16 53.8605 240.547 52.8738 239.32C51.9005 238.08 51.4138 236.34 51.4138 234.1C51.4138 231.927 51.8605 230.227 52.7538 229C53.6472 227.76 55.0138 226.94 56.8538 226.54L61.6938 225.46L61.9738 227.22L57.5138 228.18C56.1272 228.487 55.0938 229.007 54.4138 229.74C53.7338 230.473 53.3472 231.527 53.2538 232.9C53.7072 232.22 54.2938 231.693 55.0138 231.32C55.7338 230.947 56.5405 230.76 57.4338 230.76ZM57.0938 239.56C57.7738 239.56 58.3738 239.407 58.8938 239.1C59.4272 238.793 59.8405 238.373 60.1338 237.84C60.4272 237.293 60.5738 236.673 60.5738 235.98C60.5738 234.927 60.2538 234.08 59.6138 233.44C58.9738 232.8 58.1338 232.48 57.0938 232.48C56.0538 232.48 55.2072 232.8 54.5538 233.44C53.9138 234.08 53.5938 234.927 53.5938 235.98C53.5938 236.673 53.7405 237.293 54.0338 237.84C54.3405 238.373 54.7605 238.793 55.2938 239.1C55.8272 239.407 56.4272 239.56 57.0938 239.56ZM69.816 241.12C68.7627 241.12 67.816 240.887 66.976 240.42C66.136 239.953 65.476 239.313 64.996 238.5C64.5293 237.673 64.296 236.74 64.296 235.7C64.296 234.66 64.5293 233.733 64.996 232.92C65.476 232.093 66.136 231.453 66.976 231C67.816 230.533 68.7627 230.3 69.816 230.3C70.8693 230.3 71.8093 230.533 72.636 231C73.476 231.453 74.1293 232.093 74.596 232.92C75.076 233.733 75.316 234.66 75.316 235.7C75.316 236.74 75.076 237.673 74.596 238.5C74.1293 239.313 73.476 239.953 72.636 240.42C71.8093 240.887 70.8693 241.12 69.816 241.12ZM69.816 239.44C70.496 239.44 71.1027 239.287 71.636 238.98C72.1827 238.66 72.6093 238.22 72.916 237.66C73.2227 237.087 73.376 236.433 73.376 235.7C73.376 234.967 73.2227 234.32 72.916 233.76C72.6093 233.187 72.1827 232.747 71.636 232.44C71.1027 232.133 70.496 231.98 69.816 231.98C69.136 231.98 68.5227 232.133 67.976 232.44C67.4427 232.747 67.016 233.187 66.696 233.76C66.3893 234.32 66.236 234.967 66.236 235.7C66.236 236.433 66.3893 237.087 66.696 237.66C67.016 238.22 67.4427 238.66 67.976 238.98C68.5227 239.287 69.136 239.44 69.816 239.44ZM83.7085 230.3C84.7352 230.3 85.6552 230.527 86.4685 230.98C87.2818 231.433 87.9152 232.067 88.3685 232.88C88.8352 233.693 89.0685 234.633 89.0685 235.7C89.0685 236.767 88.8352 237.713 88.3685 238.54C87.9152 239.353 87.2818 239.987 86.4685 240.44C85.6552 240.893 84.7352 241.12 83.7085 241.12C82.9485 241.12 82.2485 240.973 81.6085 240.68C80.9818 240.387 80.4485 239.96 80.0085 239.4V244.88H78.0885V230.4H79.9285V232.08C80.3552 231.493 80.8952 231.053 81.5485 230.76C82.2018 230.453 82.9218 230.3 83.7085 230.3ZM83.5485 239.44C84.2285 239.44 84.8352 239.287 85.3685 238.98C85.9152 238.66 86.3418 238.22 86.6485 237.66C86.9685 237.087 87.1285 236.433 87.1285 235.7C87.1285 234.967 86.9685 234.32 86.6485 233.76C86.3418 233.187 85.9152 232.747 85.3685 232.44C84.8352 232.133 84.2285 231.98 83.5485 231.98C82.8818 231.98 82.2752 232.14 81.7285 232.46C81.1952 232.767 80.7685 233.2 80.4485 233.76C80.1418 234.32 79.9885 234.967 79.9885 235.7C79.9885 236.433 80.1418 237.087 80.4485 237.66C80.7552 238.22 81.1818 238.66 81.7285 238.98C82.2752 239.287 82.8818 239.44 83.5485 239.44ZM101.025 230.4L95.8851 242.06C95.4317 243.14 94.8984 243.9 94.2851 244.34C93.6851 244.78 92.9584 245 92.1051 245C91.5851 245 91.0784 244.913 90.5851 244.74C90.1051 244.58 89.7051 244.34 89.3851 244.02L90.2051 242.58C90.7517 243.1 91.3851 243.36 92.1051 243.36C92.5717 243.36 92.9584 243.233 93.2651 242.98C93.5851 242.74 93.8717 242.32 94.1251 241.72L94.4651 240.98L89.7851 230.4H91.7851L95.4851 238.88L99.1451 230.4H101.025ZM113.204 239.32V243.46H111.404V241H102.544V243.46H100.724V239.32H101.284C101.964 239.28 102.431 238.8 102.684 237.88C102.938 236.96 103.111 235.66 103.204 233.98L103.364 230.4H111.584V239.32H113.204ZM104.964 234.12C104.911 235.453 104.798 236.56 104.624 237.44C104.464 238.307 104.164 238.933 103.724 239.32H109.664V232.08H105.064L104.964 234.12ZM120.246 241.12C119.192 241.12 118.246 240.887 117.406 240.42C116.566 239.953 115.906 239.313 115.426 238.5C114.959 237.673 114.726 236.74 114.726 235.7C114.726 234.66 114.959 233.733 115.426 232.92C115.906 232.093 116.566 231.453 117.406 231C118.246 230.533 119.192 230.3 120.246 230.3C121.299 230.3 122.239 230.533 123.066 231C123.906 231.453 124.559 232.093 125.026 232.92C125.506 233.733 125.746 234.66 125.746 235.7C125.746 236.74 125.506 237.673 125.026 238.5C124.559 239.313 123.906 239.953 123.066 240.42C122.239 240.887 121.299 241.12 120.246 241.12ZM120.246 239.44C120.926 239.44 121.532 239.287 122.066 238.98C122.612 238.66 123.039 238.22 123.346 237.66C123.652 237.087 123.806 236.433 123.806 235.7C123.806 234.967 123.652 234.32 123.346 233.76C123.039 233.187 122.612 232.747 122.066 232.44C121.532 232.133 120.926 231.98 120.246 231.98C119.566 231.98 118.952 232.133 118.406 232.44C117.872 232.747 117.446 233.187 117.126 233.76C116.819 234.32 116.666 234.967 116.666 235.7C116.666 236.433 116.819 237.087 117.126 237.66C117.446 238.22 117.872 238.66 118.406 238.98C118.952 239.287 119.566 239.44 120.246 239.44ZM135.738 235.5C137.112 235.847 137.798 236.707 137.798 238.08C137.798 239.013 137.445 239.733 136.738 240.24C136.045 240.747 135.005 241 133.618 241H128.518V230.4H133.438C134.692 230.4 135.672 230.64 136.378 231.12C137.085 231.587 137.438 232.253 137.438 233.12C137.438 233.68 137.285 234.167 136.978 234.58C136.685 234.98 136.272 235.287 135.738 235.5ZM130.398 234.96H133.278C134.012 234.96 134.565 234.827 134.938 234.56C135.325 234.293 135.518 233.907 135.518 233.4C135.518 232.387 134.772 231.88 133.278 231.88H130.398V234.96ZM133.478 239.52C134.278 239.52 134.878 239.393 135.278 239.14C135.678 238.887 135.878 238.493 135.878 237.96C135.878 237.413 135.692 237.007 135.318 236.74C134.958 236.473 134.385 236.34 133.598 236.34H130.398V239.52H133.478ZM144.583 230.3C146.05 230.3 147.17 230.66 147.943 231.38C148.73 232.1 149.123 233.173 149.123 234.6V241H147.303V239.6C146.983 240.093 146.523 240.473 145.923 240.74C145.337 240.993 144.637 241.12 143.823 241.12C142.637 241.12 141.683 240.833 140.963 240.26C140.257 239.687 139.903 238.933 139.903 238C139.903 237.067 140.243 236.32 140.923 235.76C141.603 235.187 142.683 234.9 144.163 234.9H147.203V234.52C147.203 233.693 146.963 233.06 146.483 232.62C146.003 232.18 145.297 231.96 144.363 231.96C143.737 231.96 143.123 232.067 142.523 232.28C141.923 232.48 141.417 232.753 141.003 233.1L140.203 231.66C140.75 231.22 141.403 230.887 142.163 230.66C142.923 230.42 143.73 230.3 144.583 230.3ZM144.143 239.64C144.877 239.64 145.51 239.48 146.043 239.16C146.577 238.827 146.963 238.36 147.203 237.76V236.28H144.243C142.617 236.28 141.803 236.827 141.803 237.92C141.803 238.453 142.01 238.873 142.423 239.18C142.837 239.487 143.41 239.64 144.143 239.64ZM152.581 230.4H154.501V234.9H160.541V230.4H162.461V241H160.541V236.56H154.501V241H152.581V230.4ZM166.194 230.4H168.114V238.12L174.614 230.4H176.354V241H174.434V233.28L167.954 241H166.194V230.4ZM189.661 235.76C189.661 235.907 189.647 236.1 189.621 236.34H181.021C181.141 237.273 181.547 238.027 182.241 238.6C182.947 239.16 183.821 239.44 184.861 239.44C186.127 239.44 187.147 239.013 187.921 238.16L188.981 239.4C188.501 239.96 187.901 240.387 187.181 240.68C186.474 240.973 185.681 241.12 184.801 241.12C183.681 241.12 182.687 240.893 181.821 240.44C180.954 239.973 180.281 239.327 179.801 238.5C179.334 237.673 179.101 236.74 179.101 235.7C179.101 234.673 179.327 233.747 179.781 232.92C180.247 232.093 180.881 231.453 181.681 231C182.494 230.533 183.407 230.3 184.421 230.3C185.434 230.3 186.334 230.533 187.121 231C187.921 231.453 188.541 232.093 188.981 232.92C189.434 233.747 189.661 234.693 189.661 235.76ZM184.421 231.92C183.501 231.92 182.727 232.2 182.101 232.76C181.487 233.32 181.127 234.053 181.021 234.96H187.821C187.714 234.067 187.347 233.34 186.721 232.78C186.107 232.207 185.341 231.92 184.421 231.92Z" fill="#D4B7AA"/>
<defs>
<clipPath id="clip0_24_196603">
<rect width="107" height="142" fill="white" transform="translate(58.5 40)"/>
</clipPath>
</defs>
</svg>
