<svg width="14" height="15" viewBox="0 0 14 15" fill="none" xmlns="http://www.w3.org/2000/svg">
<path fill-rule="evenodd" clip-rule="evenodd" d="M11.9499 11.5228C12.9288 10.5788 13.5955 9.37607 13.8655 8.06671C13.9548 7.63385 13.9994 7.19576 14 6.75865C14 6.7529 14 6.74714 14 6.74139C13.9988 5.86208 13.8195 4.98705 13.4671 4.16678C12.9373 2.9334 12.0401 1.87922 10.889 1.13753C9.74287 0.399105 8.39633 0.00345988 7.01823 0H6.98177C5.60367 0.00345988 4.25713 0.399105 3.11105 1.13753C1.95991 1.87922 1.0627 2.9334 0.532881 4.16678C0.179363 4.98974 0 5.86781 0 6.75002C0 7.19 0.0446112 7.631 0.13448 8.06671C0.404547 9.37607 1.0712 10.5788 2.05013 11.5228L5.35109 14.7051C5.46679 14.8166 5.59359 14.9153 5.72864 15H8.27214C8.40719 14.9153 8.53377 14.8168 8.64947 14.7054L11.9499 11.5228ZM7 1.49998C5.9232 1.49998 4.87059 1.80788 3.97526 2.38474C3.07993 2.96161 2.3821 3.78153 1.97002 4.74083C1.55793 5.70012 1.4501 6.75571 1.66015 7.7741C1.8702 8.79246 2.38867 9.72789 3.15002 10.4621L4.19059 8.03983C3.99717 7.64896 3.88889 7.21139 3.88889 6.74943C3.88889 5.44431 4.75315 4.33385 5.95989 3.92118L7 1.49998ZM7 1.49998L5.95989 3.92118C6.28511 3.80997 6.63524 3.74943 7 3.74943C8.71821 3.74943 10.1111 5.09257 10.1111 6.74943C10.1111 8.40628 8.71821 9.74943 7 9.74943C5.76088 9.74943 4.69092 9.0508 4.19059 8.03983L3.15002 10.4621L6.4507 13.6442C6.59651 13.7845 6.79435 13.8636 7.00039 13.8636C7.20653 13.8636 7.40424 13.7846 7.55008 13.6442L10.8499 10.4622C11.6113 9.72795 12.1298 8.79249 12.3398 7.7741C12.5499 6.75571 12.4421 5.70012 12.03 4.74083C11.6179 3.78153 10.9201 2.96161 10.0247 2.38474C9.12941 1.80788 8.0768 1.49998 7 1.49998ZM7 5.24943C6.14089 5.24943 5.44444 5.921 5.44444 6.74943C5.44444 7.57786 6.14089 8.24943 7 8.24943C7.85911 8.24943 8.55555 7.57786 8.55555 6.74943C8.55555 5.921 7.85911 5.24943 7 5.24943Z" fill="#DFDFDF"/>
</svg>
