<svg width="15" height="11" viewBox="0 0 15 11" fill="none" xmlns="http://www.w3.org/2000/svg">
<path fill-rule="evenodd" clip-rule="evenodd" d="M0 2.05258L5.55408e-05 2.04937C0.00772905 0.919447 1.0066 0.00504547 2.23975 0H12.7603C13.9934 0.00504546 14.9923 0.919443 15 2.04936L15 2.05116V8.94415C14.9961 10.0802 13.9902 11 12.75 11H2.25001C1.00737 11 1.10303e-05 10.0766 1.10303e-05 8.9375V2.07192L0 2.0712V2.05258ZM2.25001 1.37498C1.96032 1.37498 1.70899 1.52554 1.58406 1.74595L7.50001 5.36126L13.416 1.74595C13.291 1.52554 13.0397 1.37498 12.75 1.37498H2.25001ZM13.5 8.9375V3.34713L7.91604 6.75957C7.66411 6.91352 7.33591 6.91352 7.08399 6.75957L1.50001 3.34713V8.9375C1.50001 9.31719 1.8358 9.625 2.25001 9.625H12.75C13.1642 9.625 13.5 9.31719 13.5 8.9375Z" fill="#DFDFDF"/>
</svg>
